Recursive Sans-Casual Regular.ufo
<glyph name="quotedbl" format="2">
  <advance width="600.0"/>
  <unicode hex="0022"/>
  <outline>
    <contour>
      <point x="229.96226415094338" y="441.3207547169811" type="curve"/>
      <point x="241.62264150943395" y="669.1698113207547" type="line" smooth="yes"/>
      <point x="245.2830188679245" y="726.3584905660377"/>
      <point x="217.1509433962264" y="754.0"/>
      <point x="152.1509433962264" y="754.0" type="curve" smooth="yes"/>
      <point x="136.73584905660377" y="754.0"/>
      <point x="124.66037735849055" y="752.4150943396227"/>
      <point x="114.50943396226415" y="750.0" type="curve"/>
      <point x="122.9245283018868" y="726.1698113207547"/>
      <point x="125.58490566037736" y="710.0377358490566"/>
      <point x="128.41509433962264" y="655.1132075471698" type="curve" smooth="yes"/>
      <point x="138.41509433962264" y="483.86792452830184" type="line" smooth="yes"/>
      <point x="140.24528301886792" y="451.1509433962264"/>
      <point x="157.56603773584905" y="438.8301886792453"/>
      <point x="200.62264150943395" y="438.8301886792453" type="curve" smooth="yes"/>
      <point x="211.9245283018868" y="438.8301886792453"/>
      <point x="221.9811320754717" y="439.66037735849056"/>
    </contour>
    <contour>
      <point x="458.2641509433962" y="441.3207547169811" type="curve"/>
      <point x="471.1698113207547" y="662.1509433962265" type="line" smooth="yes"/>
      <point x="475.2452830188679" y="726.3584905660377"/>
      <point x="446.6981132075471" y="754.0"/>
      <point x="385.5094339622641" y="754.0" type="curve" smooth="yes"/>
      <point x="372.94339622641513" y="754.0"/>
      <point x="363.4528301886793" y="753.0"/>
      <point x="352.1320754716981" y="750.4150943396227" type="curve"/>
      <point x="367.9622641509434" y="483.86792452830184" type="line"/>
      <point x="369.79245283018867" y="451.1509433962264"/>
      <point x="387.1132075471698" y="438.8301886792453"/>
      <point x="430.1698113207547" y="438.8301886792453" type="curve" smooth="yes"/>
      <point x="441.4716981132076" y="438.8301886792453"/>
      <point x="450.28301886792457" y="439.66037735849056"/>
    </contour>
  </outline>
</glyph>
<glyph name="numbersign" format="2">
  <advance width="600.0"/>
  <unicode hex="0023"/>
  <outline>
    <contour>
      <point x="215.50943396226413" y="715.4150943396227" type="curve"/>
      <point x="207.2075471698113" y="513.4150943396227"/>
      <point x="167.24528301886792" y="239.83018867924528"/>
      <point x="49.283018867924525" y="-10.679245283018869" type="curve"/>
      <point x="57.528301886792455" y="-15.754716981132075"/>
      <point x="65.43396226415095" y="-19.169811320754718"/>
      <point x="82.15094339622642" y="-19.169811320754718" type="curve"/>
      <point x="108.45283018867926" y="-19.58490566037736"/>
      <point x="126.50943396226415" y="-13.924528301886792"/>
      <point x="142.9811320754717" y="20.358490566037737" type="curve" smooth="yes"/>
      <point x="245.9622641509434" y="254.1509433962264"/>
      <point x="283.26415094339626" y="513.9056603773585"/>
      <point x="289.49056603773585" y="679.2452830188679" type="curve" smooth="yes"/>
      <point x="291.9811320754717" y="714.8490566037735"/>
      <point x="272.8301886792453" y="720.0"/>
      <point x="249.30188679245285" y="720.0" type="curve" smooth="yes"/>
      <point x="237.9811320754717" y="720.0"/>
      <point x="226.24528301886792" y="718.8301886792453"/>
    </contour>
    <contour>
      <point x="417.1509433962264" y="714.5849056603773" type="curve"/>
      <point x="408.4339622641509" y="514.9245283018868"/>
      <point x="368.88679245283015" y="239.41509433962264"/>
      <point x="250.50943396226413" y="-11.50943396226415" type="curve"/>
      <point x="258.75471698113205" y="-16.58490566037736"/>
      <point x="266.66037735849056" y="-20.0"/>
      <point x="283.37735849056605" y="-20.0" type="curve"/>
      <point x="309.6792452830189" y="-20.0"/>
      <point x="327.3207547169811" y="-14.339622641509434"/>
      <point x="343.37735849056605" y="19.113207547169814" type="curve" smooth="yes"/>
      <point x="447.188679245283" y="253.73584905660377"/>
      <point x="484.49056603773585" y="513.4905660377359"/>
      <point x="491.1320754716981" y="679.2452830188679" type="curve" smooth="yes"/>
      <point x="493.20754716981133" y="714.0188679245283"/>
      <point x="474.0566037735849" y="719.5849056603773"/>
      <point x="450.52830188679246" y="719.5849056603773" type="curve" smooth="yes"/>
      <point x="439.20754716981133" y="719.5849056603773"/>
      <point x="427.47169811320754" y="718.0"/>
    </contour>
    <contour>
      <point x="571.2075471698114" y="437.5471698113207" type="line"/>
      <point x="571.2075471698114" y="441.79245283018867"/>
      <point x="571.2075471698114" y="446.622641509434"/>
      <point x="571.2075471698114" y="451.28301886792457" type="curve" smooth="yes"/>
      <point x="571.2075471698114" y="480.5660377358491"/>
      <point x="565.3018867924529" y="498.20754716981133"/>
      <point x="553.9811320754718" y="509.52830188679246" type="curve" smooth="yes"/>
      <point x="546.0" y="517.5094339622642"/>
      <point x="535.3584905660377" y="520.7547169811321"/>
      <point x="513.3396226415094" y="520.7547169811321" type="curve"/>
      <point x="80.0" y="520.7547169811321" type="line"/>
      <point x="76.26415094339623" y="510.28301886792457"/>
      <point x="74.60377358490565" y="498.3962264150943"/>
      <point x="74.60377358490565" y="488.75471698113205" type="curve" smooth="yes"/>
      <point x="74.60377358490565" y="454.71698113207543"/>
      <point x="84.58490566037736" y="437.5471698113207"/>
      <point x="118.35849056603773" y="437.5471698113207" type="curve" smooth="yes"/>
    </contour>
    <contour>
      <point x="28.37735849056604" y="262.45283018867923" type="line"/>
      <point x="28.37735849056604" y="258.20754716981133"/>
      <point x="28.37735849056604" y="253.37735849056605"/>
      <point x="28.37735849056604" y="248.71698113207546" type="curve" smooth="yes"/>
      <point x="28.37735849056604" y="219.43396226415095"/>
      <point x="34.283018867924525" y="201.79245283018867"/>
      <point x="45.60377358490566" y="190.47169811320754" type="curve" smooth="yes"/>
      <point x="53.58490566037736" y="182.49056603773585"/>
      <point x="64.22641509433961" y="179.24528301886792"/>
      <point x="86.24528301886792" y="179.24528301886792" type="curve"/>
      <point x="536.6037735849058" y="179.24528301886792" type="line"/>
      <point x="538.2641509433963" y="189.71698113207546"/>
      <point x="539.5094339622642" y="201.60377358490567"/>
      <point x="539.5094339622642" y="211.24528301886792" type="curve" smooth="yes"/>
      <point x="539.5094339622642" y="245.2830188679245"/>
      <point x="529.5283018867925" y="262.45283018867923"/>
      <point x="495.75471698113205" y="262.45283018867923" type="curve"/>
    </contour>
  </outline>
</glyph>
<glyph name="parenleft" format="2">
  <advance width="400.0"/>
  <unicode hex="0028"/>
  <outline>
    <contour>
      <point x="253.11320754716982" y="742.4716981132075" type="curve" smooth="yes"/>
      <point x="145.0754716981132" y="637.9433962264151"/>
      <point x="84.88679245283019" y="472.5849056603774"/>
      <point x="84.88679245283019" y="301.8301886792453" type="curve" smooth="yes"/>
      <point x="84.88679245283019" y="295.75471698113205" type="line" smooth="yes"/>
      <point x="84.88679245283019" y="124.99999999999999"/>
      <point x="146.0754716981132" y="-44.867924528301884"/>
      <point x="253.69811320754718" y="-144.30188679245282" type="curve" smooth="yes"/>
      <point x="273.8301886792453" y="-163.26415094339623"/>
      <point x="292.1320754716981" y="-172.41509433962264"/>
      <point x="315.8490566037736" y="-172.41509433962264" type="curve" smooth="yes"/>
      <point x="342.7169811320755" y="-172.41509433962264"/>
      <point x="354.86792452830184" y="-164.0188679245283"/>
      <point x="369.8490566037736" y="-150.62264150943395" type="curve"/>
      <point x="369.8490566037736" y="-145.7924528301887" type="line"/>
      <point x="239.49056603773585" y="-33.37735849056604"/>
      <point x="176.64150943396226" y="124.90566037735849"/>
      <point x="176.64150943396226" y="295.75471698113205" type="curve" smooth="yes"/>
      <point x="176.64150943396226" y="301.8301886792453" type="line" smooth="yes"/>
      <point x="176.64150943396226" y="471.6792452830189"/>
      <point x="238.0754716981132" y="630.377358490566"/>
      <point x="369.26415094339626" y="745.132075471698" type="curve"/>
      <point x="369.26415094339626" y="749.9622641509434" type="line"/>
      <point x="354.2830188679245" y="761.6037735849056"/>
      <point x="341.54716981132077" y="770.0"/>
      <point x="315.26415094339626" y="770.0" type="curve" smooth="yes"/>
      <point x="292.1320754716981" y="770.0"/>
      <point x="272.66037735849056" y="762.0188679245283"/>
    </contour>
  </outline>
</glyph>
<glyph name="hyphen" format="2">
  <advance width="600.0"/>
  <unicode hex="002D"/>
  <outline>
    <contour>
      <point x="105.84905660377358" y="345.33962264150944" type="line"/>
      <point x="105.84905660377358" y="341.09433962264154"/>
      <point x="105.84905660377358" y="336.26415094339626"/>
      <point x="105.84905660377358" y="331.60377358490564" type="curve" smooth="yes"/>
      <point x="105.84905660377358" y="267.49056603773585"/>
      <point x="115.33962264150944" y="253.83018867924528"/>
      <point x="163.71698113207546" y="253.83018867924528" type="curve"/>
      <point x="496.2264150943396" y="253.83018867924528" type="line"/>
      <point x="497.8867924528302" y="264.3018867924528"/>
      <point x="499.1320754716981" y="276.188679245283"/>
      <point x="499.1320754716981" y="285.8301886792453" type="curve" smooth="yes"/>
      <point x="499.1320754716981" y="330.4339622641509"/>
      <point x="488.3962264150943" y="345.33962264150944"/>
      <point x="455.37735849056605" y="345.33962264150944" type="curve"/>
    </contour>
  </outline>
</glyph>
<glyph name="E" format="2">
  <advance width="550.0"/>
  <unicode hex="0045"/>
  <anchor x="272.0943396226415" y="711.0" name="top"/>
  <anchor x="293.6981132075472" y="-1.0" name="bottom"/>
  <anchor x="501.90566037735846" y="1.169811320754717" name="ogonek"/>
  <anchor x="272.0943396226415" y="770.0" name="hook"/>
  <outline>
    <contour>
      <point x="43.77358490566038" y="700.0" type="line"/>
      <point x="42.528301886792455" y="690.3584905660377"/>
      <point x="41.69811320754717" y="680.132075471698"/>
      <point x="41.69811320754717" y="671.3207547169811" type="curve" smooth="yes"/>
      <point x="41.69811320754717" y="639.7735849056604"/>
      <point x="50.943396226415096" y="608.4905660377359"/>
      <point x="74.24528301886792" y="608.4905660377359" type="curve" smooth="yes"/>
      <point x="499.49056603773585" y="608.4905660377359" type="line"/>
      <point x="502.73584905660374" y="617.2264150943396"/>
      <point x="504.1509433962264" y="628.0377358490566"/>
      <point x="504.1509433962264" y="642.0188679245283" type="curve" smooth="yes"/>
      <point x="504.1509433962264" y="663.4905660377359"/>
      <point x="495.66037735849056" y="700.0"/>
      <point x="460.64150943396226" y="700.0" type="curve" smooth="yes"/>
    </contour>
    <contour>
      <point x="149.0566037735849" y="370.75471698113205" type="line"/>
      <point x="149.0566037735849" y="287.54716981132077" type="line"/>
      <point x="435.35849056603774" y="287.54716981132077" type="line"/>
      <point x="436.188679245283" y="293.45283018867923"/>
      <point x="436.60377358490564" y="299.52830188679246"/>
      <point x="436.60377358490564" y="307.50943396226415" type="curve" smooth="yes"/>
      <point x="436.60377358490564" y="340.3018867924528"/>
      <point x="422.37735849056605" y="370.75471698113205"/>
      <point x="389.52830188679246" y="370.75471698113205" type="curve"/>
    </contour>
    <contour>
      <point x="155.49056603773585" y="0.0" type="curve" smooth="yes"/>
      <point x="500.49056603773585" y="0.0" type="line"/>
      <point x="502.73584905660374" y="7.981132075471699"/>
      <point x="504.1509433962264" y="21.79245283018868"/>
      <point x="504.1509433962264" y="33.43396226415095" type="curve" smooth="yes"/>
      <point x="504.1509433962264" y="73.11320754716982"/>
      <point x="485.77358490566036" y="91.50943396226415"/>
      <point x="441.2830188679245" y="91.50943396226415" type="curve"/>
      <point x="185.28301886792454" y="91.50943396226415" type="line"/>
      <point x="185.28301886792454" y="234.45283018867926"/>
      <point x="185.28301886792454" y="391.84905660377353"/>
      <point x="185.28301886792454" y="534.2075471698113" type="curve" smooth="yes"/>
      <point x="185.28301886792454" y="567.4339622641509"/>
      <point x="178.37735849056605" y="587.8301886792452"/>
      <point x="161.32075471698113" y="603.0754716981131" type="curve"/>
      <point x="173.83018867924528" y="632.6603773584906" type="line"/>
      <point x="89.62264150943396" y="632.6603773584906" type="line"/>
      <point x="89.62264150943396" y="469.8679245283019"/>
      <point x="89.62264150943396" y="264.37735849056605"/>
      <point x="89.62264150943396" y="83.45283018867924" type="curve" smooth="yes"/>
      <point x="89.62264150943396" y="38.41509433962264"/>
      <point x="122.71698113207546" y="0.0"/>
    </contour>
  </outline>
</glyph>
<glyph name="Y" format="2">
  <advance width="650.0"/>
  <unicode hex="0059"/>
  <anchor x="320.0" y="711.4150943396227" name="top"/>
  <anchor x="323.75471698113205" y="-143.07547169811323" name="dot"/>
  <anchor x="322.50943396226415" y="770.0" name="hook"/>
  <anchor x="325.0" y="-1.0" name="bottom"/>
  <outline>
    <contour>
      <point x="378.5660377358491" y="-4.09433962264151" type="curve"/>
      <point x="370.07547169811323" y="30.07547169811321"/>
      <point x="367.8301886792453" y="65.90566037735849"/>
      <point x="367.8301886792453" y="104.15094339622641" type="curve"/>
      <point x="367.8301886792453" y="156.24528301886792"/>
      <point x="367.8301886792453" y="209.67924528301887"/>
      <point x="367.8301886792453" y="261.7735849056604" type="curve"/>
      <point x="272.16981132075466" y="261.7735849056604" type="line"/>
      <point x="272.16981132075466" y="197.24528301886792"/>
      <point x="272.16981132075466" y="131.13207547169813"/>
      <point x="272.16981132075466" y="66.60377358490567" type="curve" smooth="yes"/>
      <point x="272.16981132075466" y="23.150943396226417"/>
      <point x="284.47169811320754" y="-9.169811320754716"/>
      <point x="340.3962264150943" y="-9.169811320754716" type="curve" smooth="yes"/>
      <point x="354.2830188679245" y="-9.169811320754716"/>
      <point x="364.26415094339626" y="-7.339622641509434"/>
    </contour>
    <contour>
      <point x="44.735849056603776" y="703.5094339622641" type="curve"/>
      <point x="81.35849056603773" y="462.47169811320754"/>
      <point x="154.7169811320755" y="339.0377358490566"/>
      <point x="265.52830188679246" y="234.0754716981132" type="curve"/>
      <point x="285.13207547169816" y="214.47169811320757"/>
      <point x="303.92452830188677" y="212.22641509433964"/>
      <point x="353.62264150943395" y="212.22641509433964" type="curve"/>
      <point x="469.7547169811321" y="316.28301886792457"/>
      <point x="568.4150943396227" y="469.49056603773585"/>
      <point x="591.6792452830189" y="663.4905660377359" type="curve"/>
      <point x="594.5094339622641" y="691.2830188679245"/>
      <point x="577.0566037735848" y="709.1698113207547"/>
      <point x="542.1132075471698" y="709.1698113207547" type="curve"/>
      <point x="525.9622641509434" y="709.1698113207547"/>
      <point x="511.39622641509436" y="707.1698113207547"/>
      <point x="498.5849056603774" y="703.5094339622641" type="curve"/>
      <point x="474.5660377358491" y="520.3207547169811"/>
      <point x="425.1132075471698" y="409.54716981132077"/>
      <point x="307.1698113207547" y="278.8490566037736" type="curve"/>
      <point x="351.0754716981132" y="299.24528301886795" type="line"/>
      <point x="288.0943396226415" y="299.24528301886795" type="line"/>
      <point x="330.0" y="279.0188679245283" type="line"/>
      <point x="223.64150943396226" y="399.7169811320755"/>
      <point x="176.67924528301887" y="498.64150943396226"/>
      <point x="150.22641509433961" y="658.3584905660377" type="curve"/>
      <point x="145.15094339622644" y="697.3584905660377"/>
      <point x="122.86792452830188" y="709.1698113207547"/>
      <point x="87.09433962264151" y="709.1698113207547" type="curve" smooth="yes"/>
      <point x="72.11320754716982" y="709.1698113207547"/>
      <point x="56.9622641509434" y="707.1698113207547"/>
    </contour>
  </outline>
</glyph>
<glyph name="asciicircum" format="2">
  <advance width="600.0"/>
  <unicode hex="005E"/>
  <outline>
    <contour>
      <point x="269.09433962264154" y="760.0" type="curve"/>
      <point x="192.0" y="693.7169811320755"/>
      <point x="124.47169811320755" y="597.3584905660377"/>
      <point x="79.05660377358491" y="476.0754716981132" type="curve" smooth="yes"/>
      <point x="65.22641509433963" y="438.566037735849"/>
      <point x="58.64150943396226" y="412.22641509433964"/>
      <point x="58.64150943396226" y="401.22641509433964" type="curve" smooth="yes"/>
      <point x="58.64150943396226" y="381.6792452830189"/>
      <point x="82.75471698113208" y="367.2830188679245"/>
      <point x="128.50943396226415" y="367.2830188679245" type="curve" smooth="yes"/>
      <point x="142.0754716981132" y="367.2830188679245" type="line"/>
      <point x="173.9433962264151" y="503.71698113207543"/>
      <point x="215.52830188679246" y="575.566037735849"/>
      <point x="311.1698113207547" y="686.4339622641509" type="curve"/>
      <point x="262.0" y="669.0943396226415" type="line"/>
      <point x="327.66037735849056" y="669.0943396226415" type="line" smooth="yes"/>
      <point x="277.9056603773585" y="685.8490566037736" type="line"/>
      <point x="368.49056603773585" y="586.622641509434"/>
      <point x="398.66037735849056" y="526.9433962264151"/>
      <point x="437.60377358490564" y="395.3207547169811" type="curve" smooth="yes"/>
      <point x="443.92452830188677" y="375.188679245283"/>
      <point x="465.3207547169811" y="368.52830188679246"/>
      <point x="500.1698113207547" y="368.52830188679246" type="curve" smooth="yes"/>
      <point x="514.0566037735849" y="368.52830188679246"/>
      <point x="524.4528301886793" y="369.94339622641513"/>
      <point x="536.0943396226414" y="373.8490566037736" type="curve"/>
      <point x="492.26415094339626" y="548.3207547169811"/>
      <point x="435.52830188679246" y="640.5283018867924"/>
      <point x="355.2830188679245" y="728.1132075471698" type="curve" smooth="yes"/>
      <point x="331.3207547169811" y="754.0754716981132"/>
      <point x="319.49056603773585" y="760.0"/>
      <point x="300.75471698113205" y="760.0" type="curve" smooth="yes"/>
      <point x="290.33962264150944" y="760.0"/>
      <point x="279.50943396226415" y="760.0"/>
    </contour>
  </outline>
</glyph>
<glyph name="e" format="2">
  <advance width="600.0"/>
  <unicode hex="0065"/>
  <anchor x="322.33962264150944" y="542.811320754717" name="top"/>
  <anchor x="488.8679245283019" y="33.0377358490566" name="ogonek"/>
  <anchor x="300.0" y="-1.0" name="bottom"/>
  <anchor x="320.50943396226415" y="584.0" name="hook"/>
  <outline>
    <contour>
      <point x="328.6792452830188" y="544.3018867924528" type="curve" smooth="yes"/>
      <point x="185.22641509433961" y="544.3018867924528"/>
      <point x="70.47169811320754" y="438.188679245283"/>
      <point x="70.47169811320754" y="244.35849056603772" type="curve" smooth="yes"/>
      <point x="70.47169811320754" y="232.58490566037736" type="line" smooth="yes"/>
      <point x="70.47169811320754" y="75.11320754716982"/>
      <point x="182.2075471698113" y="-12.49056603773585"/>
      <point x="329.22641509433964" y="-12.49056603773585" type="curve" smooth="yes"/>
      <point x="401.5849056603774" y="-12.49056603773585"/>
      <point x="464.1698113207547" y="4.3584905660377355"/>
      <point x="496.1698113207547" y="36.35849056603773" type="curve" smooth="yes"/>
      <point x="512.1509433962265" y="52.339622641509436"/>
      <point x="520.6415094339623" y="71.73584905660377"/>
      <point x="520.6415094339623" y="103.11320754716981" type="curve" smooth="yes"/>
      <point x="520.6415094339623" y="114.52830188679245"/>
      <point x="519.6415094339623" y="123.43396226415094"/>
      <point x="517.8113207547169" y="131.16981132075472" type="curve"/>
      <point x="511.811320754717" y="131.16981132075472" type="line"/>
      <point x="459.15094339622647" y="89.71698113207547"/>
      <point x="404.3396226415094" y="73.62264150943396"/>
      <point x="331.98113207547175" y="73.62264150943396" type="curve" smooth="yes"/>
      <point x="267.37735849056605" y="73.62264150943396"/>
      <point x="227.45283018867926" y="83.30188679245283"/>
      <point x="190.60377358490567" y="108.41509433962264" type="curve" smooth="yes"/>
      <point x="171.0754716981132" y="136.50943396226415"/>
      <point x="161.98113207547172" y="171.94339622641508"/>
      <point x="161.98113207547172" y="215.7924528301887" type="curve" smooth="yes"/>
      <point x="161.98113207547172" y="226.9811320754717" type="line" smooth="yes"/>
      <point x="161.98113207547172" y="384.1320754716981"/>
      <point x="230.60377358490567" y="463.50943396226415"/>
      <point x="333.0754716981132" y="463.50943396226415" type="curve" smooth="yes"/>
      <point x="367.4339622641509" y="463.50943396226415"/>
      <point x="385.20754716981133" y="460.3396226415094"/>
      <point x="406.64150943396226" y="451.24528301886795" type="curve" smooth="yes"/>
      <point x="430.0" y="424.1509433962264"/>
      <point x="440.8490566037736" y="394.3962264150943"/>
      <point x="440.8490566037736" y="348.09433962264154" type="curve"/>
      <point x="440.8490566037736" y="331.73584905660374"/>
      <point x="438.6792452830189" y="315.47169811320754"/>
      <point x="435.50943396226415" y="300.45283018867923" type="curve"/>
      <point x="150.22641509433964" y="300.45283018867923" type="line"/>
      <point x="150.0754716981132" y="246.39622641509433" type="line"/>
      <point x="167.98113207547172" y="255.81132075471697" type="line"/>
      <point x="180.7924528301887" y="245.16981132075472"/>
      <point x="202.58490566037736" y="238.0188679245283"/>
      <point x="227.8679245283019" y="238.0188679245283" type="curve"/>
      <point x="494.9433962264151" y="238.0188679245283" type="line"/>
      <point x="519.377358490566" y="238.0188679245283"/>
      <point x="531.1132075471697" y="274.2641509433962"/>
      <point x="531.1132075471697" y="337.5471698113207" type="curve"/>
      <point x="531.1132075471697" y="341.9622641509434" type="line" smooth="yes"/>
      <point x="531.1132075471697" y="458.07547169811323"/>
      <point x="459.1509433962264" y="544.3018867924528"/>
    </contour>
  </outline>
</glyph>
<glyph name="k" format="2">
  <advance width="600.0"/>
  <unicode hex="006B"/>
  <anchor x="310.3018867924528" y="-1.0" name="bottom"/>
  <outline>
    <contour>
      <point x="176.9811320754717" y="-2.9245283018867925" type="curve"/>
      <point x="176.9811320754717" y="212.79245283018867"/>
      <point x="176.9811320754717" y="420.6981132075472"/>
      <point x="176.9811320754717" y="638.0754716981132" type="curve" smooth="yes"/>
      <point x="176.9811320754717" y="724.188679245283"/>
      <point x="138.62264150943395" y="754.2452830188679"/>
      <point x="98.77358490566037" y="754.2452830188679" type="curve"/>
      <point x="89.62264150943396" y="754.2452830188679"/>
      <point x="79.88679245283019" y="752.4150943396227"/>
      <point x="70.73584905660377" y="750.0" type="curve"/>
      <point x="81.81132075471697" y="724.2452830188679"/>
      <point x="85.47169811320754" y="699.2075471698113"/>
      <point x="85.47169811320754" y="658.0188679245283" type="curve" smooth="yes"/>
      <point x="85.47169811320754" y="455.64150943396226"/>
      <point x="85.47169811320754" y="281.811320754717"/>
      <point x="85.47169811320754" y="74.8679245283019" type="curve" smooth="yes"/>
      <point x="85.47169811320754" y="30.716981132075475"/>
      <point x="106.37735849056602" y="-4.169811320754717"/>
      <point x="153.69811320754715" y="-4.169811320754717" type="curve" smooth="yes"/>
      <point x="161.67924528301887" y="-4.169811320754717"/>
      <point x="167.75471698113205" y="-4.169811320754717"/>
    </contour>
    <contour>
      <point x="512.811320754717" y="-10.0" type="curve" smooth="yes"/>
      <point x="533.0943396226415" y="-10.0"/>
      <point x="550.8867924528302" y="-6.509433962264151"/>
      <point x="564.188679245283" y="0.8867924528301891" type="curve"/>
      <point x="473.188679245283" y="86.54716981132076"/>
      <point x="392.26415094339626" y="189.8679245283019"/>
      <point x="328.58490566037733" y="301.26415094339626" type="curve"/>
      <point x="254.7547169811321" y="230.54716981132077" type="line"/>
      <point x="284.0" y="227.62264150943398" type="line"/>
      <point x="298.6792452830189" y="194.13207547169813"/>
      <point x="315.60377358490564" y="161.1320754716981"/>
      <point x="341.9622641509434" y="122.28301886792454" type="curve" smooth="yes"/>
      <point x="366.9811320754717" y="85.35849056603773"/>
      <point x="397.1698113207547" y="48.339622641509436"/>
      <point x="423.6981132075471" y="21.81132075471698" type="curve" smooth="yes"/>
      <point x="447.4339622641509" y="-1.9245283018867925"/>
      <point x="472.1698113207547" y="-10.0"/>
    </contour>
    <contour>
      <point x="143.75471698113208" y="261.75471698113205" type="line"/>
      <point x="153.69811320754718" y="186.0" type="line"/>
      <point x="296.8867924528302" y="209.35849056603772"/>
      <point x="427.4150943396226" y="307.4339622641509"/>
      <point x="508.11320754716985" y="465.0943396226415" type="curve" smooth="yes"/>
      <point x="518.5094339622642" y="484.64150943396226"/>
      <point x="522.3396226415094" y="495.37735849056605"/>
      <point x="522.3396226415094" y="505.188679245283" type="curve" smooth="yes"/>
      <point x="522.3396226415094" y="524.566037735849"/>
      <point x="496.58490566037733" y="540.3018867924528"/>
      <point x="450.39622641509436" y="540.3018867924528" type="curve"/>
      <point x="434.5849056603774" y="540.3018867924529" type="line"/>
      <point x="402.8867924528302" y="464.188679245283"/>
      <point x="365.6981132075472" y="403.33962264150944"/>
      <point x="320.18867924528297" y="352.2641509433962" type="curve" smooth="yes"/>
      <point x="279.9811320754717" y="308.566037735849"/>
      <point x="234.35849056603774" y="276.64150943396226"/>
      <point x="181.39622641509433" y="252.9811320754717" type="curve"/>
    </contour>
  </outline>
</glyph>
<glyph name="r" format="2">
  <advance width="450.0"/>
  <unicode hex="0072"/>
  <anchor x="248.77358490566036" y="542.811320754717" name="top"/>
  <anchor x="135.96226415094338" y="-1.0" name="bottom"/>
  <outline>
    <contour>
      <point x="171.47169811320754" y="357.1132075471698" type="line"/>
      <point x="171.47169811320754" y="189.24528301886792" type="line"/>
      <point x="215.62822261530943" y="363.9727143189925"/>
      <point x="274.7924528301924" y="441.92452830188677"/>
      <point x="353.9245283018868" y="441.92452830188677" type="curve" smooth="yes"/>
      <point x="379.82432679977734" y="441.92452830188677"/>
      <point x="395.95724399072833" y="436.1098668777019"/>
      <point x="409.1698113207547" y="427.433962264151" type="curve"/>
      <point x="415.1698113207547" y="427.433962264151" type="line"/>
      <point x="421.1560743448868" y="442.54404224064905"/>
      <point x="423.24528301886795" y="459.976985278883"/>
      <point x="423.24528301886795" y="478.6037735849057" type="curve" smooth="yes"/>
      <point x="423.24528301886795" y="507.74909674828683"/>
      <point x="418.33962264150944" y="523.6603773584906"/>
      <point x="407.9433962264151" y="534.0566037735849" type="curve" smooth="yes"/>
      <point x="398.86792452830184" y="543.7169811320755"/>
      <point x="381.57412398923395" y="548.3018867924529"/>
      <point x="356.0754716981132" y="548.3018867924529" type="curve" smooth="yes"/>
      <point x="280.9209152950755" y="548.3018867924529"/>
      <point x="220.3987454708302" y="476.1610196192113"/>
      <point x="185.22641509433961" y="357.1132075471698" type="curve"/>
    </contour>
    <contour>
      <point x="178.64150943396226" y="-2.9245283018867925" type="curve"/>
      <point x="178.64150943396226" y="130.9056603773585"/>
      <point x="178.64150943396226" y="277.8490566037736"/>
      <point x="178.64150943396226" y="421.64150943396226" type="curve" smooth="yes"/>
      <point x="178.64150943396226" y="507.7547169811321"/>
      <point x="143.188679245283" y="537.811320754717"/>
      <point x="100.43396226415094" y="537.811320754717" type="curve"/>
      <point x="91.28301886792454" y="537.811320754717"/>
      <point x="81.54716981132076" y="535.9811320754717"/>
      <point x="72.39622641509433" y="533.5660377358491" type="curve"/>
      <point x="83.47169811320754" y="507.811320754717"/>
      <point x="87.1320754716981" y="482.77358490566036"/>
      <point x="87.1320754716981" y="441.58490566037733" type="curve" smooth="yes"/>
      <point x="87.1320754716981" y="313.0377358490566"/>
      <point x="87.1320754716981" y="185.1509433962264"/>
      <point x="87.1320754716981" y="47.47169811320755" type="curve" smooth="yes"/>
      <point x="87.1320754716981" y="14.113207547169813"/>
      <point x="107.62264150943396" y="-4.584905660377358"/>
      <point x="154.52830188679246" y="-4.584905660377358" type="curve" smooth="yes"/>
      <point x="162.50943396226415" y="-4.584905660377358"/>
      <point x="169.41509433962264" y="-4.169811320754717"/>
    </contour>
  </outline>
</glyph>
<glyph name="v" format="2">
  <advance width="600.0"/>
  <unicode hex="0076"/>
  <outline>
    <contour>
      <point x="93.73584905660377" y="537.8867924528303" type="curve" smooth="yes"/>
      <point x="83.16981132075472" y="537.8867924528303"/>
      <point x="69.03773584905662" y="536.0566037735849"/>
      <point x="60.226415094339615" y="532.9811320754717" type="curve"/>
      <point x="83.06264909509811" y="271.78784772346796"/>
      <point x="132.8562274049132" y="122.57773485923774"/>
      <point x="231.8867924528302" y="23.547169811320757" type="curve"/>
      <point x="258.6792452830189" y="-3.2452830188679247"/>
      <point x="280.3207547169811" y="-10.0"/>
      <point x="302.88679245283015" y="-10.0" type="curve" smooth="yes"/>
      <point x="314.5471698113207" y="-10.0"/>
      <point x="327.20754716981133" y="-8.584905660377359"/>
      <point x="338.8679245283019" y="-6.169811320754717" type="curve"/>
      <point x="454.68592350670565" y="84.54231712312452"/>
      <point x="514.5246500465622" y="238.8660667412113"/>
      <point x="534.6981132075472" y="478.2452830188679" type="curve"/>
      <point x="538.3584905660377" y="517.5094339622642"/>
      <point x="520.7169811320755" y="537.8867924528303"/>
      <point x="480.28301886792457" y="537.8867924528303" type="curve" smooth="yes"/>
      <point x="467.64150943396226" y="537.8867924528303"/>
      <point x="455.1698113207547" y="536.4716981132076"/>
      <point x="444.2830188679245" y="532.9811320754717" type="curve"/>
      <point x="434.08164924515467" y="294.55294085190565"/>
      <point x="393.15604280353205" y="169.5334012773472"/>
      <point x="299.92452830188677" y="66.01886792452831" type="curve"/>
      <point x="292.5094339622641" y="66.01886792452831" type="line"/>
      <point x="211.96703623281888" y="157.49988979855473"/>
      <point x="178.37735849056602" y="278.0188679245283"/>
      <point x="160.7924528301887" y="496.28301886792457" type="curve"/>
      <point x="158.13207547169813" y="528.5660377358491"/>
      <point x="133.33962264150944" y="537.8867924528303"/>
    </contour>
  </outline>
</glyph>
<glyph name="y" format="2">
  <advance width="600.0"/>
  <unicode hex="0079"/>
  <anchor x="300.0" y="542.811320754717" name="top"/>
  <anchor x="509.9056603773585" y="-161.0" name="dot"/>
  <anchor x="301.0" y="584.0" name="hook"/>
  <outline>
    <contour>
      <point x="476.49056603773585" y="536.8867924528303" type="curve" smooth="yes"/>
      <point x="465.92452830188677" y="536.8867924528303"/>
      <point x="455.5283018867924" y="535.4716981132076"/>
      <point x="442.3962264150943" y="531.811320754717" type="curve"/>
      <point x="423.2452830188679" y="188.16981132075472"/>
      <point x="358.1320754716981" y="9.9433962264151"/>
      <point x="275.811320754717" y="-72.37735849056602" type="curve" smooth="yes"/>
      <point x="226.39622641509433" y="-121.79245283018867"/>
      <point x="168.9056603773585" y="-145.22641509433961"/>
      <point x="110.73584905660378" y="-145.22641509433961" type="curve"/>
      <point x="106.07547169811322" y="-145.22641509433961"/>
      <point x="102.24528301886792" y="-145.22641509433961"/>
      <point x="97.58490566037736" y="-145.22641509433961" type="curve"/>
      <point x="91.58490566037736" y="-145.22641509433961" type="line"/>
      <point x="91.58490566037736" y="-148.64150943396226" type="line" smooth="yes"/>
      <point x="91.58490566037736" y="-180.41509433962264"/>
      <point x="98.73584905660377" y="-206.11320754716982"/>
      <point x="111.13207547169812" y="-218.50943396226415" type="curve" smooth="yes"/>
      <point x="121.94339622641509" y="-229.32075471698113"/>
      <point x="133.9245283018868" y="-233.39622641509433"/>
      <point x="150.39622641509436" y="-233.39622641509433" type="curve" smooth="yes"/>
      <point x="212.0754716981132" y="-233.39622641509433"/>
      <point x="271.58490566037733" y="-201.56603773584908"/>
      <point x="327.0" y="-146.1509433962264" type="curve" smooth="yes"/>
      <point x="429.6792452830189" y="-43.471698113207545"/>
      <point x="508.8490566037736" y="151.8490566037736"/>
      <point x="539.2075471698113" y="481.64150943396226" type="curve" smooth="yes"/>
      <point x="542.867924528302" y="522.9056603773586"/>
      <point x="518.9245283018868" y="536.8867924528303"/>
    </contour>
    <contour>
      <point x="91.22641509433963" y="536.4716981132076" type="curve" smooth="yes"/>
      <point x="78.58490566037736" y="536.4716981132076"/>
      <point x="68.60377358490567" y="535.0566037735849"/>
      <point x="56.132075471698116" y="531.811320754717" type="curve"/>
      <point x="85.32075471698113" y="242.32075471698113"/>
      <point x="134.9056603773585" y="147.9622641509434"/>
      <point x="203.2830188679245" y="71.58490566037736" type="curve" smooth="yes"/>
      <point x="236.37735849056602" y="34.320754716981135"/>
      <point x="286.50943396226415" y="12.452830188679245"/>
      <point x="343.28301886792457" y="12.452830188679245" type="curve" smooth="yes"/>
      <point x="362.3207547169811" y="12.452830188679245" type="line"/>
      <point x="384.54716981132077" y="67.28301886792454" type="line"/>
      <point x="350.3018867924528" y="67.28301886792454" type="line"/>
      <point x="237.07547169811323" y="116.56603773584905"/>
      <point x="183.13207547169813" y="264.3207547169811"/>
      <point x="162.69811320754718" y="481.9245283018868" type="curve" smooth="yes"/>
      <point x="158.69811320754718" y="526.2452830188679"/>
      <point x="134.73584905660377" y="536.4716981132076"/>
    </contour>
  </outline>
</glyph>
<glyph name="yen" format="2">
  <advance width="600.0"/>
  <unicode hex="00A5"/>
  <outline>
    <contour>
      <point x="29.20754716981132" y="400.75471698113205" type="line"/>
      <point x="27.132075471698112" y="394.0188679245283"/>
      <point x="25.471698113207548" y="385.0377358490566"/>
      <point x="25.471698113207548" y="374.1509433962264" type="curve" smooth="yes"/>
      <point x="25.471698113207548" y="341.35849056603774"/>
      <point x="36.698113207547166" y="317.54716981132077"/>
      <point x="86.84905660377359" y="317.54716981132077" type="curve" smooth="yes"/>
      <point x="197.33962264150944" y="317.54716981132077" type="line"/>
      <point x="186.22641509433964" y="400.75471698113205" type="line"/>
    </contour>
    <contour>
      <point x="394.58490566037733" y="400.75471698113205" type="line"/>
      <point x="378.79245283018867" y="317.54716981132077" type="line"/>
      <point x="571.622641509434" y="317.54716981132077" type="line"/>
      <point x="573.2830188679245" y="328.0188679245283"/>
      <point x="574.5283018867925" y="339.90566037735846"/>
      <point x="574.5283018867925" y="349.54716981132077" type="curve" smooth="yes"/>
      <point x="574.5283018867925" y="383.1698113207547"/>
      <point x="563.377358490566" y="400.75471698113205"/>
      <point x="526.6792452830189" y="400.75471698113205" type="curve"/>
    </contour>
    <contour>
      <point x="569.1320754716982" y="115.47169811320754" type="line"/>
      <point x="569.9622641509434" y="120.9622641509434"/>
      <point x="570.377358490566" y="128.28301886792454"/>
      <point x="570.377358490566" y="134.60377358490567" type="curve" smooth="yes"/>
      <point x="570.377358490566" y="179.0188679245283"/>
      <point x="556.6603773584906" y="198.67924528301887"/>
      <point x="506.6603773584906" y="198.67924528301887" type="curve"/>
      <point x="31.28301886792453" y="198.67924528301887" type="line"/>
      <point x="30.452830188679243" y="189.03773584905662"/>
      <point x="29.62264150943396" y="181.30188679245285"/>
      <point x="29.62264150943396" y="172.90566037735852" type="curve" smooth="yes"/>
      <point x="29.62264150943396" y="137.20754716981133"/>
      <point x="43.339622641509436" y="115.47169811320754"/>
      <point x="81.67924528301887" y="115.47169811320754" type="curve" smooth="yes"/>
    </contour>
    <contour>
      <point x="347.8301886792453" y="230.41509433962267" type="curve"/>
      <point x="451.73584905660374" y="332.1698113207547"/>
      <point x="527.8301886792453" y="460.03773584905656"/>
      <point x="551.6792452830189" y="663.4905660377359" type="curve" smooth="yes"/>
      <point x="554.5094339622641" y="690.6981132075472"/>
      <point x="534.7169811320755" y="709.1698113207547"/>
      <point x="499.77358490566036" y="709.1698113207547" type="curve" smooth="yes"/>
      <point x="485.377358490566" y="709.1698113207547"/>
      <point x="474.3207547169811" y="707.7547169811321"/>
      <point x="460.92452830188677" y="704.0943396226415" type="curve"/>
      <point x="436.66037735849056" y="503.5849056603774"/>
      <point x="397.64150943396226" y="405.7547169811321"/>
      <point x="285.9245283018868" y="276.26415094339626" type="curve"/>
      <point x="329.4150943396226" y="296.66037735849056" type="line"/>
      <point x="266.4339622641509" y="296.66037735849056" type="line"/>
      <point x="307.9245283018868" y="276.433962264151" type="line"/>
      <point x="208.13207547169813" y="407.7169811320755"/>
      <point x="174.67924528301887" y="491.0377358490566"/>
      <point x="145.88679245283018" y="658.3584905660377" type="curve" smooth="yes"/>
      <point x="140.81132075471697" y="697.3584905660377"/>
      <point x="118.52830188679245" y="709.1698113207547"/>
      <point x="82.75471698113209" y="709.1698113207547" type="curve" smooth="yes"/>
      <point x="68.35849056603774" y="709.1698113207547"/>
      <point x="57.301886792452834" y="707.7547169811321"/>
      <point x="43.90566037735849" y="704.0943396226415" type="curve"/>
      <point x="82.0188679245283" y="439.20754716981133"/>
      <point x="145.8679245283019" y="328.33962264150944"/>
      <point x="252.16981132075472" y="231.0" type="curve"/>
      <point x="252.16981132075472" y="168.9056603773585"/>
      <point x="252.16981132075472" y="115.33962264150944"/>
      <point x="252.16981132075472" y="66.60377358490567" type="curve" smooth="yes"/>
      <point x="252.16981132075472" y="23.566037735849058"/>
      <point x="264.47169811320754" y="-9.169811320754716"/>
      <point x="320.39622641509436" y="-9.169811320754716" type="curve" smooth="yes"/>
      <point x="334.28301886792457" y="-9.169811320754716"/>
      <point x="344.2641509433962" y="-7.339622641509434"/>
      <point x="358.5660377358491" y="-4.09433962264151" type="curve"/>
      <point x="350.07547169811323" y="30.07547169811321"/>
      <point x="347.8301886792453" y="65.90566037735849"/>
      <point x="347.8301886792453" y="104.15094339622641" type="curve" smooth="yes"/>
      <point x="347.8301886792453" y="146.26415094339623"/>
      <point x="347.8301886792453" y="184.24528301886792"/>
    </contour>
  </outline>
</glyph>
<glyph name="ordfeminine" format="2">
  <advance width="600.0"/>
  <unicode hex="00AA"/>
  <outline>
    <contour>
      <point x="230.66037735849056" y="290.58490566037733" type="curve" smooth="yes"/>
      <point x="289.0" y="290.58490566037733"/>
      <point x="349.75471698113205" y="344.8301886792453"/>
      <point x="385.35849056603774" y="429.50943396226415" type="curve"/>
      <point x="396.3584905660377" y="429.50943396226415" type="line"/>
      <point x="398.6037735849057" y="555.188679245283" type="line"/>
      <point x="350.4716981132076" y="424.47169811320754"/>
      <point x="297.79245283018867" y="375.622641509434"/>
      <point x="234.79245283018867" y="375.622641509434" type="curve" smooth="yes"/>
      <point x="215.41509433962264" y="375.622641509434"/>
      <point x="199.13207547169813" y="383.22641509433964"/>
      <point x="187.52830188679246" y="400.0188679245283" type="curve" smooth="yes"/>
      <point x="182.18867924528303" y="425.2075471698113"/>
      <point x="180.18867924528303" y="449.64150943396226"/>
      <point x="180.18867924528303" y="480.4716981132076" type="curve" smooth="yes"/>
      <point x="180.18867924528303" y="488.3018867924528" type="line" smooth="yes"/>
      <point x="180.18867924528303" y="613.811320754717"/>
      <point x="218.9622641509434" y="679.7735849056604"/>
      <point x="296.0" y="679.7735849056604" type="curve" smooth="yes"/>
      <point x="340.45283018867923" y="679.7735849056604"/>
      <point x="366.4716981132076" y="664.433962264151"/>
      <point x="400.6792452830189" y="625.132075471698" type="curve"/>
      <point x="397.188679245283" y="697.6792452830189" type="line"/>
      <point x="385.7735849056604" y="697.6792452830189" type="line"/>
      <point x="366.0188679245283" y="734.5849056603773"/>
      <point x="323.1698113207547" y="759.4150943396227"/>
      <point x="279.4150943396226" y="759.4150943396227" type="curve" smooth="yes"/>
      <point x="172.43396226415092" y="759.4150943396227"/>
      <point x="97.39622641509433" y="670.811320754717"/>
      <point x="97.39622641509433" y="481.0" type="curve" smooth="yes"/>
      <point x="97.39622641509433" y="464.9245283018868" type="line" smooth="yes"/>
      <point x="97.39622641509433" y="362.566037735849"/>
      <point x="153.96226415094338" y="290.58490566037733"/>
    </contour>
    <contour>
      <point x="528.5849056603773" y="383.6981132075472" type="curve"/>
      <point x="522.5849056603774" y="383.6981132075472" type="line"/>
      <point x="514.9245283018868" y="375.20754716981133"/>
      <point x="505.33647798740753" y="371.37735849056605"/>
      <point x="492.8490566037736" y="371.37735849056605" type="curve" smooth="yes"/>
      <point x="485.1698113207547" y="371.37735849056605"/>
      <point x="478.4150943396226" y="373.71698113207543"/>
      <point x="472.90566037735846" y="378.811320754717" type="curve"/>
      <point x="472.90566037735846" y="477.0566037735849"/>
      <point x="472.90566037735846" y="575.9082002902624"/>
      <point x="472.90566037735846" y="673.9622641509434" type="curve"/>
      <point x="472.90566037735846" y="732.6037735849056"/>
      <point x="453.35849056603774" y="753.8301886792453"/>
      <point x="426.9811320754717" y="753.8301886792453" type="curve"/>
      <point x="416.66037735849056" y="753.8301886792453"/>
      <point x="407.5849056603774" y="752.8301886792453"/>
      <point x="398.8490566037736" y="751.2452830188679" type="curve"/>
      <point x="393.77358490566036" y="728.433962264151"/>
      <point x="391.35849056603774" y="707.6981132075472"/>
      <point x="391.35849056603774" y="669.7735849056604" type="curve"/>
      <point x="391.35849056603774" y="577.566037735849"/>
      <point x="391.35849056603774" y="484.77358490566036"/>
      <point x="391.35849056603774" y="392.9811320754717" type="curve"/>
      <point x="391.35849056603774" y="331.0377358490566"/>
      <point x="424.1698113207547" y="291.41509433962267"/>
      <point x="475.811320754717" y="291.41509433962267" type="curve" smooth="yes"/>
      <point x="491.71698113207543" y="291.41509433962267"/>
      <point x="503.62264150943395" y="296.07547169811323"/>
      <point x="513.1132075471698" y="305.5660377358491" type="curve" smooth="yes"/>
      <point x="525.6792452830189" y="318.1320754716981"/>
      <point x="531.0" y="338.60377358490564"/>
      <point x="531.0" y="357.811320754717" type="curve"/>
      <point x="531.0" y="366.8867924528302"/>
      <point x="530.4150943396226" y="376.9622641509434"/>
    </contour>
  </outline>
</glyph>
<glyph name="guillemotleft" format="2">
  <advance width="600.0"/>
  <unicode hex="00AB"/>
  <outline>
    <contour>
      <point x="323.9433962264151" y="105.18867924528301" type="line"/>
      <point x="230.35849056603774" y="174.9245283018868"/>
      <point x="182.28301886792454" y="223.73584905660377"/>
      <point x="132.62264150943398" y="300.58490566037733" type="curve"/>
      <point x="182.8867924528302" y="377.28301886792457"/>
      <point x="227.69811320754718" y="422.1698113207547"/>
      <point x="323.9433962264151" y="494.811320754717" type="curve"/>
      <point x="323.9433962264151" y="500.811320754717" type="line"/>
      <point x="303.8867924528302" y="507.47169811320754"/>
      <point x="280.33962264150944" y="510.3018867924528"/>
      <point x="256.2830188679245" y="510.3018867924528" type="curve" smooth="yes"/>
      <point x="232.49056603773585" y="510.3018867924528"/>
      <point x="217.75471698113208" y="506.8867924528302"/>
      <point x="199.33962264150944" y="493.0566037735849" type="curve" smooth="yes"/>
      <point x="141.9245283018868" y="447.39622641509436"/>
      <point x="98.60377358490565" y="396.2641509433962"/>
      <point x="53.83018867924528" y="325.0" type="curve"/>
      <point x="53.83018867924528" y="317.0"/>
      <point x="53.83018867924528" y="309.0"/>
      <point x="53.83018867924528" y="301.0" type="curve" smooth="yes"/>
      <point x="53.83018867924528" y="276.0"/>
      <point x="60.245283018867916" y="259.77358490566036"/>
      <point x="83.24528301886792" y="225.9433962264151" type="curve" smooth="yes"/>
      <point x="131.83018867924528" y="158.28301886792454"/>
      <point x="158.66037735849056" y="135.03773584905662"/>
      <point x="189.66037735849056" y="114.11320754716981" type="curve" smooth="yes"/>
      <point x="214.24528301886792" y="96.77358490566037"/>
      <point x="232.9811320754717" y="89.69811320754717"/>
      <point x="258.2830188679245" y="89.69811320754717" type="curve" smooth="yes"/>
      <point x="284.75471698113205" y="89.69811320754717"/>
      <point x="306.3018867924529" y="92.52830188679245"/>
      <point x="323.9433962264151" y="99.18867924528301" type="curve"/>
    </contour>
    <contour>
      <point x="559.7924528301887" y="105.18867924528301" type="line"/>
      <point x="466.2075471698113" y="174.9245283018868"/>
      <point x="418.1320754716981" y="223.73584905660377"/>
      <point x="368.47169811320754" y="300.58490566037733" type="curve"/>
      <point x="418.73584905660374" y="377.28301886792457"/>
      <point x="463.54716981132077" y="422.1698113207547"/>
      <point x="559.7924528301887" y="494.811320754717" type="curve"/>
      <point x="559.7924528301887" y="500.811320754717" type="line"/>
      <point x="539.7358490566038" y="507.47169811320754"/>
      <point x="516.1886792452831" y="510.3018867924528"/>
      <point x="492.13207547169816" y="510.3018867924528" type="curve" smooth="yes"/>
      <point x="468.33962264150944" y="510.3018867924528"/>
      <point x="453.6037735849057" y="506.8867924528302"/>
      <point x="435.188679245283" y="493.0566037735849" type="curve" smooth="yes"/>
      <point x="377.7735849056604" y="447.39622641509436"/>
      <point x="334.4528301886793" y="396.2641509433962"/>
      <point x="289.6792452830189" y="325.0" type="curve"/>
      <point x="289.6792452830189" y="317.0"/>
      <point x="289.6792452830189" y="309.0"/>
      <point x="289.6792452830189" y="301.0" type="curve" smooth="yes"/>
      <point x="289.6792452830189" y="276.0"/>
      <point x="296.09433962264154" y="259.77358490566036"/>
      <point x="319.09433962264154" y="225.9433962264151" type="curve" smooth="yes"/>
      <point x="367.6792452830189" y="158.28301886792454"/>
      <point x="394.50943396226415" y="135.03773584905662"/>
      <point x="425.50943396226415" y="114.11320754716981" type="curve" smooth="yes"/>
      <point x="450.09433962264154" y="96.77358490566037"/>
      <point x="468.8301886792453" y="89.69811320754717"/>
      <point x="494.13207547169816" y="89.69811320754717" type="curve" smooth="yes"/>
      <point x="520.6037735849056" y="89.69811320754717"/>
      <point x="542.1509433962264" y="92.52830188679245"/>
      <point x="559.7924528301887" y="99.18867924528301" type="curve"/>
    </contour>
  </outline>
</glyph>
<glyph name="twosuperior" format="2">
  <advance width="600.0"/>
  <unicode hex="00B2"/>
  <outline>
    <contour>
      <point x="429.8301886792453" y="375.9433962264151" type="curve"/>
      <point x="432.24528301886795" y="385.50943396226415"/>
      <point x="434.24528301886795" y="396.8301886792453"/>
      <point x="434.24528301886795" y="407.7358490566038" type="curve" smooth="yes"/>
      <point x="434.24528301886795" y="435.6981132075472"/>
      <point x="420.8301886792453" y="444.6981132075472"/>
      <point x="381.60377358490564" y="444.6981132075472" type="curve"/>
      <point x="320.9622641509434" y="444.6981132075472" type="line" smooth="yes"/>
      <point x="269.35849056603774" y="444.6981132075472"/>
      <point x="242.1132075471698" y="441.2830188679245"/>
      <point x="205.7924528301887" y="428.37735849056605" type="curve"/>
      <point x="236.69811320754718" y="428.377358490566" type="line"/>
      <point x="214.77358490566039" y="446.2830188679245" type="line"/>
      <point x="218.9622641509434" y="415.7169811320755" type="line"/>
      <point x="225.01886792452828" y="470.2264150943396"/>
      <point x="243.18867924528303" y="486.39622641509436"/>
      <point x="328.0377358490566" y="522.245283018868" type="curve" smooth="yes"/>
      <point x="403.66037735849056" y="554.6037735849056"/>
      <point x="429.41509433962267" y="579.0"/>
      <point x="429.41509433962267" y="635.6603773584906" type="curve" smooth="yes"/>
      <point x="429.41509433962267" y="639.3207547169812" type="line" smooth="yes"/>
      <point x="429.41509433962267" y="681.7169811320755"/>
      <point x="396.4339622641509" y="729.132075471698"/>
      <point x="298.52830188679246" y="729.132075471698" type="curve" smooth="yes"/>
      <point x="242.35849056603774" y="729.132075471698"/>
      <point x="203.60377358490567" y="715.622641509434"/>
      <point x="185.60377358490567" y="697.622641509434" type="curve" smooth="yes"/>
      <point x="174.69811320754718" y="686.7169811320755"/>
      <point x="171.69811320754718" y="670.9056603773585"/>
      <point x="171.69811320754718" y="652.4150943396226" type="curve" smooth="yes"/>
      <point x="171.69811320754718" y="642.0943396226414"/>
      <point x="173.11320754716982" y="632.188679245283"/>
      <point x="176.35849056603774" y="623.5283018867924" type="curve"/>
      <point x="182.35849056603774" y="623.5283018867924" type="line"/>
      <point x="214.9622641509434" y="649.2075471698113"/>
      <point x="250.20754716981133" y="660.377358490566"/>
      <point x="292.54716981132077" y="660.377358490566" type="curve" smooth="yes"/>
      <point x="322.24528301886795" y="660.377358490566"/>
      <point x="342.8301886792453" y="654.6981132075472"/>
      <point x="354.0" y="645.8490566037735" type="curve" smooth="yes"/>
      <point x="355.4150943396226" y="642.0188679245283"/>
      <point x="356.4150943396226" y="637.433962264151"/>
      <point x="356.4150943396226" y="630.433962264151" type="curve" smooth="yes"/>
      <point x="356.4150943396226" y="605.245283018868"/>
      <point x="345.9245283018868" y="594.0754716981131"/>
      <point x="277.66037735849056" y="564.4905660377359" type="curve" smooth="yes"/>
      <point x="181.43396226415095" y="523.4716981132076"/>
      <point x="161.35849056603774" y="482.7358490566038"/>
      <point x="161.35849056603774" y="433.1698113207547" type="curve" smooth="yes"/>
      <point x="161.35849056603774" y="430.1698113207547" type="line" smooth="yes"/>
      <point x="161.35849056603774" y="395.52830188679246"/>
      <point x="176.43396226415095" y="375.9433962264151"/>
      <point x="200.33962264150944" y="375.9433962264151" type="curve" smooth="yes"/>
      <point x="228.49056603773585" y="375.9433962264151"/>
      <point x="416.50943396226415" y="375.9433962264151"/>
    </contour>
  </outline>
</glyph>
<glyph name="onesuperior" format="2">
  <advance width="600.0"/>
  <unicode hex="00B9"/>
  <outline>
    <contour>
      <point x="183.35849056603774" y="445.8679245283019" type="line"/>
      <point x="180.52830188679246" y="438.13207547169816"/>
      <point x="178.52830188679246" y="429.3018867924528"/>
      <point x="178.52830188679246" y="416.811320754717" type="curve" smooth="yes"/>
      <point x="178.52830188679246" y="390.09433962264154"/>
      <point x="191.8490566037736" y="375.9433962264151"/>
      <point x="229.20754716981133" y="375.9433962264151" type="curve" smooth="yes"/>
      <point x="439.92452830188677" y="375.9433962264151" type="line"/>
      <point x="441.75471698113205" y="382.09433962264154"/>
      <point x="443.1698113207547" y="389.41509433962267"/>
      <point x="443.1698113207547" y="398.39622641509436" type="curve" smooth="yes"/>
      <point x="443.1698113207547" y="426.8679245283019"/>
      <point x="406.0754716981132" y="445.8679245283019"/>
      <point x="344.1509433962264" y="445.8679245283019" type="curve"/>
    </contour>
    <contour>
      <point x="355.39622641509436" y="422.94339622641513" type="line"/>
      <point x="355.39622641509436" y="460.75471698113205"/>
      <point x="355.39622641509436" y="671.2641509433962"/>
      <point x="355.39622641509436" y="706.5471698113207" type="curve" smooth="yes"/>
      <point x="355.39622641509436" y="725.7924528301886"/>
      <point x="336.1509433962264" y="731.2075471698113"/>
      <point x="309.1698113207547" y="731.2075471698113" type="curve"/>
      <point x="294.6037735849057" y="731.2075471698113"/>
      <point x="281.62264150943395" y="728.9622641509434"/>
      <point x="271.3018867924528" y="724.7169811320755" type="curve"/>
      <point x="259.377358490566" y="701.9433962264151"/>
      <point x="243.37735849056605" y="680.188679245283"/>
      <point x="226.7924528301887" y="662.2641509433963" type="curve" smooth="yes"/>
      <point x="212.03773584905662" y="645.7547169811321"/>
      <point x="194.8679245283019" y="632.4150943396227"/>
      <point x="176.11320754716982" y="620.0754716981132" type="curve"/>
      <point x="176.11320754716982" y="608.9245283018868" type="line" smooth="yes"/>
      <point x="176.11320754716982" y="563.3962264150944"/>
      <point x="186.8490566037736" y="555.3207547169811"/>
      <point x="201.0" y="555.3207547169811" type="curve" smooth="yes"/>
      <point x="212.16981132075472" y="555.3207547169811"/>
      <point x="227.77358490566039" y="566.3396226415094"/>
      <point x="240.2830188679245" y="581.188679245283" type="curve" smooth="yes"/>
      <point x="261.54716981132077" y="606.5471698113208"/>
      <point x="278.47169811320754" y="634.8867924528303"/>
      <point x="291.1509433962264" y="666.3207547169811" type="curve"/>
      <point x="269.22641509433964" y="645.5471698113208" type="line"/>
      <point x="298.54716981132077" y="645.5471698113208" type="line"/>
      <point x="285.88679245283015" y="671.3962264150944" type="line"/>
      <point x="285.88679245283015" y="616.6603773584906"/>
      <point x="285.88679245283015" y="523.622641509434"/>
      <point x="285.88679245283015" y="493.7735849056604" type="curve" smooth="yes"/>
      <point x="285.88679245283015" y="467.1132075471698"/>
      <point x="290.1320754716981" y="457.28301886792457"/>
      <point x="302.2830188679245" y="449.8679245283019" type="curve"/>
      <point x="297.8679245283019" y="422.94339622641513" type="line"/>
    </contour>
  </outline>
</glyph>
<glyph name="AE" format="2">
  <advance width="800.0"/>
  <unicode hex="00C6"/>
  <anchor x="396.26415094339626" y="711.0" name="top"/>
  <outline>
    <contour>
      <point x="128.22641509433961" y="-4.9245283018867925" type="curve"/>
      <point x="132.79245283018867" y="246.05660377358492"/>
      <point x="218.0943396226415" y="489.26415094339626"/>
      <point x="344.20754716981133" y="632.3207547169811" type="curve"/>
      <point x="295.622641509434" y="608.0754716981132" type="line"/>
      <point x="771.9811320754717" y="608.0754716981132" type="line"/>
      <point x="775.2264150943396" y="616.811320754717"/>
      <point x="777.0566037735849" y="628.4612159329095"/>
      <point x="777.0566037735849" y="640.8490566037735" type="curve" smooth="yes"/>
      <point x="777.0566037735849" y="678.622641509434"/>
      <point x="760.5849056603773" y="700.0"/>
      <point x="731.377358490566" y="700.0" type="curve"/>
      <point x="386.77358490566036" y="700.0" type="line"/>
      <point x="335.77358490566036" y="700.0"/>
      <point x="310.2075471698113" y="698.0"/>
      <point x="284.49056603773585" y="692.5849056603773" type="curve"/>
      <point x="162.77358490566036" y="552.132075471698"/>
      <point x="42.94339622641509" y="280.0188679245283"/>
      <point x="42.943396226415096" y="31.264150943396228" type="curve" smooth="yes"/>
      <point x="42.943396226415096" y="0.39622641509433976"/>
      <point x="63.0188679245283" y="-10.0"/>
      <point x="94.9433962264151" y="-10.0" type="curve" smooth="yes"/>
      <point x="107.9245283018868" y="-10.0"/>
      <point x="118.0754716981132" y="-8.169811320754716"/>
    </contour>
    <contour>
      <point x="345.377358490566" y="629.7169811320755" type="line"/>
      <point x="380.1320754716981" y="439.9245283018868"/>
      <point x="397.2452830188679" y="259.90401396160377"/>
      <point x="397.2452830188679" y="38.301886792452834" type="curve" smooth="yes"/>
      <point x="397.2452830188679" y="11.415094339622641"/>
      <point x="424.77358490566036" y="0.0"/>
      <point x="455.3207547169811" y="0.0" type="curve" smooth="yes"/>
      <point x="774.566037735849" y="0.0" type="line"/>
      <point x="776.2264150943396" y="7.981132075471699"/>
      <point x="777.0566037735849" y="18.622641509433965"/>
      <point x="777.0566037735849" y="29.92452830188679" type="curve" smooth="yes"/>
      <point x="777.0566037735849" y="73.11320754716982"/>
      <point x="764.9056603773586" y="91.50943396226415"/>
      <point x="737.8679245283018" y="91.50943396226415" type="curve" smooth="yes"/>
      <point x="488.75471698113205" y="91.50943396226415" type="line"/>
      <point x="489.33962264150944" y="255.0754716981132"/>
      <point x="478.0" y="384.1509433962264"/>
      <point x="451.9622641509434" y="540.3018867924529" type="curve" smooth="yes"/>
      <point x="446.7169811320755" y="575.6603773584906"/>
      <point x="440.1320754716981" y="590.8301886792453"/>
      <point x="425.07547169811323" y="602.4905660377358" type="curve"/>
      <point x="432.3207547169811" y="626.811320754717" type="line"/>
    </contour>
    <contour>
      <point x="23.77358490566038" y="286.60377358490564" type="line"/>
      <point x="23.77358490566038" y="270.37735849056605" type="line"/>
      <point x="23.77358490566038" y="225.54716981132074"/>
      <point x="32.924528301886795" y="199.24528301886792"/>
      <point x="56.320754716981135" y="199.24528301886792" type="curve"/>
      <point x="413.8867924528302" y="199.24528301886792" type="line"/>
      <point x="413.3018867924529" y="277.52830188679246" type="line"/>
      <point x="384.66037735849056" y="268.377358490566" type="line"/>
      <point x="370.33962264150944" y="280.5283018867924"/>
      <point x="348.35849056603774" y="286.60377358490564"/>
      <point x="319.3018867924529" y="286.60377358490564" type="curve"/>
    </contour>
    <contour>
      <point x="452.811320754717" y="342.0" type="line"/>
      <point x="452.811320754717" y="257.54716981132077" type="line"/>
      <point x="749.0754716981131" y="257.54716981132077" type="line"/>
      <point x="751.4905660377358" y="264.86792452830184"/>
      <point x="752.9056603773585" y="274.8490566037736"/>
      <point x="752.9056603773585" y="284.41509433962267" type="curve" smooth="yes"/>
      <point x="752.9056603773585" y="316.20754716981133"/>
      <point x="742.5849056603773" y="342.0"/>
      <point x="714.132075471698" y="342.0" type="curve"/>
    </contour>
  </outline>
</glyph>
<glyph name="OE" format="2">
  <advance width="800.0"/>
  <unicode hex="0152"/>
  <outline>
    <contour>
      <point x="271.7924528301887" y="707.6603773584906" type="curve" smooth="yes"/>
      <point x="139.69811320754718" y="707.6603773584906"/>
      <point x="64.62264150943396" y="571.0377358490566"/>
      <point x="64.62264150943396" y="337.9056603773585" type="curve" smooth="yes"/>
      <point x="64.62264150943396" y="313.71698113207543" type="line" smooth="yes"/>
      <point x="64.62264150943396" y="105.86792452830188"/>
      <point x="134.8679245283019" y="-7.660377358490566"/>
      <point x="273.7924528301887" y="-7.660377358490566" type="curve" smooth="yes"/>
      <point x="343.52830188679246" y="-7.660377358490566"/>
      <point x="395.9433962264151" y="27.92452830188679"/>
      <point x="425.4528301886793" y="96.09433962264151" type="curve"/>
      <point x="408.37735849056605" y="99.26415094339623" type="line"/>
      <point x="408.37735849056605" y="56.60377358490566" type="line" smooth="yes"/>
      <point x="415.8490566037736" y="24.32075471698113"/>
      <point x="434.39622641509436" y="0.0"/>
      <point x="456.60377358490564" y="0.0" type="curve" smooth="yes"/>
      <point x="750.4150943396227" y="0.0" type="line"/>
      <point x="752.0754716981132" y="7.981132075471699"/>
      <point x="752.9056603773586" y="18.622641509433965"/>
      <point x="752.9056603773586" y="29.92452830188679" type="curve" smooth="yes"/>
      <point x="752.9056603773586" y="73.52830188679246"/>
      <point x="741.1698113207548" y="91.50943396226415"/>
      <point x="713.7169811320755" y="91.50943396226415" type="curve" smooth="yes"/>
      <point x="492.8301886792453" y="91.50943396226415" type="line"/>
      <point x="492.8301886792453" y="238.6974413526868"/>
      <point x="492.8301886792453" y="387.58490566037733"/>
      <point x="492.8301886792453" y="534.622641509434" type="curve" smooth="yes"/>
      <point x="492.8301886792453" y="567.433962264151"/>
      <point x="485.92452830188677" y="588.4150943396227"/>
      <point x="468.8679245283019" y="603.6603773584906" type="curve"/>
      <point x="475.52830188679246" y="621.5471698113207" type="line"/>
      <point x="405.47169811320754" y="621.5471698113207" type="line"/>
      <point x="405.47169811320754" y="468.7169811320755"/>
      <point x="405.47169811320754" y="316.4716981132076"/>
      <point x="405.47169811320754" y="164.81132075471697" type="curve"/>
      <point x="372.0377358490566" y="101.9811320754717"/>
      <point x="342.35849056603774" y="75.62264150943398"/>
      <point x="289.33962264150944" y="75.62264150943398" type="curve" smooth="yes"/>
      <point x="202.41509433962264" y="75.62264150943398"/>
      <point x="156.1320754716981" y="147.9433962264151"/>
      <point x="156.1320754716981" y="306.6037735849057" type="curve" smooth="yes"/>
      <point x="156.1320754716981" y="325.45283018867923" type="line" smooth="yes"/>
      <point x="156.1320754716981" y="511.49056603773585"/>
      <point x="203.0" y="621.4716981132076"/>
      <point x="284.66037735849056" y="621.4716981132076" type="curve" smooth="yes"/>
      <point x="341.433962264151" y="621.4716981132076"/>
      <point x="370.1132075471698" y="593.6981132075472"/>
      <point x="405.47169811320754" y="532.0" type="curve"/>
      <point x="443.8301886792453" y="608.4905660377359" type="line"/>
      <point x="748.245283018868" y="608.4905660377359" type="line"/>
      <point x="751.4905660377359" y="617.2264150943396"/>
      <point x="752.9056603773586" y="628.6226415094341"/>
      <point x="752.9056603773586" y="640.8490566037735" type="curve" smooth="yes"/>
      <point x="752.9056603773586" y="680.2830188679245"/>
      <point x="738.0943396226415" y="700.0"/>
      <point x="708.8867924528303" y="700.0" type="curve"/>
      <point x="405.47169811320754" y="700.0" type="line"/>
      <point x="405.47169811320754" y="630.9056603773586" type="line"/>
      <point x="376.81132075471703" y="678.3018867924528"/>
      <point x="330.24528301886795" y="707.6603773584906"/>
    </contour>
    <contour>
      <point x="461.79245283018867" y="358.3018867924528" type="line"/>
      <point x="461.79245283018867" y="275.0943396226415" type="line"/>
      <point x="724.9245283018868" y="275.0943396226415" type="line"/>
      <point x="727.3396226415094" y="282.41509433962267"/>
      <point x="728.754716981132" y="291.15094339622647"/>
      <point x="728.754716981132" y="300.71698113207543" type="curve" smooth="yes"/>
      <point x="728.754716981132" y="338.73584905660374"/>
      <point x="717.188679245283" y="358.3018867924528"/>
      <point x="689.9811320754717" y="358.3018867924528" type="curve"/>
    </contour>
  </outline>
</glyph>
<glyph name="Dzcaron" format="2">
  <advance width="1250.0"/>
  <unicode hex="01C5"/>
  <outline>
    <contour>
      <point x="322.377358490566" y="720.0" type="curve"/>
      <point x="247.1132075471698" y="720.0"/>
      <point x="157.79245283018867" y="715.7547169811321"/>
      <point x="63.43396226415094" y="700.0" type="curve"/>
      <point x="61.77358490566038" y="691.1886792452831"/>
      <point x="60.94339622641509" y="681.7924528301886"/>
      <point x="60.94339622641509" y="670.4905660377358" type="curve"/>
      <point x="60.94339622641509" y="629.3018867924529"/>
      <point x="70.43396226415094" y="608.4905660377358"/>
      <point x="95.0" y="608.4905660377358" type="curve" smooth="yes"/>
      <point x="114.83018867924528" y="608.4905660377358"/>
      <point x="196.35849056603774" y="628.4905660377358"/>
      <point x="314.7547169811321" y="628.4905660377358" type="curve" smooth="yes"/>
      <point x="386.8679245283019" y="628.4905660377358"/>
      <point x="436.2264150943396" y="615.2264150943397"/>
      <point x="477.5660377358491" y="585.867924528302" type="curve" smooth="yes"/>
      <point x="505.188679245283" y="540.754716981132"/>
      <point x="513.9433962264151" y="488.13207547169816"/>
      <point x="513.9433962264151" y="395.9811320754717" type="curve" smooth="yes"/>
      <point x="513.9433962264151" y="385.9811320754717" type="line" smooth="yes"/>
      <point x="513.9433962264151" y="194.15094339622644"/>
      <point x="405.64150943396226" y="83.58490566037736"/>
      <point x="269.39622641509436" y="83.58490566037736" type="curve" smooth="yes"/>
      <point x="249.01886792452828" y="83.58490566037736"/>
      <point x="222.0377358490566" y="86.50943396226415"/>
      <point x="208.67924528301887" y="91.18867924528303" type="curve"/>
      <point x="208.67924528301887" y="244.47169811320754"/>
      <point x="208.67924528301887" y="400.09433962264154"/>
      <point x="208.67924528301887" y="546.3584905660377" type="curve" smooth="yes"/>
      <point x="208.67924528301887" y="577.0"/>
      <point x="201.52830188679246" y="598.1509433962264"/>
      <point x="183.7169811320755" y="614.811320754717" type="curve"/>
      <point x="196.22641509433964" y="644.566037735849" type="line"/>
      <point x="113.0188679245283" y="644.566037735849" type="line"/>
      <point x="113.0188679245283" y="454.8867924528302"/>
      <point x="113.0188679245283" y="263.2830188679245"/>
      <point x="113.0188679245283" y="75.56603773584905" type="curve"/>
      <point x="113.0188679245283" y="54.509433962264154"/>
      <point x="116.67924528301887" y="45.67924528301887"/>
      <point x="131.9811320754717" y="30.37735849056604" type="curve" smooth="yes"/>
      <point x="160.20754716981133" y="3.3207547169811322"/>
      <point x="214.2641509433962" y="-10.0"/>
      <point x="279.0377358490566" y="-10.0" type="curve" smooth="yes"/>
      <point x="463.64150943396226" y="-10.0"/>
      <point x="608.7735849056603" y="146.2641509433962"/>
      <point x="608.7735849056603" y="383.6981132075471" type="curve" smooth="yes"/>
      <point x="608.7735849056603" y="413.49056603773585" type="line" smooth="yes"/>
      <point x="608.7735849056603" y="625.8490566037736"/>
      <point x="508.18867924528297" y="720.0"/>
    </contour>
    <contour>
      <point x="731.3773584905659" y="531.811320754717" type="line"/>
      <point x="729.7169811320754" y="525.0754716981131"/>
      <point x="729.3018867924528" y="517.3396226415094"/>
      <point x="729.3018867924528" y="509.35849056603774" type="curve" smooth="yes"/>
      <point x="729.3018867924528" y="471.0"/>
      <point x="740.1132075471697" y="440.3018867924528"/>
      <point x="772.6415094339623" y="440.3018867924528" type="curve" smooth="yes"/>
      <point x="1050.5660377358492" y="440.3018867924528" type="line"/>
      <point x="1052.3207547169814" y="434.4716981132076" type="line"/>
      <point x="1037.3396226415093" y="416.566037735849"/>
      <point x="1024.433962264151" y="402.3207547169811"/>
      <point x="1010.8679245283018" y="384.2452830188679" type="curve" smooth="yes"/>
      <point x="938.9433962264151" y="277.1509433962264"/>
      <point x="833.9433962264151" y="165.33962264150944"/>
      <point x="729.3018867924528" y="83.26415094339623" type="curve"/>
      <point x="729.3018867924528" y="75.28301886792454" type="line" smooth="yes"/>
      <point x="729.3018867924528" y="34.84905660377359"/>
      <point x="738.4528301886792" y="0.0"/>
      <point x="769.7358490566037" y="0.0" type="curve" smooth="yes"/>
      <point x="1155.4528301886792" y="0.0" type="line"/>
      <point x="1157.1132075471698" y="8.81132075471698"/>
      <point x="1158.3584905660377" y="20.698113207547173"/>
      <point x="1158.3584905660377" y="31.999999999999996" type="curve" smooth="yes"/>
      <point x="1158.3584905660377" y="72.84905660377359"/>
      <point x="1148.377358490566" y="91.50943396226415"/>
      <point x="1113.7735849056603" y="91.50943396226415" type="curve"/>
      <point x="849.3018867924528" y="91.50943396226415" type="line"/>
      <point x="848.1320754716982" y="97.33962264150944" type="line"/>
      <point x="868.188679245283" y="107.0"/>
      <point x="890.1698113207548" y="120.16981132075472"/>
      <point x="909.3962264150944" y="135.0754716981132" type="curve" smooth="yes"/>
      <point x="1053.1509433962265" y="254.28301886792454"/>
      <point x="1158.3584905660377" y="421.7169811320755"/>
      <point x="1158.3584905660377" y="453.20754716981133" type="curve"/>
      <point x="1158.3584905660377" y="457.6981132075472" type="line" smooth="yes"/>
      <point x="1158.3584905660377" y="493.4905660377359"/>
      <point x="1136.3207547169811" y="531.811320754717"/>
      <point x="1104.2264150943395" y="531.811320754717" type="curve"/>
    </contour>
    <contour>
      <point x="964.2830188679245" y="636.8490566037736" type="curve"/>
      <point x="1016.8867924528302" y="658.433962264151"/>
      <point x="1073.1132075471698" y="703.0943396226415"/>
      <point x="1107.9622641509434" y="748.2641509433963" type="curve" smooth="yes"/>
      <point x="1127.4716981132076" y="773.8490566037736"/>
      <point x="1134.4716981132076" y="791.8490566037736"/>
      <point x="1134.4716981132076" y="801.5094339622642" type="curve" smooth="yes"/>
      <point x="1134.4716981132076" y="815.8301886792453"/>
      <point x="1115.1886792452829" y="826.5660377358491"/>
      <point x="1075.264150943396" y="826.5660377358491" type="curve" smooth="yes"/>
      <point x="1069.2641509433963" y="826.5660377358491" type="line"/>
      <point x="1043.6603773584907" y="782.2830188679245"/>
      <point x="996.867924528302" y="737.3396226415094"/>
      <point x="921.0754716981132" y="692.5094339622642" type="curve"/>
      <point x="976.4150943396227" y="707.5849056603773" type="line"/>
      <point x="911.0" y="707.5849056603773" type="line"/>
      <point x="967.754716981132" y="693.9245283018868" type="line"/>
      <point x="900.377358490566" y="728.8490566037735"/>
      <point x="867.2641509433963" y="759.2075471698114"/>
      <point x="838.9811320754717" y="794.6603773584906" type="curve" smooth="yes"/>
      <point x="819.9056603773586" y="818.9811320754718"/>
      <point x="811.0" y="824.811320754717"/>
      <point x="791.1132075471698" y="824.811320754717" type="curve" smooth="yes"/>
      <point x="769.9811320754717" y="824.811320754717"/>
      <point x="754.9245283018868" y="821.5660377358491"/>
      <point x="740.1132075471697" y="811.6603773584906" type="curve"/>
      <point x="774.622641509434" y="745.6603773584906"/>
      <point x="828.3207547169811" y="695.9056603773586"/>
      <point x="872.0566037735848" y="665.1698113207548" type="curve" smooth="yes"/>
      <point x="908.3018867924528" y="639.5094339622642"/>
      <point x="922.622641509434" y="636.8490566037736"/>
      <point x="944.0754716981132" y="636.8490566037736" type="curve" smooth="yes"/>
      <point x="952.8867924528302" y="636.8490566037736"/>
      <point x="958.377358490566" y="636.8490566037736"/>
    </contour>
  </outline>
</glyph>
<glyph name="dzcaron" format="2">
  <advance width="1150.0"/>
  <unicode hex="01C6"/>
  <outline>
    <contour>
      <point x="275.1509433962264" y="542.6415094339623" type="curve" smooth="yes"/>
      <point x="153.9245283018868" y="542.6415094339623"/>
      <point x="60.471698113207545" y="444.47169811320754"/>
      <point x="60.471698113207545" y="214.49056603773587" type="curve" smooth="yes"/>
      <point x="60.471698113207545" y="195.41509433962264" type="line" smooth="yes"/>
      <point x="60.471698113207545" y="74.64150943396227"/>
      <point x="127.52830188679246" y="-10.830188679245284"/>
      <point x="217.811320754717" y="-10.830188679245284" type="curve" smooth="yes"/>
      <point x="296.1509433962264" y="-10.830188679245284"/>
      <point x="371.566037735849" y="58.49056603773585"/>
      <point x="410.5849056603774" y="150.9245283018868" type="curve"/>
      <point x="425.8301886792453" y="150.9245283018868" type="line"/>
      <point x="425.8301886792453" y="295.39622641509436" type="line"/>
      <point x="367.8679245283019" y="139.0943396226415"/>
      <point x="301.4339622641509" y="85.24528301886792"/>
      <point x="222.77358490566039" y="85.24528301886792" type="curve" smooth="yes"/>
      <point x="197.7169811320755" y="85.24528301886792"/>
      <point x="177.33962264150944" y="95.77358490566039"/>
      <point x="162.39622641509436" y="118.41509433962264" type="curve" smooth="yes"/>
      <point x="155.64150943396226" y="147.94339622641508"/>
      <point x="154.0566037735849" y="176.9622641509434"/>
      <point x="154.0566037735849" y="213.62264150943395" type="curve" smooth="yes"/>
      <point x="154.0566037735849" y="223.45283018867923" type="line" smooth="yes"/>
      <point x="154.0566037735849" y="374.7358490566038"/>
      <point x="199.41509433962264" y="453.62264150943395"/>
      <point x="294.47169811320754" y="453.62264150943395" type="curve" smooth="yes"/>
      <point x="350.92452830188677" y="453.62264150943395"/>
      <point x="386.188679245283" y="434.9433962264151"/>
      <point x="428.3207547169811" y="385.54716981132077" type="curve"/>
      <point x="428.3207547169811" y="470.24528301886795" type="line"/>
      <point x="411.0" y="470.24528301886795" type="line"/>
      <point x="384.566037735849" y="510.6603773584905"/>
      <point x="332.64150943396226" y="542.6415094339623"/>
    </contour>
    <contour>
      <point x="430.4716981132076" y="757.1698113207547" type="curve"/>
      <point x="421.3207547169811" y="757.1698113207547"/>
      <point x="411.58490566037733" y="755.3396226415094"/>
      <point x="402.433962264151" y="752.9245283018868" type="curve"/>
      <point x="413.50943396226415" y="727.1698113207548"/>
      <point x="417.1698113207547" y="702.1320754716982"/>
      <point x="417.1698113207547" y="660.9433962264151" type="curve"/>
      <point x="417.1698113207547" y="467.33962264150944"/>
      <point x="417.1698113207547" y="302.8679245283019"/>
      <point x="417.1698113207547" y="104.69811320754718" type="curve"/>
      <point x="417.1698113207547" y="41.24528301886792"/>
      <point x="441.49056603773585" y="-5.245283018867925"/>
      <point x="489.9811320754717" y="-5.245283018867925" type="curve" smooth="yes"/>
      <point x="501.2075471698113" y="-5.245283018867925"/>
      <point x="510.94339622641513" y="-3.0"/>
      <point x="522.1698113207548" y="-0.16981132075471694" type="curve"/>
      <point x="511.50943396226415" y="32.64150943396226"/>
      <point x="508.6792452830189" y="56.01886792452831"/>
      <point x="508.6792452830189" y="100.11320754716981" type="curve" smooth="yes"/>
      <point x="508.6792452830189" y="279.60377358490564"/>
      <point x="508.6792452830189" y="458.188679245283"/>
      <point x="508.6792452830189" y="641.0" type="curve"/>
      <point x="508.6792452830189" y="728.8679245283018"/>
      <point x="471.49056603773585" y="757.1698113207547"/>
    </contour>
    <contour>
      <point x="645.5283018867924" y="531.811320754717" type="line"/>
      <point x="643.8679245283018" y="525.0754716981131"/>
      <point x="643.4528301886792" y="517.3396226415094"/>
      <point x="643.4528301886792" y="509.35849056603774" type="curve" smooth="yes"/>
      <point x="643.4528301886792" y="471.0"/>
      <point x="654.2641509433962" y="440.3018867924528"/>
      <point x="686.7924528301886" y="440.3018867924528" type="curve" smooth="yes"/>
      <point x="962.377358490566" y="440.3018867924528" type="line"/>
      <point x="964.132075471698" y="434.4716981132076" type="line"/>
      <point x="947.8113207547169" y="409.79245283018867"/>
      <point x="932.2264150943396" y="387.188679245283"/>
      <point x="913.6415094339623" y="362.33962264150944" type="curve" smooth="yes"/>
      <point x="840.3018867924528" y="260.8490566037736"/>
      <point x="742.4905660377359" y="160.90566037735852"/>
      <point x="643.4528301886792" y="83.26415094339623" type="curve"/>
      <point x="643.4528301886792" y="75.28301886792454" type="line" smooth="yes"/>
      <point x="643.4528301886792" y="34.84905660377359"/>
      <point x="652.6037735849056" y="0.0"/>
      <point x="683.8867924528302" y="0.0" type="curve" smooth="yes"/>
      <point x="1069.6037735849056" y="0.0" type="line"/>
      <point x="1071.2641509433963" y="8.81132075471698"/>
      <point x="1072.5094339622642" y="20.698113207547173"/>
      <point x="1072.5094339622642" y="31.999999999999996" type="curve" smooth="yes"/>
      <point x="1072.5094339622642" y="72.84905660377359"/>
      <point x="1062.5283018867924" y="91.50943396226415"/>
      <point x="1027.9245283018868" y="91.50943396226415" type="curve"/>
      <point x="765.2075471698113" y="91.50943396226415" type="line"/>
      <point x="764.0377358490566" y="97.33962264150944" type="line"/>
      <point x="786.5283018867925" y="110.84905660377359"/>
      <point x="809.0188679245283" y="123.77358490566039"/>
      <point x="830.0943396226415" y="140.94339622641508" type="curve" smooth="yes"/>
      <point x="969.9056603773586" y="259.566037735849"/>
      <point x="1072.509433962264" y="421.8867924528302"/>
      <point x="1072.5094339622642" y="453.20754716981133" type="curve"/>
      <point x="1072.5094339622642" y="457.6981132075472" type="line" smooth="yes"/>
      <point x="1072.5094339622642" y="493.4905660377359"/>
      <point x="1050.4716981132076" y="531.811320754717"/>
      <point x="1018.377358490566" y="531.811320754717" type="curve"/>
    </contour>
    <contour>
      <point x="878.433962264151" y="636.8490566037736" type="curve"/>
      <point x="931.0377358490566" y="658.433962264151"/>
      <point x="987.2641509433962" y="703.0943396226415"/>
      <point x="1022.1132075471698" y="748.2641509433963" type="curve" smooth="yes"/>
      <point x="1041.622641509434" y="773.8490566037736"/>
      <point x="1048.6226415094338" y="791.8490566037736"/>
      <point x="1048.6226415094338" y="801.5094339622642" type="curve" smooth="yes"/>
      <point x="1048.6226415094338" y="815.8301886792453"/>
      <point x="1029.3396226415095" y="826.5660377358491"/>
      <point x="989.4150943396227" y="826.5660377358491" type="curve" smooth="yes"/>
      <point x="983.4150943396227" y="826.5660377358491" type="line"/>
      <point x="957.8113207547169" y="782.2830188679245"/>
      <point x="911.0188679245283" y="737.3396226415094"/>
      <point x="835.2264150943396" y="692.5094339622642" type="curve"/>
      <point x="890.5660377358491" y="707.5849056603773" type="line"/>
      <point x="825.1509433962264" y="707.5849056603773" type="line"/>
      <point x="881.9056603773586" y="693.9245283018868" type="line"/>
      <point x="814.5283018867924" y="728.8490566037735"/>
      <point x="781.4150943396227" y="759.2075471698114"/>
      <point x="753.1320754716982" y="794.6603773584906" type="curve" smooth="yes"/>
      <point x="734.0566037735849" y="818.9811320754718"/>
      <point x="725.1509433962265" y="824.811320754717"/>
      <point x="705.2641509433963" y="824.811320754717" type="curve" smooth="yes"/>
      <point x="684.1320754716982" y="824.811320754717"/>
      <point x="669.0754716981132" y="821.5660377358491"/>
      <point x="654.2641509433962" y="811.6603773584906" type="curve"/>
      <point x="688.7735849056603" y="745.6603773584906"/>
      <point x="742.4716981132076" y="695.9056603773586"/>
      <point x="786.2075471698113" y="665.1698113207548" type="curve" smooth="yes"/>
      <point x="822.4528301886792" y="639.5094339622642"/>
      <point x="836.7735849056603" y="636.8490566037736"/>
      <point x="858.2264150943396" y="636.8490566037736" type="curve" smooth="yes"/>
      <point x="867.0377358490566" y="636.8490566037736"/>
      <point x="872.5283018867925" y="636.8490566037736"/>
    </contour>
  </outline>
</glyph>
<glyph name="Lj" format="2">
  <advance width="850.0"/>
  <unicode hex="01C8"/>
  <outline>
    <contour>
      <point x="151.30188679245285" y="0.0" type="curve" smooth="yes"/>
      <point x="466.92452830188677" y="0.0" type="line"/>
      <point x="471.49056603773585" y="59.886792452830186"/>
      <point x="458.8490566037736" y="91.50943396226415"/>
      <point x="424.4150943396226" y="91.50943396226415" type="curve" smooth="yes"/>
      <point x="185.22641509433964" y="91.50943396226415" type="line"/>
      <point x="185.22641509433964" y="274.9056603773585"/>
      <point x="185.22641509433964" y="460.1132075471698"/>
      <point x="185.22641509433964" y="635.2075471698113" type="curve"/>
      <point x="185.22641509433964" y="680.132075471698"/>
      <point x="174.0943396226415" y="707.6603773584906"/>
      <point x="123.56603773584906" y="707.6603773584906" type="curve" smooth="yes"/>
      <point x="106.43396226415095" y="707.6603773584906"/>
      <point x="93.13207547169812" y="705.4150943396227"/>
      <point x="80.0754716981132" y="701.7547169811321" type="curve"/>
      <point x="87.32075471698113" y="667.1698113207548"/>
      <point x="89.56603773584905" y="640.5283018867925"/>
      <point x="89.56603773584905" y="595.8490566037735" type="curve" smooth="yes"/>
      <point x="89.56603773584905" y="427.28301886792457"/>
      <point x="89.56603773584905" y="257.9622641509434"/>
      <point x="89.56603773584905" y="97.0" type="curve" smooth="yes"/>
      <point x="89.56603773584905" y="50.56603773584906"/>
      <point x="110.20754716981132" y="0.0"/>
    </contour>
    <contour>
      <point x="423.52830188679246" y="206.58490566037736" type="curve"/>
      <point x="423.52830188679246" y="104.30188679245283"/>
      <point x="397.35849056603774" y="36.41509433962264"/>
      <point x="396.77358490566036" y="-4.0" type="curve" smooth="yes"/>
      <point x="396.188679245283" y="-24.49056603773585"/>
      <point x="416.7547169811321" y="-34.471698113207545"/>
      <point x="463.2641509433962" y="-34.471698113207545" type="curve"/>
      <point x="489.8301886792453" y="25.339622641509433"/>
      <point x="510.0566037735849" y="100.75471698113208"/>
      <point x="510.0566037735849" y="168.71698113207546" type="curve" smooth="yes"/>
      <point x="510.0566037735849" y="198.33962264150944"/>
      <point x="491.22641509433964" y="209.0754716981132"/>
      <point x="453.45283018867923" y="209.0754716981132" type="curve" smooth="yes"/>
      <point x="442.1509433962264" y="209.0754716981132"/>
      <point x="431.50943396226415" y="208.24528301886792"/>
    </contour>
    <contour>
      <point x="665.0943396226415" y="541.811320754717" type="curve" smooth="yes"/>
      <point x="624.8867924528302" y="541.811320754717"/>
      <point x="578.6981132075472" y="537.4716981132076"/>
      <point x="540.0943396226415" y="533.4716981132076" type="curve"/>
      <point x="537.2641509433962" y="524.3207547169811"/>
      <point x="535.8490566037735" y="511.92452830188677"/>
      <point x="535.8490566037735" y="497.6981132075472" type="curve" smooth="yes"/>
      <point x="535.8490566037735" y="460.75471698113205"/>
      <point x="546.7547169811321" y="441.9622641509434"/>
      <point x="567.566037735849" y="441.9622641509434" type="curve" smooth="yes"/>
      <point x="589.0754716981132" y="441.9622641509434"/>
      <point x="622.7924528301887" y="448.7169811320755"/>
      <point x="659.0943396226415" y="455.622641509434" type="curve"/>
      <point x="665.0943396226415" y="452.20754716981133" type="line"/>
      <point x="665.0943396226415" y="294.9811320754717"/>
      <point x="665.0943396226415" y="177.33962264150944"/>
      <point x="665.0943396226415" y="20.113207547169814" type="curve" smooth="yes"/>
      <point x="665.0943396226415" y="-33.84905660377359"/>
      <point x="659.8301886792452" y="-71.52830188679246"/>
      <point x="640.0377358490565" y="-104.37735849056602" type="curve"/>
      <point x="626.1886792452831" y="-113.39622641509433"/>
      <point x="610.0" y="-118.49056603773585"/>
      <point x="590.3962264150942" y="-118.49056603773585" type="curve" smooth="yes"/>
      <point x="557.4716981132076" y="-118.49056603773585"/>
      <point x="538.9811320754717" y="-113.32075471698113"/>
      <point x="511.90566037735846" y="-97.98113207547169" type="curve"/>
      <point x="506.49056603773585" y="-97.98113207547169" type="line"/>
      <point x="503.49056603773585" y="-106.47169811320755"/>
      <point x="502.49056603773585" y="-115.54716981132076"/>
      <point x="502.49056603773585" y="-127.2075471698113" type="curve" smooth="yes"/>
      <point x="502.49056603773585" y="-151.24528301886792"/>
      <point x="509.2264150943396" y="-176.35849056603774"/>
      <point x="521.7924528301886" y="-188.9245283018868" type="curve" smooth="yes"/>
      <point x="537.8679245283018" y="-205.0"/>
      <point x="562.377358490566" y="-210.0"/>
      <point x="592.4528301886793" y="-210.0" type="curve" smooth="yes"/>
      <point x="695.9811320754717" y="-210.0"/>
      <point x="756.6037735849058" y="-118.86792452830188"/>
      <point x="756.6037735849058" y="-6.566037735849058" type="curve" smooth="yes"/>
      <point x="756.6037735849058" y="188.39622641509436"/>
      <point x="756.6037735849058" y="324.26415094339626"/>
      <point x="756.6037735849058" y="499.71698113207555" type="curve" smooth="yes"/>
      <point x="756.6037735849058" y="528.5094339622641"/>
      <point x="724.3962264150944" y="541.811320754717"/>
    </contour>
    <contour>
      <point x="644.6981132075472" y="754.4150943396227" type="curve"/>
      <point x="644.6981132075472" y="700.7547169811321" type="line" smooth="yes"/>
      <point x="644.6981132075472" y="665.4716981132076"/>
      <point x="676.566037735849" y="643.7547169811321"/>
      <point x="723.7547169811321" y="643.7547169811321" type="curve" smooth="yes"/>
      <point x="744.0566037735849" y="643.7547169811321"/>
      <point x="762.7735849056604" y="646.8301886792453"/>
      <point x="777.8301886792453" y="652.566037735849" type="curve"/>
      <point x="777.8301886792453" y="712.867924528302" type="line" smooth="yes"/>
      <point x="777.8301886792453" y="748.1509433962265"/>
      <point x="748.622641509434" y="763.2264150943397"/>
      <point x="703.7547169811321" y="763.2264150943397" type="curve" smooth="yes"/>
      <point x="682.2075471698113" y="763.2264150943397"/>
      <point x="659.7547169811321" y="759.7358490566038"/>
    </contour>
  </outline>
</glyph>
<glyph name="ringhalfrightmod" format="2">
  <advance width="200.0"/>
  <unicode hex="02BE"/>
  <outline>
    <contour>
      <point x="48.81132075471698" y="600.188679245283" type="curve" smooth="yes"/>
      <point x="113.79245283018868" y="600.188679245283"/>
      <point x="167.94339622641508" y="649.5849056603773"/>
      <point x="167.94339622641508" y="719.4716981132076" type="curve" smooth="yes"/>
      <point x="167.94339622641508" y="725.8867924528302" type="line" smooth="yes"/>
      <point x="167.94339622641508" y="793.1886792452831"/>
      <point x="116.96226415094338" y="839.9245283018869"/>
      <point x="47.15094339622641" y="839.9245283018869" type="curve"/>
      <point x="43.0" y="825.3584905660377"/>
      <point x="40.50943396226415" y="811.377358490566"/>
      <point x="40.50943396226415" y="796.0566037735849" type="curve" smooth="yes"/>
      <point x="40.50943396226415" y="787.1509433962264"/>
      <point x="43.16981132075472" y="782.6603773584906"/>
      <point x="51.24528301886792" y="782.6603773584906" type="curve" smooth="yes"/>
      <point x="63.735849056603776" y="782.6603773584906"/>
      <point x="76.15094339622641" y="780.0754716981131"/>
      <point x="85.15094339622641" y="773.8301886792452" type="curve"/>
      <point x="99.50943396226415" y="763.4905660377358"/>
      <point x="104.43396226415095" y="748.811320754717"/>
      <point x="104.43396226415095" y="727.7924528301886" type="curve" smooth="yes"/>
      <point x="104.43396226415095" y="722.622641509434" type="line" smooth="yes"/>
      <point x="104.43396226415095" y="686.0188679245283"/>
      <point x="79.75471698113208" y="664.9245283018868"/>
      <point x="41.22641509433962" y="663.6792452830189" type="curve"/>
      <point x="37.490566037735846" y="647.4528301886792"/>
      <point x="35.41509433962264" y="630.8113207547169"/>
      <point x="35.41509433962264" y="617.4905660377358" type="curve" smooth="yes"/>
      <point x="35.41509433962264" y="604.2641509433962"/>
      <point x="39.075471698113205" y="600.188679245283"/>
    </contour>
  </outline>
</glyph>
<glyph name="circumflexcomb" format="2">
  <unicode hex="0302"/>
  <anchor x="0.0" y="540.811320754717" name="_top"/>
  <anchor x="172.45283018867926" y="709.3018867924528" name="side"/>
  <anchor x="0.0" y="756.3962264150944" name="top"/>
  <outline>
    <contour>
      <point x="-20.28301886792453" y="815.8490566037736" type="curve"/>
      <point x="-72.88679245283019" y="794.2641509433962"/>
      <point x="-129.1132075471698" y="749.6037735849056"/>
      <point x="-163.96226415094338" y="704.433962264151" type="curve" smooth="yes"/>
      <point x="-183.47169811320754" y="678.8490566037736"/>
      <point x="-190.47169811320754" y="660.8490566037736"/>
      <point x="-190.47169811320754" y="651.1886792452831" type="curve" smooth="yes"/>
      <point x="-190.47169811320754" y="636.8679245283018"/>
      <point x="-171.18867924528303" y="626.1320754716982"/>
      <point x="-131.26415094339623" y="626.1320754716982" type="curve" smooth="yes"/>
      <point x="-125.26415094339623" y="626.1320754716982" type="line"/>
      <point x="-99.66037735849056" y="670.4150943396227"/>
      <point x="-52.86792452830189" y="715.3584905660376"/>
      <point x="22.924528301886795" y="760.1886792452831" type="curve"/>
      <point x="-32.41509433962264" y="745.1132075471698" type="line"/>
      <point x="33.0" y="745.1132075471698" type="line"/>
      <point x="-23.754716981132077" y="758.7735849056604" type="line"/>
      <point x="43.62264150943396" y="723.8490566037735"/>
      <point x="76.73584905660378" y="693.4905660377359"/>
      <point x="105.0188679245283" y="658.0377358490566" type="curve" smooth="yes"/>
      <point x="124.0943396226415" y="633.7169811320755"/>
      <point x="133.0" y="627.8867924528302"/>
      <point x="152.8867924528302" y="627.8867924528302" type="curve" smooth="yes"/>
      <point x="174.0188679245283" y="627.8867924528302"/>
      <point x="189.07547169811323" y="631.1320754716982"/>
      <point x="203.88679245283018" y="641.0377358490566" type="curve"/>
      <point x="169.37735849056602" y="707.0377358490566"/>
      <point x="115.67924528301887" y="756.7924528301887"/>
      <point x="71.9433962264151" y="787.5283018867925" type="curve" smooth="yes"/>
      <point x="35.698113207547166" y="813.1886792452831"/>
      <point x="21.37735849056604" y="815.8490566037736"/>
      <point x="-0.07547169811320842" y="815.8490566037736" type="curve" smooth="yes"/>
      <point x="-8.88679245283019" y="815.8490566037736"/>
      <point x="-14.377358490566039" y="815.8490566037736"/>
    </contour>
  </outline>
</glyph>
<glyph name="tildecomb" format="2">
  <unicode hex="0303"/>
  <anchor x="0.0" y="540.811320754717" name="_top"/>
  <anchor x="-0.41509433962264153" y="726.9433962264151" name="top"/>
  <outline>
    <contour>
      <point x="88.9811320754717" y="724.9811320754717" type="curve" smooth="yes"/>
      <point x="25.41509433962264" y="724.9811320754717"/>
      <point x="-10.716981132075471" y="780.4150943396227"/>
      <point x="-91.71698113207546" y="780.4150943396227" type="curve" smooth="yes"/>
      <point x="-140.1320754716981" y="780.4150943396227"/>
      <point x="-166.8867924528302" y="761.5094339622642"/>
      <point x="-179.13207547169813" y="733.1132075471697" type="curve" smooth="yes"/>
      <point x="-184.54716981132077" y="721.4528301886793"/>
      <point x="-188.62264150943398" y="703.811320754717"/>
      <point x="-188.62264150943398" y="681.0188679245283" type="curve" smooth="yes"/>
      <point x="-188.62264150943398" y="669.5283018867925"/>
      <point x="-187.20754716981133" y="656.3018867924528"/>
      <point x="-183.37735849056605" y="644.811320754717" type="curve"/>
      <point x="-177.37735849056602" y="644.811320754717" type="line"/>
      <point x="-148.64150943396226" y="682.1509433962264"/>
      <point x="-124.30188679245283" y="696.9056603773585"/>
      <point x="-88.9811320754717" y="696.9056603773585" type="curve" smooth="yes"/>
      <point x="-25.41509433962264" y="696.9056603773585"/>
      <point x="10.716981132075471" y="640.3018867924528"/>
      <point x="91.71698113207546" y="640.3018867924528" type="curve" smooth="yes"/>
      <point x="140.1320754716981" y="640.3018867924528"/>
      <point x="166.30188679245285" y="659.2075471698113"/>
      <point x="179.13207547169813" y="688.7735849056604" type="curve" smooth="yes"/>
      <point x="184.54716981132077" y="700.433962264151"/>
      <point x="188.62264150943398" y="718.0754716981132"/>
      <point x="188.62264150943398" y="740.8679245283018" type="curve" smooth="yes"/>
      <point x="188.62264150943398" y="752.3584905660377"/>
      <point x="187.20754716981133" y="765.5849056603773"/>
      <point x="183.37735849056605" y="777.0754716981132" type="curve"/>
      <point x="177.37735849056602" y="777.0754716981132" type="line"/>
      <point x="148.64150943396226" y="739.7358490566037"/>
      <point x="124.30188679245283" y="724.9811320754717"/>
    </contour>
  </outline>
</glyph>
<glyph name="brevecomb" format="2">
  <unicode hex="0306"/>
  <anchor x="0.0" y="540.811320754717" name="_top"/>
  <anchor x="0.0" y="740.6037735849056" name="top"/>
  <anchor x="0.0" y="810.3018867924528" name="hook"/>
  <outline>
    <contour>
      <point x="0.0" y="713.2641509433962" type="curve"/>
      <point x="-66.54716981132076" y="718.0188679245283"/>
      <point x="-100.9622641509434" y="743.4716981132075"/>
      <point x="-119.1320754716981" y="802.7358490566038" type="curve"/>
      <point x="-137.1132075471698" y="801.1509433962265"/>
      <point x="-153.9245283018868" y="796.3207547169811"/>
      <point x="-166.73584905660377" y="786.8301886792453" type="curve" smooth="yes"/>
      <point x="-174.0566037735849" y="781.1698113207547"/>
      <point x="-175.47169811320754" y="770.8490566037735"/>
      <point x="-170.47169811320754" y="757.0188679245283" type="curve" smooth="yes"/>
      <point x="-143.81132075471697" y="684.2075471698113"/>
      <point x="-87.73584905660378" y="643.5471698113207"/>
      <point x="-4.0" y="643.5471698113207" type="curve" smooth="yes"/>
      <point x="4.0" y="643.5471698113207" type="line" smooth="yes"/>
      <point x="87.73584905660377" y="643.5471698113207"/>
      <point x="143.81132075471697" y="684.2075471698113"/>
      <point x="170.47169811320754" y="757.0188679245283" type="curve" smooth="yes"/>
      <point x="175.47169811320754" y="770.8490566037735"/>
      <point x="174.0566037735849" y="781.1698113207547"/>
      <point x="166.73584905660377" y="786.8301886792453" type="curve" smooth="yes"/>
      <point x="153.9245283018868" y="796.3207547169811"/>
      <point x="137.1132075471698" y="801.1509433962265"/>
      <point x="119.1320754716981" y="802.7358490566038" type="curve"/>
      <point x="100.9622641509434" y="743.4716981132075"/>
      <point x="66.54716981132076" y="718.0188679245283"/>
    </contour>
  </outline>
</glyph>
<glyph name="cedillacomb" format="2">
  <unicode hex="0327"/>
  <anchor x="0.5849056603773585" y="0.0" name="_bottom"/>
  <outline>
    <contour>
      <point x="30.49056603773585" y="26.9811320754717" type="curve"/>
      <point x="-6.962264150943397" y="29.320754716981135"/>
      <point x="-20.547169811320757" y="22.735849056603772"/>
      <point x="-25.37735849056604" y="14.320754716981131" type="curve" smooth="yes"/>
      <point x="-36.45283018867924" y="-4.509433962264151"/>
      <point x="-42.62264150943396" y="-40.37735849056604"/>
      <point x="-42.62264150943396" y="-62.56603773584906" type="curve" smooth="yes"/>
      <point x="-42.62264150943396" y="-72.49056603773586"/>
      <point x="-34.943396226415096" y="-79.16981132075472"/>
      <point x="-22.67924528301887" y="-79.16981132075472" type="curve" smooth="yes"/>
      <point x="8.905660377358492" y="-79.16981132075472"/>
      <point x="23.490566037735846" y="-92.50943396226415"/>
      <point x="23.490566037735846" y="-115.35849056603773" type="curve" smooth="yes"/>
      <point x="23.490566037735846" y="-144.2075471698113"/>
      <point x="3.1509433962264133" y="-159.81132075471697"/>
      <point x="-33.79245283018868" y="-159.81132075471697" type="curve" smooth="yes"/>
      <point x="-66.20754716981132" y="-159.81132075471697"/>
      <point x="-81.62264150943396" y="-152.64150943396226"/>
      <point x="-101.0377358490566" y="-135.1320754716981" type="curve"/>
      <point x="-107.0377358490566" y="-135.1320754716981" type="line"/>
      <point x="-112.28301886792453" y="-149.45283018867926"/>
      <point x="-114.94339622641509" y="-161.8490566037736"/>
      <point x="-114.94339622641509" y="-176.0" type="curve" smooth="yes"/>
      <point x="-114.94339622641509" y="-206.64150943396228"/>
      <point x="-90.35849056603773" y="-232.9622641509434"/>
      <point x="-31.056603773584907" y="-232.9622641509434" type="curve" smooth="yes"/>
      <point x="53.90566037735849" y="-232.9622641509434"/>
      <point x="102.37735849056604" y="-191.7924528301887"/>
      <point x="102.37735849056604" y="-124.90566037735849" type="curve" smooth="yes"/>
      <point x="102.37735849056604" y="-76.41509433962264"/>
      <point x="71.15094339622642" y="-45.58490566037736"/>
      <point x="17.9811320754717" y="-41.16981132075472" type="curve"/>
      <point x="17.9811320754717" y="-36.339622641509436" type="line"/>
      <point x="21.150943396226413" y="-20.830188679245282"/>
      <point x="25.150943396226417" y="9.132075471698114"/>
    </contour>
  </outline>
</glyph>
<glyph name="perthousand" format="2">
  <advance width="600.0"/>
  <unicode hex="2030"/>
  <outline>
    <contour>
      <point x="47.490566037735846" y="262.33962264150944" type="curve"/>
      <point x="246.71698113207546" y="320.188679245283"/>
      <point x="423.0" y="403.41509433962267"/>
      <point x="549.0188679245283" y="511.5471698113207" type="curve" smooth="yes"/>
      <point x="566.7735849056603" y="526.4716981132076"/>
      <point x="577.0" y="543.0377358490566"/>
      <point x="577.0" y="579.8301886792453" type="curve" smooth="yes"/>
      <point x="577.0" y="605.4716981132076"/>
      <point x="573.0" y="636.4150943396226"/>
      <point x="562.1698113207547" y="653.7358490566038" type="curve"/>
      <point x="440.33962264150944" y="511.22641509433964"/>
      <point x="228.0754716981132" y="379.1320754716981"/>
      <point x="35.735849056603776" y="313.54716981132077" type="curve"/>
      <point x="28.830188679245282" y="301.81132075471703"/>
      <point x="27.0" y="294.1509433962264"/>
      <point x="27.0" y="283.66037735849056" type="curve" smooth="yes"/>
      <point x="27.0" y="267.33962264150944"/>
      <point x="35.83018867924528" y="259.33962264150944"/>
    </contour>
    <contour>
      <point x="10.754716981132075" y="565.2641509433962" type="curve" smooth="yes"/>
      <point x="10.754716981132075" y="560.2641509433963" type="line" smooth="yes"/>
      <point x="10.754716981132075" y="478.188679245283"/>
      <point x="59.41509433962264" y="426.5283018867924"/>
      <point x="139.32075471698113" y="426.5283018867924" type="curve" smooth="yes"/>
      <point x="222.64150943396226" y="426.5283018867924"/>
      <point x="276.3018867924528" y="481.0188679245283"/>
      <point x="276.3018867924528" y="566.5849056603773" type="curve" smooth="yes"/>
      <point x="276.3018867924528" y="571.0" type="line" smooth="yes"/>
      <point x="276.3018867924528" y="653.7547169811321"/>
      <point x="222.39622641509433" y="710.0"/>
      <point x="145.73584905660377" y="710.0" type="curve" smooth="yes"/>
      <point x="64.83018867924528" y="710.0"/>
      <point x="10.754716981132075" y="651.3396226415093"/>
    </contour>
    <contour>
      <point x="72.11320754716982" y="558.9245283018868" type="curve" smooth="yes"/>
      <point x="72.11320754716982" y="563.0943396226415" type="line" smooth="yes"/>
      <point x="72.11320754716982" y="618.4528301886793"/>
      <point x="102.37735849056604" y="655.8867924528302"/>
      <point x="147.9056603773585" y="655.8867924528302" type="curve" smooth="yes"/>
      <point x="157.24528301886792" y="655.8867924528302"/>
      <point x="166.0" y="655.8867924528302"/>
      <point x="173.75471698113208" y="654.3018867924528" type="curve"/>
      <point x="195.37735849056605" y="641.3018867924528"/>
      <point x="205.39622641509436" y="617.4528301886793"/>
      <point x="205.39622641509436" y="580.0754716981132" type="curve" smooth="yes"/>
      <point x="205.39622641509436" y="575.9056603773585" type="line" smooth="yes"/>
      <point x="205.39622641509436" y="522.377358490566"/>
      <point x="178.7924528301887" y="491.0188679245283"/>
      <point x="124.92452830188678" y="491.0188679245283" type="curve" smooth="yes"/>
      <point x="116.50943396226415" y="491.0188679245283"/>
      <point x="109.09433962264151" y="491.433962264151"/>
      <point x="102.09433962264151" y="493.6792452830189" type="curve"/>
      <point x="82.88679245283019" y="508.188679245283"/>
      <point x="72.11320754716982" y="531.3018867924528"/>
    </contour>
    <contour>
      <point x="116.60377358490567" y="128.73584905660377" type="curve" smooth="yes"/>
      <point x="116.60377358490567" y="123.73584905660377" type="line" smooth="yes"/>
      <point x="116.60377358490567" y="41.66037735849057"/>
      <point x="165.26415094339623" y="-10.0"/>
      <point x="245.16981132075472" y="-10.0" type="curve" smooth="yes"/>
      <point x="320.0" y="-10.0"/>
      <point x="368.0" y="44.490566037735846"/>
      <point x="368.0" y="130.0566037735849" type="curve" smooth="yes"/>
      <point x="368.0" y="134.47169811320754" type="line" smooth="yes"/>
      <point x="368.0" y="217.22641509433961"/>
      <point x="319.7547169811321" y="273.4716981132076"/>
      <point x="251.58490566037736" y="273.4716981132076" type="curve" smooth="yes"/>
      <point x="170.67924528301887" y="273.4716981132076"/>
      <point x="116.60377358490567" y="214.81132075471697"/>
    </contour>
    <contour>
      <point x="177.9622641509434" y="122.39622641509433" type="curve" smooth="yes"/>
      <point x="177.9622641509434" y="126.56603773584905" type="line" smooth="yes"/>
      <point x="177.9622641509434" y="181.9245283018868"/>
      <point x="208.22641509433961" y="219.35849056603774"/>
      <point x="253.75471698113208" y="219.35849056603774" type="curve" smooth="yes"/>
      <point x="263.0943396226415" y="219.35849056603774"/>
      <point x="271.8490566037736" y="219.35849056603774"/>
      <point x="279.60377358490564" y="217.77358490566039" type="curve"/>
      <point x="301.2264150943396" y="204.77358490566039"/>
      <point x="311.2452830188679" y="180.9245283018868"/>
      <point x="311.2452830188679" y="143.54716981132074" type="curve" smooth="yes"/>
      <point x="311.2452830188679" y="139.37735849056602" type="line" smooth="yes"/>
      <point x="311.2452830188679" y="85.84905660377359"/>
      <point x="284.64150943396226" y="54.49056603773585"/>
      <point x="230.77358490566039" y="54.49056603773585" type="curve" smooth="yes"/>
      <point x="222.35849056603772" y="54.49056603773585"/>
      <point x="214.94339622641508" y="54.905660377358494"/>
      <point x="207.9433962264151" y="57.15094339622641" type="curve"/>
      <point x="188.7358490566038" y="71.66037735849056"/>
      <point x="177.9622641509434" y="94.77358490566039"/>
    </contour>
    <contour>
      <point x="588.0" y="130.0566037735849" type="curve" smooth="yes"/>
      <point x="588.0" y="134.47169811320754" type="line" smooth="yes"/>
      <point x="588.0" y="217.22641509433961"/>
      <point x="534.0943396226415" y="273.4716981132076"/>
      <point x="457.4339622641509" y="273.4716981132076" type="curve" smooth="yes"/>
      <point x="382.5283018867924" y="273.4716981132076"/>
      <point x="332.45283018867923" y="214.81132075471697"/>
      <point x="332.45283018867923" y="128.73584905660377" type="curve" smooth="yes"/>
      <point x="332.45283018867923" y="123.73584905660377" type="line" smooth="yes"/>
      <point x="332.45283018867923" y="41.66037735849057"/>
      <point x="377.1132075471698" y="-10.0"/>
      <point x="451.0188679245283" y="-10.0" type="curve" smooth="yes"/>
      <point x="534.3396226415094" y="-10.0"/>
      <point x="588.0" y="44.490566037735846"/>
    </contour>
    <contour>
      <point x="383.811320754717" y="122.39622641509433" type="curve" smooth="yes"/>
      <point x="383.811320754717" y="126.56603773584905" type="line" smooth="yes"/>
      <point x="383.811320754717" y="181.9245283018868"/>
      <point x="414.07547169811323" y="219.35849056603774"/>
      <point x="459.60377358490564" y="219.35849056603774" type="curve" smooth="yes"/>
      <point x="468.94339622641513" y="219.35849056603774"/>
      <point x="477.6981132075472" y="219.35849056603774"/>
      <point x="485.4528301886793" y="217.77358490566039" type="curve"/>
      <point x="507.0754716981132" y="204.77358490566039"/>
      <point x="517.0943396226415" y="180.9245283018868"/>
      <point x="517.0943396226415" y="143.54716981132074" type="curve" smooth="yes"/>
      <point x="517.0943396226415" y="139.37735849056602" type="line" smooth="yes"/>
      <point x="517.0943396226415" y="85.84905660377359"/>
      <point x="490.49056603773585" y="54.49056603773585"/>
      <point x="436.62264150943395" y="54.49056603773585" type="curve" smooth="yes"/>
      <point x="427.62264150943395" y="54.49056603773585"/>
      <point x="419.622641509434" y="55.49056603773585"/>
      <point x="412.62264150943395" y="58.32075471698113" type="curve"/>
      <point x="394.0" y="72.83018867924528"/>
      <point x="383.811320754717" y="95.35849056603774"/>
    </contour>
  </outline>
</glyph>
<glyph name="guilsinglleft" format="2">
  <advance width="600.0"/>
  <unicode hex="2039"/>
  <outline>
    <contour>
      <point x="436.39622641509436" y="105.18867924528301" type="line"/>
      <point x="341.1509433962264" y="173.75471698113208"/>
      <point x="288.92452830188677" y="224.1509433962264"/>
      <point x="245.0754716981132" y="300.58490566037733" type="curve"/>
      <point x="295.33962264150944" y="382.26415094339626"/>
      <point x="340.1509433962264" y="427.49056603773585"/>
      <point x="436.39622641509436" y="494.811320754717" type="curve"/>
      <point x="436.39622641509436" y="500.811320754717" type="line"/>
      <point x="416.33962264150944" y="507.47169811320754"/>
      <point x="384.49056603773585" y="510.3018867924528"/>
      <point x="360.433962264151" y="510.3018867924528" type="curve" smooth="yes"/>
      <point x="336.6415094339623" y="510.3018867924528"/>
      <point x="322.3207547169811" y="506.47169811320754"/>
      <point x="303.49056603773585" y="493.0566037735849" type="curve" smooth="yes"/>
      <point x="243.58490566037736" y="447.39622641509436"/>
      <point x="202.75471698113208" y="401.66037735849056"/>
      <point x="153.83018867924528" y="325.0" type="curve"/>
      <point x="153.83018867924528" y="317.003320754717"/>
      <point x="153.83018867924528" y="309.0"/>
      <point x="153.83018867924528" y="301.0" type="curve" smooth="yes"/>
      <point x="153.83018867924528" y="276.0"/>
      <point x="159.83018867924528" y="261.8490566037736"/>
      <point x="182.83018867924528" y="228.0188679245283" type="curve" smooth="yes"/>
      <point x="231.41509433962264" y="160.35849056603774"/>
      <point x="262.39622641509436" y="132.96226415094338"/>
      <point x="293.39622641509436" y="112.0377358490566" type="curve" smooth="yes"/>
      <point x="317.9811320754717" y="94.69811320754717"/>
      <point x="334.6415094339623" y="89.69811320754717"/>
      <point x="362.433962264151" y="89.69811320754717" type="curve" smooth="yes"/>
      <point x="388.90566037735846" y="89.69811320754717"/>
      <point x="418.7547169811321" y="92.52830188679245"/>
      <point x="436.39622641509436" y="99.18867924528301" type="curve"/>
    </contour>
  </outline>
</glyph>
<glyph name="commercialminussign" format="2">
  <advance width="600.0"/>
  <unicode hex="2052"/>
  <outline>
    <contour>
      <point x="148.9245283018868" y="688.7169811320754" type="curve" smooth="yes"/>
      <point x="84.60377358490567" y="688.7169811320754"/>
      <point x="42.528301886792455" y="639.2264150943397"/>
      <point x="42.528301886792455" y="566.4905660377358" type="curve" smooth="yes"/>
      <point x="42.528301886792455" y="562.4905660377358" type="line" smooth="yes"/>
      <point x="42.528301886792455" y="493.1698113207547"/>
      <point x="81.60377358490567" y="449.6792452830189"/>
      <point x="143.50943396226415" y="449.6792452830189" type="curve" smooth="yes"/>
      <point x="209.24528301886792" y="449.6792452830189"/>
      <point x="250.32075471698113" y="496.0"/>
      <point x="250.32075471698113" y="567.3962264150942" type="curve" smooth="yes"/>
      <point x="250.32075471698113" y="571.3962264150942" type="line" smooth="yes"/>
      <point x="250.32075471698113" y="640.6415094339623"/>
      <point x="208.41509433962264" y="688.7169811320754"/>
    </contour>
    <contour>
      <point x="451.92452830188677" y="250.32075471698113" type="curve" smooth="yes"/>
      <point x="388.188679245283" y="250.32075471698113"/>
      <point x="346.11320754716985" y="200.8301886792453"/>
      <point x="346.11320754716985" y="128.09433962264148" type="curve" smooth="yes"/>
      <point x="346.11320754716985" y="124.67924528301886" type="line" smooth="yes"/>
      <point x="346.11320754716985" y="54.77358490566037"/>
      <point x="384.6037735849057" y="11.283018867924529"/>
      <point x="447.0943396226415" y="11.283018867924529" type="curve" smooth="yes"/>
      <point x="512.2452830188679" y="11.283018867924529"/>
      <point x="553.9056603773586" y="57.60377358490565"/>
      <point x="553.9056603773586" y="129.0" type="curve" smooth="yes"/>
      <point x="553.9056603773586" y="133.0" type="line" smooth="yes"/>
      <point x="553.9056603773586" y="202.24528301886795"/>
      <point x="511.4150943396226" y="250.32075471698113"/>
    </contour>
    <contour>
      <point x="338.5660377358491" y="393.45283018867923" type="curve"/>
      <point x="350.8867924528302" y="387.37735849056605"/>
      <point x="365.8679245283019" y="384.7169811320755"/>
      <point x="383.09433962264154" y="384.7169811320755" type="curve" smooth="yes"/>
      <point x="401.5660377358491" y="384.7169811320755"/>
      <point x="412.54716981132077" y="388.1320754716981"/>
      <point x="424.7735849056604" y="402.0188679245283" type="curve" smooth="yes"/>
      <point x="486.2075471698113" y="468.77358490566036"/>
      <point x="543.2830188679245" y="606.7358490566037"/>
      <point x="543.2830188679246" y="669.3018867924528" type="curve" smooth="yes"/>
      <point x="543.2830188679245" y="696.8490566037735"/>
      <point x="532.1320754716982" y="708.9056603773585"/>
      <point x="503.7735849056604" y="708.9056603773585" type="curve" smooth="yes"/>
      <point x="484.9622641509434" y="708.9056603773585"/>
      <point x="468.3962264150943" y="706.4905660377359"/>
      <point x="454.0" y="703.4905660377359" type="curve"/>
      <point x="440.64150943396226" y="598.1509433962265"/>
      <point x="395.0188679245283" y="487.37735849056605"/>
    </contour>
    <contour>
      <point x="261.4339622641509" y="305.9622641509434" type="curve"/>
      <point x="249.11320754716982" y="312.0377358490566"/>
      <point x="234.13207547169813" y="314.6981132075472"/>
      <point x="216.90566037735852" y="314.6981132075472" type="curve" smooth="yes"/>
      <point x="198.43396226415095" y="314.6981132075472"/>
      <point x="187.45283018867926" y="311.2830188679245"/>
      <point x="175.22641509433964" y="297.39622641509436" type="curve" smooth="yes"/>
      <point x="110.86792452830187" y="225.37735849056605"/>
      <point x="56.71698113207547" y="90.9245283018868"/>
      <point x="56.716981132075475" y="30.113207547169814" type="curve" smooth="yes"/>
      <point x="56.716981132075475" y="2.566037735849057"/>
      <point x="67.86792452830188" y="-9.49056603773585"/>
      <point x="96.22641509433963" y="-9.49056603773585" type="curve" smooth="yes"/>
      <point x="115.0377358490566" y="-9.49056603773585"/>
      <point x="131.60377358490564" y="-7.0754716981132075"/>
      <point x="146.0" y="-4.0754716981132075" type="curve"/>
      <point x="159.94339622641508" y="98.33962264150944"/>
      <point x="204.9811320754717" y="212.03773584905662"/>
    </contour>
  </outline>
</glyph>
<glyph name="Euro" format="2">
  <advance width="600.0"/>
  <unicode hex="20AC"/>
  <outline>
    <contour>
      <point x="337.37735849056605" y="-20.0" type="curve" smooth="yes"/>
      <point x="424.0188679245283" y="-20.0"/>
      <point x="483.0188679245283" y="2.2452830188679247"/>
      <point x="517.4528301886793" y="38.264150943396224" type="curve" smooth="yes"/>
      <point x="538.3584905660377" y="60.16981132075472"/>
      <point x="546.6037735849056" y="88.64150943396227"/>
      <point x="546.6037735849056" y="122.16981132075472" type="curve" smooth="yes"/>
      <point x="546.6037735849056" y="135.0754716981132"/>
      <point x="545.0188679245283" y="149.81132075471697"/>
      <point x="539.6037735849056" y="164.71698113207546" type="curve"/>
      <point x="533.6037735849056" y="164.71698113207546" type="line"/>
      <point x="486.8679245283019" y="100.9433962264151"/>
      <point x="431.71698113207543" y="71.9245283018868"/>
      <point x="348.45283018867923" y="71.9245283018868" type="curve" smooth="yes"/>
      <point x="244.11320754716982" y="71.9245283018868"/>
      <point x="195.43396226415095" y="124.60377358490564"/>
      <point x="173.69811320754718" y="200.30188679245282" type="curve"/>
      <point x="172.69811320754718" y="224.60377358490567"/>
      <point x="172.2830188679245" y="251.64150943396226"/>
      <point x="172.2830188679245" y="265.1320754716981" type="curve" smooth="yes"/>
      <point x="172.2830188679245" y="279.0377358490566" type="line" smooth="yes"/>
      <point x="172.2830188679245" y="509.77358490566036"/>
      <point x="265.9245283018868" y="634.3018867924528"/>
      <point x="385.3962264150943" y="634.3018867924528" type="curve" smooth="yes"/>
      <point x="449.41509433962267" y="634.3018867924528"/>
      <point x="484.64150943396226" y="613.4528301886792"/>
      <point x="509.1132075471698" y="570.0754716981132" type="curve"/>
      <point x="515.1132075471697" y="570.0754716981132" type="line"/>
      <point x="528.0188679245283" y="584.3962264150944"/>
      <point x="534.5094339622641" y="604.622641509434"/>
      <point x="534.5094339622641" y="626.433962264151" type="curve" smooth="yes"/>
      <point x="534.5094339622641" y="650.4150943396227"/>
      <point x="528.3396226415094" y="667.5849056603774"/>
      <point x="509.75471698113205" y="685.1698113207547" type="curve" smooth="yes"/>
      <point x="487.49056603773585" y="706.2641509433962"/>
      <point x="450.433962264151" y="720.0"/>
      <point x="391.39622641509436" y="720.0" type="curve" smooth="yes"/>
      <point x="199.35849056603774" y="720.0"/>
      <point x="81.26415094339623" y="531.8867924528303"/>
      <point x="81.26415094339623" y="286.39622641509436" type="curve" smooth="yes"/>
      <point x="81.26415094339623" y="268.58490566037733" type="line" smooth="yes"/>
      <point x="81.26415094339623" y="95.26415094339623"/>
      <point x="174.39622641509436" y="-20.0"/>
    </contour>
    <contour>
      <point x="15.018867924528301" y="439.8867924528302" type="line"/>
      <point x="15.018867924528301" y="436.0566037735849"/>
      <point x="15.018867924528301" y="431.64150943396226"/>
      <point x="15.018867924528301" y="426.15094339622647" type="curve" smooth="yes"/>
      <point x="15.018867924528301" y="388.35849056603774"/>
      <point x="29.49056603773585" y="367.8867924528302"/>
      <point x="66.24528301886792" y="367.8867924528302" type="curve" smooth="yes"/>
      <point x="437.35849056603774" y="367.8867924528302" type="line"/>
      <point x="437.35849056603774" y="371.7169811320755"/>
      <point x="437.35849056603774" y="374.8867924528302"/>
      <point x="437.35849056603774" y="378.7169811320755" type="curve" smooth="yes"/>
      <point x="437.35849056603774" y="418.1509433962264"/>
      <point x="419.49056603773585" y="439.8867924528302"/>
      <point x="372.8490566037736" y="439.8867924528302" type="curve"/>
    </contour>
    <contour>
      <point x="15.018867924528301" y="278.6037735849057" type="line"/>
      <point x="15.018867924528301" y="275.188679245283"/>
      <point x="15.018867924528301" y="270.35849056603774"/>
      <point x="15.018867924528301" y="265.2830188679245" type="curve" smooth="yes"/>
      <point x="15.018867924528301" y="227.50943396226415"/>
      <point x="29.566037735849058" y="207.0188679245283"/>
      <point x="70.81132075471699" y="207.0188679245283" type="curve" smooth="yes"/>
      <point x="437.35849056603774" y="207.0188679245283" type="line"/>
      <point x="437.35849056603774" y="211.26415094339623"/>
      <point x="437.35849056603774" y="215.26415094339623"/>
      <point x="437.35849056603774" y="219.9245283018868" type="curve" smooth="yes"/>
      <point x="437.35849056603774" y="257.6981132075472"/>
      <point x="421.9811320754717" y="278.6037735849057"/>
      <point x="373.4150943396226" y="278.6037735849057" type="curve"/>
    </contour>
  </outline>
</glyph>
<glyph name="peso" format="2">
  <advance width="600.0"/>
  <unicode hex="20B1"/>
  <outline>
    <contour>
      <point x="50.41509433962264" y="700.0" type="curve"/>
      <point x="48.75471698113208" y="691.1886792452831"/>
      <point x="47.924528301886795" y="681.7924528301886"/>
      <point x="47.924528301886795" y="670.4905660377359" type="curve" smooth="yes"/>
      <point x="47.924528301886795" y="629.3018867924528"/>
      <point x="57.41509433962264" y="616.7924528301887"/>
      <point x="81.98113207547169" y="616.7924528301887" type="curve" smooth="yes"/>
      <point x="102.22641509433961" y="616.7924528301887"/>
      <point x="169.64150943396226" y="636.7924528301887"/>
      <point x="271.35849056603774" y="636.7924528301887" type="curve" smooth="yes"/>
      <point x="338.2452830188679" y="636.7924528301887"/>
      <point x="381.24528301886795" y="626.6981132075472"/>
      <point x="418.77358490566036" y="602.6603773584906" type="curve"/>
      <point x="431.7169811320755" y="576.9622641509434"/>
      <point x="436.811320754717" y="535.7924528301886"/>
      <point x="436.811320754717" y="502.41509433962267" type="curve" smooth="yes"/>
      <point x="436.811320754717" y="469.0" type="line" smooth="yes"/>
      <point x="436.811320754717" y="282.66037735849056"/>
      <point x="346.3207547169811" y="217.0754716981132"/>
      <point x="235.94339622641508" y="217.0754716981132" type="curve" smooth="yes"/>
      <point x="207.69811320754718" y="217.0754716981132"/>
      <point x="183.56603773584905" y="219.9056603773585"/>
      <point x="162.49056603773585" y="226.9056603773585" type="curve"/>
      <point x="150.7924528301887" y="162.49056603773585" type="line"/>
      <point x="185.47169811320754" y="162.49056603773585" type="line"/>
      <point x="208.18867924528303" y="143.43396226415095"/>
      <point x="230.9056603773585" y="137.18867924528303"/>
      <point x="262.0377358490566" y="137.18867924528303" type="curve" smooth="yes"/>
      <point x="398.79245283018867" y="137.18867924528303"/>
      <point x="527.0754716981132" y="233.6603773584906"/>
      <point x="527.0754716981132" y="468.3207547169811" type="curve" smooth="yes"/>
      <point x="527.0754716981132" y="503.6792452830189" type="line" smooth="yes"/>
      <point x="527.0754716981132" y="638.9245283018868"/>
      <point x="452.35849056603774" y="720.0"/>
      <point x="275.0" y="720.0" type="curve" smooth="yes"/>
      <point x="203.13207547169813" y="720.0"/>
      <point x="142.43396226415095" y="715.1698113207547"/>
    </contour>
    <contour>
      <point x="157.0943396226415" y="678.188679245283" type="line"/>
      <point x="89.62264150943396" y="678.188679245283" type="line"/>
      <point x="89.62264150943396" y="546.4716981132076"/>
      <point x="89.62264150943396" y="231.13207547169813"/>
      <point x="89.62264150943396" y="74.9245283018868" type="curve" smooth="yes"/>
      <point x="89.62264150943396" y="17.566037735849058"/>
      <point x="105.01886792452831" y="-5.415094339622642"/>
      <point x="156.60377358490564" y="-5.415094339622642" type="curve" smooth="yes"/>
      <point x="169.2452830188679" y="-5.415094339622642"/>
      <point x="177.56603773584908" y="-4.0"/>
      <point x="188.54716981132077" y="-1.169811320754717" type="curve"/>
      <point x="181.30188679245285" y="32.16981132075472"/>
      <point x="179.8867924528302" y="66.75471698113208"/>
      <point x="179.8867924528302" y="101.26415094339622" type="curve" smooth="yes"/>
      <point x="179.05660377358492" y="233.49056603773582"/>
      <point x="179.8867924528302" y="407.377358490566"/>
      <point x="179.8867924528302" y="553.4150943396227" type="curve" smooth="yes"/>
      <point x="179.8867924528302" y="584.0566037735849"/>
      <point x="176.39622641509436" y="603.0377358490566"/>
      <point x="157.0943396226415" y="622.1132075471697" type="curve"/>
    </contour>
    <contour>
      <point x="121.64150943396227" y="537.2830188679245" type="line"/>
      <point x="20.41509433962264" y="537.2830188679245" type="line"/>
      <point x="19.58490566037736" y="528.4716981132076"/>
      <point x="19.169811320754718" y="515.7547169811321"/>
      <point x="19.169811320754718" y="506.52830188679246" type="curve" smooth="yes"/>
      <point x="19.169811320754718" y="477.47169811320754"/>
      <point x="28.735849056603772" y="460.64150943396226"/>
      <point x="58.77358490566038" y="460.64150943396226" type="curve" smooth="yes"/>
      <point x="121.64150943396227" y="460.64150943396226" type="line"/>
    </contour>
    <contour>
      <point x="155.33962264150944" y="480.1509433962264" type="line"/>
      <point x="265.9056603773585" y="463.9622641509434"/>
      <point x="530.5849056603773" y="458.566037735849"/>
      <point x="568.7924528301887" y="458.566037735849" type="curve"/>
      <point x="570.8679245283018" y="467.37735849056605"/>
      <point x="572.1132075471698" y="478.4339622641509"/>
      <point x="572.1132075471698" y="488.9056603773585" type="curve" smooth="yes"/>
      <point x="572.1132075471698" y="523.3584905660377"/>
      <point x="562.1320754716982" y="537.2830188679245"/>
      <point x="527.9056603773585" y="537.2830188679245" type="curve"/>
      <point x="493.8301886792453" y="537.2830188679245"/>
      <point x="187.28301886792454" y="537.2830188679245"/>
      <point x="155.33962264150944" y="537.2830188679245" type="curve"/>
    </contour>
    <contour>
      <point x="121.64150943396227" y="378.92452830188677" type="line"/>
      <point x="20.41509433962264" y="378.92452830188677" type="line"/>
      <point x="19.58490566037736" y="370.11320754716985"/>
      <point x="19.169811320754718" y="357.39622641509436"/>
      <point x="19.169811320754718" y="348.1698113207547" type="curve" smooth="yes"/>
      <point x="19.169811320754718" y="319.1132075471698"/>
      <point x="28.735849056603772" y="302.2830188679245"/>
      <point x="58.77358490566038" y="302.2830188679245" type="curve" smooth="yes"/>
      <point x="121.64150943396227" y="302.2830188679245" type="line"/>
    </contour>
    <contour>
      <point x="155.33962264150944" y="321.79245283018867" type="line"/>
      <point x="266.7358490566038" y="305.60377358490564"/>
      <point x="531.0" y="300.20754716981133"/>
      <point x="568.7924528301887" y="300.20754716981133" type="curve"/>
      <point x="570.8679245283018" y="309.0188679245283"/>
      <point x="572.1132075471698" y="320.0754716981132"/>
      <point x="572.1132075471698" y="330.54716981132077" type="curve" smooth="yes"/>
      <point x="572.1132075471698" y="365.0"/>
      <point x="562.1320754716982" y="378.92452830188677"/>
      <point x="527.9056603773585" y="378.92452830188677" type="curve"/>
      <point x="493.8301886792453" y="378.92452830188677"/>
      <point x="187.28301886792454" y="378.92452830188677"/>
      <point x="155.33962264150944" y="378.92452830188677" type="curve"/>
    </contour>
  </outline>
</glyph>
<glyph name="cedi" format="2">
  <advance width="600.0"/>
  <unicode hex="20B5"/>
  <outline>
    <contour>
      <point x="364.1698113207547" y="626.0" type="curve" smooth="yes"/>
      <point x="447.33962264150944" y="626.0"/>
      <point x="485.0566037735849" y="604.3207547169811"/>
      <point x="512.0188679245283" y="559.2830188679245" type="curve"/>
      <point x="518.0188679245283" y="559.2830188679245" type="line"/>
      <point x="528.0188679245283" y="573.6037735849056"/>
      <point x="533.2641509433962" y="592.1698113207547"/>
      <point x="533.2641509433962" y="617.3018867924528" type="curve" smooth="yes"/>
      <point x="533.2641509433962" y="643.3584905660377"/>
      <point x="524.6037735849056" y="665.9245283018868"/>
      <point x="504.35849056603774" y="684.7547169811321" type="curve" smooth="yes"/>
      <point x="480.0188679245283" y="707.0943396226414"/>
      <point x="441.7169811320755" y="720.0"/>
      <point x="370.45283018867923" y="720.0" type="curve" smooth="yes"/>
      <point x="193.54716981132077" y="720.0"/>
      <point x="72.9622641509434" y="537.7358490566038"/>
      <point x="72.9622641509434" y="286.39622641509436" type="curve" smooth="yes"/>
      <point x="72.9622641509434" y="266.0377358490566" type="line" smooth="yes"/>
      <point x="72.9622641509434" y="103.43396226415095"/>
      <point x="162.77358490566036" y="-20.0"/>
      <point x="330.7358490566038" y="-20.0" type="curve" smooth="yes"/>
      <point x="411.566037735849" y="-20.0"/>
      <point x="468.66037735849056" y="-0.16981132075471694"/>
      <point x="506.5849056603774" y="37.75471698113208" type="curve" smooth="yes"/>
      <point x="526.0754716981132" y="57.24528301886792"/>
      <point x="538.3018867924528" y="84.71698113207547"/>
      <point x="538.3018867924528" y="122.16981132075472" type="curve" smooth="yes"/>
      <point x="538.3018867924528" y="136.24528301886792"/>
      <point x="536.3018867924528" y="151.39622641509433"/>
      <point x="531.3018867924528" y="164.71698113207546" type="curve"/>
      <point x="525.3018867924528" y="164.71698113207546" type="line"/>
      <point x="481.3207547169811" y="99.69811320754718"/>
      <point x="420.0943396226415" y="69.01886792452831"/>
      <point x="329.0754716981132" y="69.01886792452831" type="curve" smooth="yes"/>
      <point x="231.66037735849056" y="69.01886792452831"/>
      <point x="189.45283018867926" y="121.47169811320757"/>
      <point x="167.47169811320754" y="188.2641509433962" type="curve"/>
      <point x="163.56603773584905" y="212.9811320754717"/>
      <point x="162.73584905660377" y="245.83018867924525"/>
      <point x="162.73584905660377" y="270.1132075471698" type="curve" smooth="yes"/>
      <point x="162.73584905660377" y="281.9433962264151" type="line" smooth="yes"/>
      <point x="162.73584905660377" y="502.0"/>
      <point x="244.30188679245282" y="626.0"/>
    </contour>
    <contour>
      <point x="321.9433962264151" y="849.2641509433962" type="curve"/>
      <point x="330.8490566037736" y="823.188679245283"/>
      <point x="333.0943396226415" y="799.9433962264151"/>
      <point x="333.0943396226415" y="759.7735849056603" type="curve" smooth="yes"/>
      <point x="333.0943396226415" y="695.8867924528303"/>
      <point x="324.24528301886795" y="508.1132075471698"/>
      <point x="321.7547169811321" y="422.05660377358487" type="curve" smooth="yes"/>
      <point x="321.33962264150944" y="406.1320754716981"/>
      <point x="327.60377358490564" y="396.5471698113207"/>
      <point x="342.8679245283019" y="393.64150943396226" type="curve" smooth="yes"/>
      <point x="351.0188679245283" y="389.90566037735846"/>
      <point x="363.9056603773585" y="387.4150943396226"/>
      <point x="376.62264150943395" y="386.58490566037733" type="curve"/>
      <point x="393.0754716981132" y="512.1886792452831"/>
      <point x="421.7169811320755" y="705.8490566037736"/>
      <point x="421.7169811320755" y="792.622641509434" type="curve" smooth="yes"/>
      <point x="421.7169811320755" y="839.9245283018868"/>
      <point x="407.0" y="855.7547169811321"/>
      <point x="363.3018867924528" y="855.7547169811321" type="curve" smooth="yes"/>
      <point x="346.66037735849056" y="855.7547169811321"/>
      <point x="332.50943396226415" y="852.9245283018868"/>
    </contour>
    <contour>
      <point x="265.0754716981132" y="-88.47169811320754" type="curve" smooth="yes"/>
      <point x="265.07547169811323" y="-135.35849056603774"/>
      <point x="278.54716981132077" y="-151.18867924528303"/>
      <point x="321.8301886792453" y="-151.18867924528303" type="curve" smooth="yes"/>
      <point x="338.47169811320754" y="-151.18867924528303"/>
      <point x="352.622641509434" y="-148.35849056603774"/>
      <point x="363.188679245283" y="-144.69811320754718" type="curve"/>
      <point x="354.28301886792457" y="-118.62264150943396"/>
      <point x="352.03773584905656" y="-95.37735849056604"/>
      <point x="352.03773584905656" y="-55.20754716981132" type="curve" smooth="yes"/>
      <point x="352.03773584905656" y="13.943396226415093"/>
      <point x="363.2264150943396" y="199.37735849056602"/>
      <point x="365.7169811320755" y="279.0" type="curve" smooth="yes"/>
      <point x="366.1320754716981" y="294.9245283018868"/>
      <point x="361.03773584905656" y="304.50943396226415"/>
      <point x="343.433962264151" y="307.4150943396226" type="curve"/>
      <point x="335.8679245283019" y="311.1509433962264"/>
      <point x="324.811320754717" y="313.22641509433964"/>
      <point x="311.433962264151" y="314.47169811320754" type="curve"/>
      <point x="296.88679245283015" y="208.39622641509436"/>
      <point x="265.0754716981132" y="-10.433962264150942"/>
    </contour>
  </outline>
</glyph>
<glyph name="infinity" format="2">
  <advance width="600.0"/>
  <unicode hex="221E"/>
  <outline>
    <contour>
      <point x="430.33962264150944" y="494.8679245283019" type="line"/>
      <point x="369.0566037735849" y="494.8679245283019"/>
      <point x="331.37735849056605" y="457.6037735849057"/>
      <point x="308.566037735849" y="379.8490566037736" type="curve"/>
      <point x="288.5660377358491" y="379.8490566037736" type="line"/>
      <point x="319.22641509433964" y="287.45283018867923" type="line"/>
      <point x="349.37735849056605" y="379.566037735849"/>
      <point x="380.4528301886793" y="419.7358490566038"/>
      <point x="434.92452830188677" y="419.7358490566038" type="curve"/>
      <point x="437.0943396226415" y="419.7358490566038" type="line" smooth="yes"/>
      <point x="473.7358490566038" y="411.433962264151"/>
      <point x="496.9433962264151" y="378.5849056603774"/>
      <point x="496.9433962264151" y="310.58490566037733" type="curve"/>
      <point x="496.9433962264151" y="237.16981132075472"/>
      <point x="479.8301886792453" y="195.73584905660377"/>
      <point x="438.58490566037733" y="180.67924528301887" type="curve" smooth="yes"/>
      <point x="437.0" y="180.67924528301887" type="line" smooth="yes"/>
      <point x="391.39622641509436" y="184.77358490566039"/>
      <point x="369.64150943396226" y="202.37735849056605"/>
      <point x="345.79245283018867" y="265.4150943396226" type="curve" smooth="yes"/>
      <point x="317.3018867924528" y="343.1320754716981" type="line" smooth="yes"/>
      <point x="274.39622641509436" y="460.7547169811321"/>
      <point x="228.64150943396228" y="494.8679245283019"/>
      <point x="168.47169811320754" y="494.8679245283019" type="curve" smooth="yes"/>
      <point x="164.88679245283018" y="494.8679245283019" type="line" smooth="yes"/>
      <point x="81.52830188679245" y="494.8679245283019"/>
      <point x="32.339622641509436" y="406.60377358490564"/>
      <point x="32.339622641509436" y="291.73584905660374" type="curve" smooth="yes"/>
      <point x="32.339622641509436" y="181.2830188679245"/>
      <point x="79.24528301886792" y="107.64150943396226"/>
      <point x="161.41509433962264" y="107.64150943396226" type="curve" smooth="yes"/>
      <point x="165.41509433962264" y="107.64150943396226" type="line"/>
      <point x="221.26415094339623" y="107.64150943396226"/>
      <point x="266.6981132075471" y="153.0"/>
      <point x="288.6792452830189" y="229.33962264150944" type="curve"/>
      <point x="305.7547169811321" y="229.33962264150944" type="line"/>
      <point x="278.35849056603774" y="327.66037735849056" type="line"/>
      <point x="247.13207547169813" y="230.75471698113208"/>
      <point x="220.77358490566039" y="183.77358490566039"/>
      <point x="169.81132075471697" y="183.77358490566039" type="curve"/>
      <point x="165.9056603773585" y="183.77358490566039"/>
      <point x="162.41509433962267" y="184.18867924528303"/>
      <point x="158.9245283018868" y="185.0188679245283" type="curve" smooth="yes"/>
      <point x="122.60377358490567" y="194.9811320754717"/>
      <point x="102.64150943396227" y="223.56603773584905"/>
      <point x="102.64150943396227" y="290.90566037735846" type="curve"/>
      <point x="102.64150943396227" y="354.2830188679245"/>
      <point x="117.71698113207547" y="417.39622641509436"/>
      <point x="174.52830188679243" y="420.9056603773585" type="curve" smooth="yes"/>
      <point x="176.1132075471698" y="420.9056603773585" type="line" smooth="yes"/>
      <point x="211.9056603773585" y="417.98113207547175"/>
      <point x="233.69811320754718" y="398.62264150943395"/>
      <point x="263.8679245283019" y="314.86792452830184" type="curve" smooth="yes"/>
      <point x="290.7735849056604" y="238.9811320754717" type="line" smooth="yes"/>
      <point x="321.52830188679246" y="151.54716981132074"/>
      <point x="368.0188679245283" y="107.64150943396226"/>
      <point x="428.1132075471698" y="107.64150943396226" type="curve"/>
      <point x="432.9433962264151" y="107.64150943396226" type="line" smooth="yes"/>
      <point x="519.5283018867924" y="107.64150943396226"/>
      <point x="567.6603773584906" y="189.94339622641508"/>
      <point x="567.6603773584906" y="310.58490566037733" type="curve" smooth="yes"/>
      <point x="567.6603773584906" y="424.1509433962264"/>
      <point x="515.3396226415094" y="494.8679245283019"/>
      <point x="434.75471698113205" y="494.8679245283019" type="curve" smooth="yes"/>
    </contour>
  </outline>
</glyph>
<glyph name="notequal" format="2">
  <advance width="600.0"/>
  <unicode hex="2260"/>
  <outline>
    <contour>
      <point x="454.90566037735846" y="589.2452830188679" type="curve"/>
      <point x="440.09433962264154" y="593.3207547169811"/>
      <point x="422.54716981132077" y="596.566037735849"/>
      <point x="403.3207547169811" y="596.566037735849" type="curve" smooth="yes"/>
      <point x="375.3018867924528" y="596.566037735849"/>
      <point x="361.66037735849056" y="586.2641509433962"/>
      <point x="357.0" y="567.2075471698114" type="curve" smooth="yes"/>
      <point x="312.58490566037733" y="383.8301886792453"/>
      <point x="250.43396226415092" y="222.7924528301887"/>
      <point x="163.2830188679245" y="69.49056603773585" type="curve" smooth="yes"/>
      <point x="150.79245283018867" y="46.92452830188679"/>
      <point x="142.54716981132074" y="34.264150943396224"/>
      <point x="126.54716981132074" y="12.264150943396228" type="curve"/>
      <point x="137.52830188679246" y="5.773584905660377"/>
      <point x="154.0" y="2.1132075471698113"/>
      <point x="175.1320754716981" y="2.1132075471698113" type="curve" smooth="yes"/>
      <point x="205.39622641509433" y="2.1132075471698113"/>
      <point x="222.71698113207546" y="11.679245283018869"/>
      <point x="236.77358490566036" y="35.301886792452834" type="curve" smooth="yes"/>
      <point x="332.1698113207547" y="195.0943396226415"/>
      <point x="406.0754716981132" y="380.54716981132077"/>
    </contour>
    <component base="equal"/>
  </outline>
</glyph>
<glyph name="f_f" format="2">
  <advance width="800.0"/>
  <unicode hex="FB00"/>
  <outline>
    <contour>
      <point x="220.71698113207546" y="70.37735849056604" type="curve"/>
      <point x="220.71698113207546" y="194.73584905660377"/>
      <point x="220.71698113207546" y="394.811320754717"/>
      <point x="220.71698113207546" y="515.8490566037736" type="curve" smooth="yes"/>
      <point x="216.9811320754717" y="574.6603773584906"/>
      <point x="218.33962264150944" y="622.2641509433962"/>
      <point x="228.28301886792454" y="654.1698113207547" type="curve" smooth="yes"/>
      <point x="256.1320754716981" y="669.2830188679245"/>
      <point x="283.22641509433964" y="675.9622641509434"/>
      <point x="323.77358490566036" y="675.9622641509434" type="curve" smooth="yes"/>
      <point x="370.6792452830189" y="675.9622641509434"/>
      <point x="406.1698113207547" y="663.9622641509434"/>
      <point x="437.6792452830188" y="645.1132075471698" type="curve"/>
      <point x="443.6792452830189" y="645.1132075471698" type="line"/>
      <point x="446.9245283018868" y="655.0943396226415"/>
      <point x="448.33962264150944" y="668.6603773584906"/>
      <point x="448.33962264150944" y="680.2264150943396" type="curve"/>
      <point x="448.33962264150944" y="703.4528301886793"/>
      <point x="443.6792452830189" y="719.754716981132"/>
      <point x="432.52830188679246" y="731.7358490566037" type="curve" smooth="yes"/>
      <point x="415.6981132075472" y="749.3962264150944"/>
      <point x="387.188679245283" y="764.1509433962265"/>
      <point x="325.0188679245283" y="764.1509433962265" type="curve" smooth="yes"/>
      <point x="205.0188679245283" y="764.1509433962265"/>
      <point x="129.2075471698113" y="685.622641509434"/>
      <point x="129.2075471698113" y="533.4716981132075" type="curve" smooth="yes"/>
      <point x="129.2075471698113" y="390.3018867924528"/>
      <point x="129.2075471698113" y="244.1509433962264"/>
      <point x="129.2075471698113" y="100.98113207547169" type="curve"/>
      <point x="129.2075471698113" y="56.301886792452834"/>
      <point x="124.30188679245282" y="31.169811320754718"/>
      <point x="115.64150943396226" y="0.0" type="curve"/>
      <point x="123.37735849056604" y="-3.2452830188679247"/>
      <point x="135.11320754716982" y="-6.490566037735849"/>
      <point x="152.0754716981132" y="-6.490566037735849" type="curve"/>
      <point x="195.41509433962264" y="-6.490566037735849"/>
      <point x="220.71698113207546" y="13.660377358490566"/>
    </contour>
    <contour>
      <point x="781.2830188679245" y="427.8490566037736" type="line"/>
      <point x="782.9433962264151" y="436.66037735849056"/>
      <point x="784.188679245283" y="448.54716981132077"/>
      <point x="784.188679245283" y="459.8490566037736" type="curve" smooth="yes"/>
      <point x="784.188679245283" y="500.1132075471698"/>
      <point x="771.3018867924528" y="519.3584905660377"/>
      <point x="727.9811320754717" y="519.3584905660377" type="curve"/>
      <point x="15.0" y="519.3584905660377" type="line"/>
      <point x="15.0" y="515.1132075471698"/>
      <point x="15.0" y="510.2830188679245"/>
      <point x="15.0" y="505.622641509434" type="curve" smooth="yes"/>
      <point x="15.0" y="451.24528301886795"/>
      <point x="32.0377358490566" y="427.8490566037736"/>
      <point x="103.58490566037736" y="427.8490566037736" type="curve" smooth="yes"/>
    </contour>
    <contour>
      <point x="586.9433962264152" y="70.37735849056604" type="curve"/>
      <point x="586.9433962264152" y="194.73584905660377"/>
      <point x="586.9433962264152" y="394.811320754717"/>
      <point x="586.9433962264152" y="515.8490566037736" type="curve" smooth="yes"/>
      <point x="583.2075471698114" y="574.6603773584906"/>
      <point x="584.566037735849" y="622.2641509433962"/>
      <point x="594.5094339622641" y="654.1698113207547" type="curve" smooth="yes"/>
      <point x="620.2830188679246" y="669.2830188679245"/>
      <point x="643.4716981132076" y="675.9622641509434"/>
      <point x="686.2641509433963" y="675.9622641509434" type="curve" smooth="yes"/>
      <point x="726.9433962264151" y="675.9622641509434"/>
      <point x="762.8679245283018" y="664.7924528301886"/>
      <point x="797.3018867924528" y="645.1132075471698" type="curve"/>
      <point x="803.3018867924528" y="645.1132075471698" type="line"/>
      <point x="806.5471698113207" y="655.0943396226415"/>
      <point x="807.9622641509434" y="668.6603773584906"/>
      <point x="807.9622641509434" y="680.2264150943396" type="curve"/>
      <point x="807.9622641509434" y="703.4528301886793"/>
      <point x="803.7169811320755" y="720.1698113207547"/>
      <point x="792.1509433962264" y="731.7358490566037" type="curve" smooth="yes"/>
      <point x="774.4905660377358" y="749.3962264150944"/>
      <point x="738.6415094339623" y="764.1509433962265"/>
      <point x="684.6037735849056" y="764.1509433962265" type="curve" smooth="yes"/>
      <point x="571.188679245283" y="764.1509433962265"/>
      <point x="495.4339622641509" y="685.622641509434"/>
      <point x="495.4339622641509" y="533.4716981132075" type="curve" smooth="yes"/>
      <point x="495.4339622641509" y="390.3018867924528"/>
      <point x="495.4339622641509" y="244.1509433962264"/>
      <point x="495.4339622641509" y="100.98113207547169" type="curve"/>
      <point x="495.4339622641509" y="56.301886792452834"/>
      <point x="490.5283018867924" y="31.169811320754718"/>
      <point x="481.86792452830184" y="0.0" type="curve"/>
      <point x="489.60377358490564" y="-3.2452830188679247"/>
      <point x="501.33962264150944" y="-6.490566037735849"/>
      <point x="518.3018867924528" y="-6.490566037735849" type="curve"/>
      <point x="561.6415094339623" y="-6.490566037735849"/>
      <point x="586.9433962264152" y="13.660377358490566"/>
    </contour>
  </outline>
</glyph>
<glyph name="f_f_l" format="2">
  <advance width="1200.0"/>
  <unicode hex="FB04"/>
  <outline>
    <contour>
      <point x="253.73584905660377" y="70.37735849056604" type="curve"/>
      <point x="253.73584905660377" y="194.73584905660377"/>
      <point x="253.73584905660377" y="394.811320754717"/>
      <point x="253.73584905660377" y="515.8490566037736" type="curve" smooth="yes"/>
      <point x="250.0" y="574.6603773584906"/>
      <point x="251.35849056603774" y="622.2641509433962"/>
      <point x="261.3018867924528" y="654.1698113207547" type="curve" smooth="yes"/>
      <point x="291.64150943396226" y="669.6981132075472"/>
      <point x="325.4905660377359" y="675.9622641509434"/>
      <point x="374.3018867924528" y="675.9622641509434" type="curve" smooth="yes"/>
      <point x="422.8679245283019" y="675.9622641509434"/>
      <point x="476.26415094339626" y="663.9622641509434"/>
      <point x="510.6981132075471" y="645.1132075471698" type="curve"/>
      <point x="516.6981132075471" y="645.1132075471698" type="line"/>
      <point x="519.9433962264151" y="655.0943396226415"/>
      <point x="521.3584905660376" y="668.6603773584906"/>
      <point x="521.3584905660376" y="680.2264150943396" type="curve"/>
      <point x="521.3584905660376" y="703.4528301886793"/>
      <point x="517.1132075471697" y="720.1698113207547"/>
      <point x="505.5471698113207" y="731.7358490566037" type="curve" smooth="yes"/>
      <point x="487.88679245283015" y="749.3962264150944"/>
      <point x="445.35849056603774" y="764.1509433962265"/>
      <point x="382.188679245283" y="764.1509433962265" type="curve" smooth="yes"/>
      <point x="236.28301886792454" y="764.1509433962265"/>
      <point x="162.22641509433961" y="685.622641509434"/>
      <point x="162.22641509433961" y="533.4716981132076" type="curve" smooth="yes"/>
      <point x="162.22641509433961" y="390.3018867924528"/>
      <point x="162.22641509433961" y="244.1509433962264"/>
      <point x="162.22641509433961" y="100.98113207547169" type="curve"/>
      <point x="162.22641509433961" y="56.301886792452834"/>
      <point x="157.32075471698113" y="31.169811320754718"/>
      <point x="148.66037735849056" y="0.0" type="curve"/>
      <point x="156.39622641509436" y="-3.2452830188679247"/>
      <point x="168.1320754716981" y="-6.490566037735849"/>
      <point x="185.0943396226415" y="-6.490566037735849" type="curve"/>
      <point x="228.43396226415095" y="-6.490566037735849"/>
      <point x="253.73584905660377" y="13.660377358490566"/>
    </contour>
    <contour>
      <point x="917.7735849056604" y="665.4528301886792" type="curve"/>
      <point x="917.7735849056604" y="488.566037735849"/>
      <point x="917.7735849056604" y="323.1132075471698"/>
      <point x="917.7735849056604" y="152.03773584905662" type="curve" smooth="yes"/>
      <point x="917.7735849056604" y="38.81132075471699"/>
      <point x="977.9245283018868" y="-15.849056603773585"/>
      <point x="1075.6603773584907" y="-15.849056603773585" type="curve" smooth="yes"/>
      <point x="1118.245283018868" y="-15.849056603773585"/>
      <point x="1153.9245283018868" y="-3.1886792452830184"/>
      <point x="1171.0188679245282" y="19.30188679245283" type="curve" smooth="yes"/>
      <point x="1182.0188679245282" y="35.283018867924525"/>
      <point x="1186.6037735849056" y="55.67924528301887"/>
      <point x="1186.6037735849056" y="85.9622641509434" type="curve" smooth="yes"/>
      <point x="1186.6037735849056" y="95.62264150943396"/>
      <point x="1185.6037735849056" y="105.69811320754717"/>
      <point x="1183.7735849056603" y="114.0188679245283" type="curve"/>
      <point x="1177.7735849056603" y="114.0188679245283" type="line"/>
      <point x="1151.188679245283" y="85.26415094339623"/>
      <point x="1120.1698113207547" y="73.58490566037736"/>
      <point x="1086.9622641509434" y="73.58490566037736" type="curve" smooth="yes"/>
      <point x="1058.6792452830189" y="73.58490566037736"/>
      <point x="1036.2264150943397" y="76.9245283018868"/>
      <point x="1019.7924528301887" y="89.69811320754718" type="curve" smooth="yes"/>
      <point x="1011.8679245283018" y="111.45283018867924"/>
      <point x="1009.2830188679245" y="136.45283018867926"/>
      <point x="1009.2830188679245" y="178.1509433962264" type="curve" smooth="yes"/>
      <point x="1009.2830188679245" y="353.47169811320754"/>
      <point x="1009.2830188679245" y="498.188679245283"/>
      <point x="1009.2830188679245" y="659.3962264150944" type="curve" smooth="yes"/>
      <point x="1009.2830188679245" y="703.3962264150944"/>
      <point x="1000.377358490566" y="720.0377358490566"/>
      <point x="979.7358490566037" y="732.2641509433962" type="curve" smooth="yes"/>
      <point x="936.811320754717" y="754.4150943396226"/>
      <point x="873.6603773584907" y="764.1509433962265"/>
      <point x="777.7169811320755" y="764.1509433962265" type="curve" smooth="yes"/>
      <point x="616.7169811320755" y="764.1509433962265"/>
      <point x="541.7358490566038" y="680.9433962264151"/>
      <point x="541.7358490566038" y="545.1698113207548" type="curve" smooth="yes"/>
      <point x="541.7358490566038" y="390.3018867924529"/>
      <point x="541.7358490566038" y="244.1509433962264"/>
      <point x="541.7358490566038" y="100.98113207547169" type="curve"/>
      <point x="541.7358490566038" y="56.301886792452834"/>
      <point x="536.8301886792453" y="31.169811320754718"/>
      <point x="528.1698113207548" y="0.0" type="curve"/>
      <point x="535.9056603773585" y="-3.2452830188679247"/>
      <point x="547.6415094339623" y="-6.490566037735849"/>
      <point x="564.6037735849056" y="-6.490566037735849" type="curve"/>
      <point x="607.9433962264151" y="-6.490566037735849"/>
      <point x="633.2452830188679" y="13.660377358490566"/>
      <point x="633.2452830188679" y="70.37735849056604" type="curve"/>
      <point x="633.2452830188679" y="194.73584905660377"/>
      <point x="633.2452830188679" y="394.811320754717"/>
      <point x="633.2452830188679" y="515.8490566037735" type="curve" smooth="yes"/>
      <point x="629.5094339622641" y="574.6603773584906"/>
      <point x="630.2830188679246" y="619.3396226415094"/>
      <point x="640.2264150943396" y="651.2452830188679" type="curve" smooth="yes"/>
      <point x="674.7169811320754" y="668.6981132075471"/>
      <point x="723.9433962264152" y="675.9622641509434"/>
      <point x="795.9245283018869" y="675.9622641509434" type="curve" smooth="yes"/>
      <point x="846.5094339622642" y="675.9622641509434"/>
      <point x="890.2641509433963" y="671.0377358490566"/>
    </contour>
    <contour>
      <point x="817.433962264151" y="427.8490566037736" type="line"/>
      <point x="819.0943396226415" y="436.66037735849056"/>
      <point x="820.3396226415094" y="448.54716981132077"/>
      <point x="820.3396226415094" y="459.8490566037736" type="curve" smooth="yes"/>
      <point x="820.3396226415094" y="500.1132075471698"/>
      <point x="807.4528301886793" y="519.3584905660377"/>
      <point x="764.1320754716982" y="519.3584905660377" type="curve" smooth="yes"/>
      <point x="44.24528301886792" y="519.3584905660377" type="line"/>
      <point x="44.24528301886792" y="515.1132075471698"/>
      <point x="44.24528301886792" y="510.2830188679245"/>
      <point x="44.24528301886792" y="505.622641509434" type="curve" smooth="yes"/>
      <point x="44.24528301886792" y="451.24528301886795"/>
      <point x="61.283018867924525" y="427.8490566037736"/>
      <point x="132.83018867924528" y="427.8490566037736" type="curve" smooth="yes"/>
    </contour>
  </outline>
</glyph>
<glyph name="Q.titl" format="2">
  <advance width="650.0"/>
  <outline>
    <contour>
      <point x="330.41509433962267" y="720.0" type="curve" smooth="yes"/>
      <point x="157.28301886792454" y="720.0"/>
      <point x="64.62264150943396" y="589.5849056603773"/>
      <point x="64.62264150943396" y="342.47169811320754" type="curve" smooth="yes"/>
      <point x="64.62264150943396" y="305.4150943396226" type="line" smooth="yes"/>
      <point x="64.62264150943396" y="80.01886792452831"/>
      <point x="168.7924528301887" y="-17.92452830188679"/>
      <point x="321.6603773584906" y="-17.92452830188679" type="curve" smooth="yes"/>
      <point x="418.622641509434" y="-17.92452830188679"/>
      <point x="508.9622641509434" y="-12.924528301886792"/>
      <point x="590.2830188679245" y="-2.339622641509434" type="curve"/>
      <point x="594.5283018867924" y="9.566037735849058"/>
      <point x="597.3584905660377" y="25.547169811320757"/>
      <point x="597.3584905660377" y="39.867924528301884" type="curve" smooth="yes"/>
      <point x="597.3584905660377" y="69.13207547169813"/>
      <point x="587.4528301886793" y="83.50943396226415"/>
      <point x="561.2452830188679" y="83.50943396226415" type="curve" smooth="yes"/>
      <point x="521.7735849056604" y="83.50943396226415"/>
      <point x="453.6037735849057" y="66.26415094339623"/>
      <point x="357.2075471698113" y="66.26415094339623" type="curve" smooth="yes"/>
      <point x="298.50943396226415" y="66.26415094339623"/>
      <point x="260.0754716981132" y="71.84905660377359"/>
      <point x="224.81132075471697" y="89.43396226415094" type="curve"/>
      <point x="179.33962264150944" y="128.69811320754718"/>
      <point x="156.13207547169813" y="211.9622641509434"/>
      <point x="156.13207547169813" y="323.7924528301887" type="curve" smooth="yes"/>
      <point x="156.13207547169813" y="342.05660377358487" type="line" smooth="yes"/>
      <point x="156.13207547169813" y="525.7547169811321"/>
      <point x="207.96226415094338" y="628.9056603773586"/>
      <point x="332.75471698113205" y="628.9056603773586" type="curve" smooth="yes"/>
      <point x="368.0" y="628.9056603773586"/>
      <point x="394.92452830188677" y="623.9056603773586"/>
      <point x="422.0943396226415" y="612.0754716981132" type="curve"/>
      <point x="478.6792452830189" y="559.622641509434"/>
      <point x="493.8679245283019" y="485.7547169811321"/>
      <point x="493.8679245283019" y="362.2830188679245" type="curve" smooth="yes"/>
      <point x="493.8679245283019" y="351.622641509434" type="line" smooth="yes"/>
      <point x="493.8679245283019" y="180.03773584905662"/>
      <point x="451.75471698113205" y="112.28301886792454"/>
      <point x="335.35849056603774" y="52.26415094339623" type="curve"/>
      <point x="482.5283018867924" y="60.509433962264154" type="line"/>
      <point x="475.5283018867924" y="81.16981132075473" type="line"/>
      <point x="550.2641509433962" y="130.43396226415095"/>
      <point x="585.377358490566" y="211.66037735849056"/>
      <point x="585.377358490566" y="364.0377358490566" type="curve" smooth="yes"/>
      <point x="585.377358490566" y="390.566037735849" type="line" smooth="yes"/>
      <point x="585.377358490566" y="597.4339622641509"/>
      <point x="495.6603773584906" y="720.0"/>
    </contour>
  </outline>
</glyph>
<glyph name="at.alt" format="2">
  <advance width="1050.0"/>
  <outline>
    <contour>
      <point x="87.60377358490567" y="239.43396226415095" type="curve" smooth="yes"/>
      <point x="87.60377358490567" y="229.94339622641508" type="line" smooth="yes"/>
      <point x="87.60377358490567" y="-24.113207547169814"/>
      <point x="240.58490566037736" y="-159.24528301886792"/>
      <point x="543.7547169811321" y="-159.24528301886792" type="curve" smooth="yes"/>
      <point x="674.377358490566" y="-159.24528301886792"/>
      <point x="776.4528301886792" y="-134.54716981132074"/>
      <point x="804.7735849056604" y="-114.39622641509433" type="curve" smooth="yes"/>
      <point x="821.5849056603773" y="-101.99999999999999"/>
      <point x="827.5849056603773" y="-68.86792452830187"/>
      <point x="827.5849056603773" y="-43.98113207547169" type="curve" smooth="yes"/>
      <point x="827.5849056603773" y="-38.490566037735846"/>
      <point x="827.5849056603773" y="-33.16981132075472"/>
      <point x="827.5849056603773" y="-27.679245283018858" type="curve"/>
      <point x="821.5849056603773" y="-27.679245283018858" type="line"/>
      <point x="727.8679245283018" y="-62.69811320754717"/>
      <point x="635.0943396226414" y="-76.03773584905659"/>
      <point x="523.245283018868" y="-76.03773584905659" type="curve" smooth="yes"/>
      <point x="421.3207547169811" y="-76.03773584905659"/>
      <point x="332.9811320754717" y="-54.60377358490565"/>
      <point x="261.4716981132076" y="-17.094339622641513" type="curve" smooth="yes"/>
      <point x="211.33962264150944" y="34.339622641509436"/>
      <point x="174.96226415094338" y="123.30188679245283"/>
      <point x="174.96226415094338" y="226.43396226415095" type="curve" smooth="yes"/>
      <point x="174.96226415094338" y="235.8490566037736" type="line" smooth="yes"/>
      <point x="174.96226415094338" y="493.62264150943395"/>
      <point x="335.05660377358487" y="655.0943396226415"/>
      <point x="570.0754716981131" y="655.0943396226415" type="curve" smooth="yes"/>
      <point x="640.0754716981132" y="655.0943396226415"/>
      <point x="696.9056603773586" y="645.3396226415094"/>
      <point x="748.7547169811321" y="622.9245283018868" type="curve"/>
      <point x="785.811320754717" y="572.0"/>
      <point x="801.3396226415094" y="537.9433962264151"/>
      <point x="801.3396226415094" y="451.9056603773585" type="curve" smooth="yes"/>
      <point x="801.3396226415094" y="356.13207547169816"/>
      <point x="801.3396226415094" y="211.0566037735849"/>
      <point x="801.3396226415094" y="115.28301886792454" type="curve" smooth="yes"/>
      <point x="801.3396226415094" y="62.60377358490567"/>
      <point x="852.1509433962265" y="45.867924528301884"/>
      <point x="901.1698113207548" y="45.867924528301884" type="curve"/>
      <point x="910.9056603773585" y="45.867924528301884" type="line"/>
      <point x="902.566037735849" y="78.77358490566037"/>
      <point x="901.1509433962265" y="98.73584905660378"/>
      <point x="901.1509433962265" y="139.0943396226415" type="curve" smooth="yes"/>
      <point x="901.1509433962265" y="230.60377358490564"/>
      <point x="901.1509433962265" y="371.2452830188679"/>
      <point x="901.1509433962265" y="442.8679245283019" type="curve" smooth="yes"/>
      <point x="901.1509433962265" y="619.6415094339623"/>
      <point x="799.2452830188679" y="746.6037735849058"/>
      <point x="574.4150943396227" y="746.6037735849058" type="curve" smooth="yes"/>
      <point x="285.83018867924534" y="746.6037735849058"/>
      <point x="87.60377358490567" y="540.7358490566038"/>
    </contour>
    <contour>
      <point x="829.7169811320755" y="292.35849056603774" type="line"/>
      <point x="764.5094339622641" y="199.07547169811323"/>
      <point x="684.4716981132076" y="144.0754716981132"/>
      <point x="595.9622641509434" y="144.0754716981132" type="curve" smooth="yes"/>
      <point x="514.3962264150944" y="144.0754716981132"/>
      <point x="477.09433962264154" y="188.9622641509434"/>
      <point x="477.09433962264154" y="261.7169811320755" type="curve" smooth="yes"/>
      <point x="477.09433962264154" y="268.62264150943395" type="line" smooth="yes"/>
      <point x="477.09433962264154" y="316.8301886792453"/>
      <point x="485.1886792452831" y="348.96226415094344"/>
      <point x="506.47169811320754" y="384.90566037735846" type="curve" smooth="yes"/>
      <point x="537.811320754717" y="401.33962264150944"/>
      <point x="572.3396226415094" y="412.188679245283"/>
      <point x="635.5283018867924" y="412.188679245283" type="curve" smooth="yes"/>
      <point x="712.2264150943397" y="412.188679245283"/>
      <point x="761.4716981132075" y="391.1509433962264"/>
      <point x="812.9245283018869" y="359.33962264150944" type="curve"/>
      <point x="821.6415094339624" y="438.2830188679245" type="line"/>
      <point x="794.9245283018869" y="438.2830188679245" type="line"/>
      <point x="754.566037735849" y="466.0377358490566"/>
      <point x="699.4528301886793" y="492.90566037735846"/>
      <point x="625.0377358490566" y="492.90566037735846" type="curve" smooth="yes"/>
      <point x="469.7358490566038" y="492.90566037735846"/>
      <point x="375.2830188679245" y="387.60377358490564"/>
      <point x="375.2830188679245" y="261.1320754716981" type="curve" smooth="yes"/>
      <point x="375.2830188679245" y="254.47169811320757" type="line" smooth="yes"/>
      <point x="375.2830188679245" y="124.18867924528303"/>
      <point x="455.6792452830189" y="48.41509433962264"/>
      <point x="571.3584905660377" y="48.41509433962264" type="curve" smooth="yes"/>
      <point x="671.811320754717" y="48.41509433962264"/>
      <point x="747.754716981132" y="94.62264150943395"/>
      <point x="795.754716981132" y="169.16981132075472" type="curve"/>
      <point x="837.6037735849056" y="169.16981132075472" type="line"/>
    </contour>
  </outline>
</glyph>
<glyph name="braceleft.cap" format="2">
  <advance width="600.0"/>
  <outline>
    <contour>
      <point x="372.0" y="171.0566037735849" type="curve" smooth="yes"/>
      <point x="372.0" y="240.62264150943395"/>
      <point x="336.0566037735849" y="278.1132075471698"/>
      <point x="272.8490566037736" y="307.03773584905656" type="curve"/>
      <point x="272.8490566037736" y="313.0377358490566" type="line"/>
      <point x="334.811320754717" y="340.0377358490566"/>
      <point x="372.0" y="385.5849056603774"/>
      <point x="372.0" y="459.47169811320754" type="curve" smooth="yes"/>
      <point x="372.0" y="533.7547169811321"/>
      <point x="330.0188679245283" y="572.7735849056603"/>
      <point x="317.1509433962264" y="616.0" type="curve" smooth="yes"/>
      <point x="316.3207547169811" y="620.5849056603773"/>
      <point x="315.66037735849056" y="625.5849056603773"/>
      <point x="315.8301886792453" y="631.0" type="curve"/>
      <point x="337.90566037735846" y="655.5283018867924"/>
      <point x="388.8679245283019" y="667.377358490566"/>
      <point x="444.92452830188677" y="667.377358490566" type="curve" smooth="yes"/>
      <point x="471.2452830188679" y="667.377358490566"/>
      <point x="487.3962264150943" y="664.9622641509434"/>
      <point x="504.566037735849" y="659.377358490566" type="curve"/>
      <point x="510.5660377358491" y="659.377358490566" type="line"/>
      <point x="513.9811320754718" y="669.1132075471698"/>
      <point x="515.3962264150944" y="680.5094339622641"/>
      <point x="515.3962264150944" y="693.6603773584906" type="curve" smooth="yes"/>
      <point x="515.3962264150944" y="728.7735849056604"/>
      <point x="492.8490566037736" y="758.3018867924529"/>
      <point x="455.0188679245283" y="758.3018867924529" type="curve"/>
      <point x="450.4339622641509" y="758.3018867924529" type="line" smooth="yes"/>
      <point x="326.60377358490564" y="758.3018867924529"/>
      <point x="236.8490566037736" y="715.2452830188679"/>
      <point x="236.8490566037736" y="642.1509433962265" type="curve" smooth="yes"/>
      <point x="236.8490566037736" y="636.9056603773585" type="line" smooth="yes"/>
      <point x="236.8490566037736" y="581.9622641509434"/>
      <point x="284.22641509433964" y="547.7547169811321"/>
      <point x="284.22641509433964" y="468.66037735849056" type="curve" smooth="yes"/>
      <point x="284.22641509433964" y="396.8867924528302"/>
      <point x="231.7169811320755" y="358.1132075471698"/>
      <point x="134.24528301886792" y="358.1132075471698" type="curve" smooth="yes"/>
      <point x="117.9245283018868" y="358.1132075471698" type="line"/>
      <point x="114.67924528301887" y="349.96226415094344"/>
      <point x="113.26415094339623" y="340.88679245283015"/>
      <point x="113.26415094339623" y="328.83018867924534" type="curve" smooth="yes"/>
      <point x="113.26415094339623" y="293.81132075471703"/>
      <point x="124.49056603773586" y="272.0"/>
      <point x="152.52830188679243" y="272.0" type="curve" smooth="yes"/>
      <point x="155.77358490566036" y="272.0" type="line" smooth="yes"/>
      <point x="242.0943396226415" y="272.0"/>
      <point x="282.1509433962264" y="237.45283018867923"/>
      <point x="282.1509433962264" y="180.96226415094338" type="curve" smooth="yes"/>
      <point x="282.1509433962264" y="102.28301886792454"/>
      <point x="231.8679245283019" y="66.39622641509433"/>
      <point x="231.8679245283019" y="-0.5849056603773586" type="curve" smooth="yes"/>
      <point x="231.8679245283019" y="-4.660377358490566" type="line" smooth="yes"/>
      <point x="231.8679245283019" y="-89.41509433962264"/>
      <point x="313.6792452830189" y="-120.30188679245282"/>
      <point x="443.77358490566036" y="-120.30188679245282" type="curve" smooth="yes"/>
      <point x="449.35849056603774" y="-120.30188679245282" type="line" smooth="yes"/>
      <point x="493.60377358490564" y="-120.30188679245282"/>
      <point x="514.1509433962265" y="-88.62264150943396"/>
      <point x="514.1509433962265" y="-33.99999999999999" type="curve" smooth="yes"/>
      <point x="514.1509433962265" y="-25.075471698113205"/>
      <point x="513.5660377358491" y="-20.150943396226413"/>
      <point x="512.3962264150944" y="-14.981132075471699" type="curve"/>
      <point x="507.2264150943396" y="-14.981132075471699" type="line"/>
      <point x="481.0188679245283" y="-24.716981132075475"/>
      <point x="454.3207547169811" y="-28.79245283018868"/>
      <point x="428.50943396226415" y="-28.79245283018868" type="curve" smooth="yes"/>
      <point x="375.1509433962264" y="-28.79245283018868"/>
      <point x="340.75471698113205" y="-23.113207547169807"/>
      <point x="320.811320754717" y="-4.150943396226413" type="curve"/>
      <point x="319.64150943396226" y="1.0188679245283012"/>
      <point x="320.05660377358487" y="8.433962264150946"/>
      <point x="320.88679245283015" y="16.0188679245283" type="curve" smooth="yes"/>
      <point x="326.2830188679245" y="56.75471698113208"/>
      <point x="372.0" y="99.67924528301887"/>
    </contour>
  </outline>
</glyph>
<glyph name="brevecomb.case" format="2">
  <anchor x="0.0" y="711.4150943396227" name="_top"/>
  <anchor x="0.0" y="880.6037735849058" name="top"/>
  <anchor x="0.0" y="954.6037735849058" name="hook"/>
  <outline>
    <contour>
      <point x="118.30188679245282" y="943.3018867924528" type="curve"/>
      <point x="98.05660377358491" y="894.6037735849056"/>
      <point x="65.71698113207546" y="871.3396226415094"/>
      <point x="0.0" y="866.1698113207548" type="curve"/>
      <point x="-65.71698113207546" y="871.3396226415094"/>
      <point x="-98.05660377358491" y="894.6037735849056"/>
      <point x="-118.30188679245282" y="943.3018867924528" type="curve"/>
      <point x="-140.8490566037736" y="942.132075471698"/>
      <point x="-156.83018867924528" y="938.132075471698"/>
      <point x="-170.0566037735849" y="929.6415094339623" type="curve" smooth="yes"/>
      <point x="-178.2075471698113" y="923.9811320754717"/>
      <point x="-179.62264150943395" y="915.0754716981132"/>
      <point x="-175.45283018867923" y="903.0754716981131" type="curve" smooth="yes"/>
      <point x="-152.11320754716982" y="834.7735849056604"/>
      <point x="-94.9622641509434" y="793.132075471698"/>
      <point x="-4.0" y="793.132075471698" type="curve" smooth="yes"/>
      <point x="4.0" y="793.132075471698" type="line" smooth="yes"/>
      <point x="94.9622641509434" y="793.132075471698"/>
      <point x="152.11320754716982" y="834.7735849056604"/>
      <point x="175.45283018867923" y="903.0754716981131" type="curve" smooth="yes"/>
      <point x="179.62264150943395" y="915.0754716981132"/>
      <point x="178.2075471698113" y="923.9811320754717"/>
      <point x="170.0566037735849" y="929.6415094339623" type="curve" smooth="yes"/>
      <point x="156.83018867924528" y="938.132075471698"/>
      <point x="140.8490566037736" y="942.132075471698"/>
    </contour>
  </outline>
</glyph>
<glyph name="dotlessi.italic" format="2">
  <advance width="350.0"/>
  <anchor x="171.49056603773585" y="542.8113207547169" name="top"/>
  <anchor x="193.8867924528302" y="0.0" name="bottom"/>
  <anchor x="294.1509433962264" y="4.584905660377358" name="ogonek"/>
  <anchor x="172.49056603773585" y="584.0" name="hook"/>
  <outline>
    <contour>
      <point x="30.92452830188679" y="531.2264150943397" type="curve"/>
      <point x="27.67924528301887" y="518.3396226415094"/>
      <point x="26.67924528301887" y="509.4339622641509"/>
      <point x="26.67924528301887" y="495.7924528301887" type="curve" smooth="yes"/>
      <point x="26.67924528301887" y="461.8490566037736"/>
      <point x="36.339622641509436" y="439.7169811320755"/>
      <point x="53.83018867924528" y="439.7169811320755" type="curve" smooth="yes"/>
      <point x="67.90566037735849" y="439.7169811320755"/>
      <point x="88.16981132075472" y="449.8867924528302"/>
      <point x="121.15094339622641" y="457.7169811320755" type="curve"/>
      <point x="125.98113207547169" y="455.1320754716981" type="line"/>
      <point x="125.98113207547169" y="352.33962264150944"/>
      <point x="125.98113207547169" y="254.2830188679245"/>
      <point x="125.98113207547169" y="139.03773584905662" type="curve" smooth="yes"/>
      <point x="125.98113207547169" y="51.54716981132076"/>
      <point x="172.1132075471698" y="-10.584905660377359"/>
      <point x="248.39622641509436" y="-10.584905660377359" type="curve" smooth="yes"/>
      <point x="274.39622641509436" y="-10.584905660377359"/>
      <point x="295.73584905660374" y="-3.4150943396226414"/>
      <point x="310.39622641509436" y="11.245283018867925" type="curve" smooth="yes"/>
      <point x="323.47169811320754" y="24.32075471698113"/>
      <point x="330.9622641509434" y="48.0377358490566"/>
      <point x="330.9622641509434" y="79.15094339622641" type="curve" smooth="yes"/>
      <point x="330.9622641509434" y="88.81132075471697"/>
      <point x="329.9622641509434" y="98.88679245283018"/>
      <point x="328.1320754716981" y="107.20754716981132" type="curve"/>
      <point x="322.1320754716981" y="107.20754716981132" type="line"/>
      <point x="302.7169811320755" y="89.11320754716982"/>
      <point x="284.37735849056605" y="78.84905660377359"/>
      <point x="259.2830188679245" y="78.84905660377359" type="curve" smooth="yes"/>
      <point x="245.35849056603774" y="78.84905660377359"/>
      <point x="234.18867924528303" y="80.84905660377359"/>
      <point x="225.0943396226415" y="89.11320754716982" type="curve" smooth="yes"/>
      <point x="218.66037735849056" y="111.62264150943396"/>
      <point x="217.49056603773585" y="139.2075471698113"/>
      <point x="217.49056603773585" y="183.41509433962264" type="curve" smooth="yes"/>
      <point x="217.49056603773585" y="284.64150943396226"/>
      <point x="217.49056603773585" y="385.45283018867923"/>
      <point x="217.49056603773585" y="500.7924528301887" type="curve" smooth="yes"/>
      <point x="217.49056603773585" y="525.0188679245283"/>
      <point x="189.60377358490567" y="541.2264150943397"/>
      <point x="130.64150943396226" y="541.2264150943397" type="curve" smooth="yes"/>
      <point x="98.66037735849056" y="541.2264150943397"/>
      <point x="69.88679245283019" y="537.811320754717"/>
    </contour>
  </outline>
</glyph>
<glyph name="equal_slash_equal.code" format="2">
  <advance width="1800.0"/>
  <outline>
    <contour>
      <point x="1696.754716981132" y="417.54716981132077" type="line"/>
      <point x="1699.0" y="429.77358490566036"/>
      <point x="1700.8301886792453" y="443.41509433962267"/>
      <point x="1700.8301886792453" y="455.39622641509436" type="curve" smooth="yes"/>
      <point x="1700.8301886792453" y="493.7358490566038"/>
      <point x="1683.8301886792453" y="509.0566037735849"/>
      <point x="1645.3773584905662" y="509.0566037735849" type="curve" smooth="yes"/>
      <point x="95.84905660377359" y="509.0566037735849" type="line"/>
      <point x="95.84905660377359" y="504.81132075471703"/>
      <point x="95.84905660377359" y="499.9811320754717"/>
      <point x="95.84905660377359" y="495.3207547169811" type="curve" smooth="yes"/>
      <point x="95.84905660377359" y="434.11320754716985"/>
      <point x="109.58490566037736" y="417.54716981132077"/>
      <point x="159.56603773584908" y="417.54716981132077" type="curve" smooth="yes"/>
    </contour>
    <contour>
      <point x="1700.8301886792453" y="167.54716981132074" type="line"/>
      <point x="1700.8301886792453" y="171.7924528301887"/>
      <point x="1700.8301886792453" y="176.62264150943395"/>
      <point x="1700.8301886792453" y="181.28301886792454" type="curve" smooth="yes"/>
      <point x="1700.8301886792453" y="237.9245283018868"/>
      <point x="1679.622641509434" y="259.0566037735849"/>
      <point x="1624.2452830188681" y="259.0566037735849" type="curve" smooth="yes"/>
      <point x="99.9245283018868" y="259.0566037735849" type="line"/>
      <point x="97.67924528301887" y="247.41509433962264"/>
      <point x="95.84905660377359" y="233.77358490566039"/>
      <point x="95.84905660377359" y="221.20754716981133" type="curve" smooth="yes"/>
      <point x="95.84905660377359" y="186.60377358490567"/>
      <point x="120.32075471698114" y="167.54716981132074"/>
      <point x="176.62264150943395" y="167.54716981132074" type="curve" smooth="yes"/>
    </contour>
    <contour>
      <point x="1060.8490566037735" y="764.5660377358491" type="curve"/>
      <point x="1046.3773584905662" y="771.8867924528303"/>
      <point x="1034.3962264150944" y="775.1320754716982"/>
      <point x="1017.5849056603773" y="775.1320754716982" type="curve" smooth="yes"/>
      <point x="984.6603773584906" y="775.1320754716982"/>
      <point x="958.5283018867924" y="764.245283018868"/>
      <point x="950.2075471698113" y="736.5283018867925" type="curve" smooth="yes"/>
      <point x="871.6415094339623" y="457.49056603773585"/>
      <point x="762.2452830188679" y="199.62264150943395"/>
      <point x="620.6792452830189" y="-34.15094339622641" type="curve" smooth="yes"/>
      <point x="600.6037735849056" y="-66.81132075471699"/>
      <point x="584.6981132075472" y="-89.30188679245283"/>
      <point x="564.4528301886793" y="-110.54716981132076" type="curve"/>
      <point x="579.6792452830189" y="-119.52830188679246"/>
      <point x="594.9056603773585" y="-123.18867924528303"/>
      <point x="615.622641509434" y="-123.18867924528303" type="curve" smooth="yes"/>
      <point x="649.9056603773585" y="-123.18867924528303"/>
      <point x="676.1132075471698" y="-109.47169811320755"/>
      <point x="698.9056603773585" y="-74.9433962264151" type="curve"/>
      <point x="853.4716981132076" y="168.0"/>
      <point x="973.622641509434" y="447.6981132075472"/>
    </contour>
  </outline>
</glyph>
<glyph name="gravecombviet.case" format="2">
  <anchor x="0.0" y="712.0" name="_top"/>
  <anchor x="0.0" y="711.0" name="_side"/>
  <outline>
    <contour>
      <point x="-51.15094339622642" y="934.0" type="curve"/>
      <point x="-73.77358490566037" y="934.0"/>
      <point x="-89.24528301886792" y="932.1698113207547"/>
      <point x="-104.30188679245283" y="927.9245283018868" type="curve" smooth="yes"/>
      <point x="-122.9433962264151" y="922.0943396226414"/>
      <point x="-128.0188679245283" y="907.3584905660377"/>
      <point x="-119.45283018867926" y="884.9811320754717" type="curve" smooth="yes"/>
      <point x="-106.20754716981132" y="849.1509433962265"/>
      <point x="-83.35849056603774" y="820.5471698113207"/>
      <point x="-53.509433962264154" y="796.4528301886792" type="curve" smooth="yes"/>
      <point x="-36.77358490566038" y="782.7169811320755"/>
      <point x="-20.452830188679247" y="777.3018867924528"/>
      <point x="-2.2264150943396235" y="777.3018867924528" type="curve" smooth="yes"/>
      <point x="16.0" y="777.3018867924528"/>
      <point x="29.22641509433962" y="780.7169811320755"/>
      <point x="46.60377358490566" y="790.377358490566" type="curve"/>
      <point x="-1.4905660377358476" y="827.4528301886793"/>
      <point x="-35.075471698113205" y="876.7735849056604"/>
    </contour>
  </outline>
</glyph>
<glyph name="l.mono" format="2">
  <advance width="350.0"/>
  <anchor x="154.9811320754717" y="736.2264150943396" name="top"/>
  <anchor x="212.49056603773585" y="-1.0" name="bottom"/>
  <anchor x="304.2264150943396" y="400.0" name="dot"/>
  <anchor x="304.22641509433964" y="711.0" name="caronslovak"/>
  <anchor x="172.47169811320754" y="361.6981132075472" name="slash"/>
  <outline>
    <contour>
      <point x="41.77358490566038" y="91.50943396226417" type="line"/>
      <point x="38.943396226415096" y="82.60377358490567"/>
      <point x="36.69811320754717" y="69.54716981132076"/>
      <point x="36.69811320754717" y="55.320754716981135" type="curve" smooth="yes"/>
      <point x="36.69811320754717" y="18.39622641509434"/>
      <point x="54.15094339622642" y="0.0"/>
      <point x="87.69811320754718" y="0.0" type="curve" smooth="yes"/>
      <point x="316.8301886792453" y="0.0" type="line"/>
      <point x="319.4905660377359" y="9.471698113207546"/>
      <point x="320.9056603773585" y="20.77358490566038"/>
      <point x="320.9056603773585" y="31.24528301886793" type="curve" smooth="yes"/>
      <point x="320.9056603773585" y="68.77358490566039"/>
      <point x="290.41509433962267" y="91.50943396226417"/>
      <point x="229.9245283018868" y="91.50943396226417" type="curve"/>
    </contour>
    <contour>
      <point x="32.509433962264154" y="750.0" type="curve"/>
      <point x="29.679245283018865" y="740.433962264151"/>
      <point x="27.433962264150942" y="726.5471698113208"/>
      <point x="27.433962264150942" y="712.9056603773586" type="curve" smooth="yes"/>
      <point x="27.433962264150942" y="668.1509433962265"/>
      <point x="41.66037735849057" y="656.0754716981132"/>
      <point x="60.15094339622642" y="656.0754716981132" type="curve" smooth="yes"/>
      <point x="77.9245283018868" y="656.0754716981132"/>
      <point x="110.22641509433961" y="663.0"/>
      <point x="132.16981132075472" y="672.7547169811321" type="curve"/>
      <point x="137.16981132075472" y="669.0" type="line"/>
      <point x="137.16981132075472" y="503.8679245283019"/>
      <point x="137.16981132075472" y="335.07547169811323"/>
      <point x="137.16981132075472" y="170.77358490566036" type="curve" smooth="yes"/>
      <point x="137.16981132075472" y="132.1509433962264"/>
      <point x="141.83018867924528" y="115.32075471698113"/>
      <point x="152.73584905660377" y="96.33962264150944" type="curve"/>
      <point x="140.58490566037736" y="70.79245283018868" type="line"/>
      <point x="228.67924528301887" y="70.79245283018868" type="line"/>
      <point x="228.67924528301887" y="280.54716981132077"/>
      <point x="228.67924528301887" y="495.6981132075472"/>
      <point x="228.67924528301887" y="705.4528301886793" type="curve" smooth="yes"/>
      <point x="228.67924528301887" y="742.1320754716982"/>
      <point x="203.62264150943398" y="760.0"/>
      <point x="156.26415094339623" y="760.0" type="curve"/>
      <point x="123.46377714486604" y="760.0"/>
      <point x="74.9245283018868" y="756.8301886792453"/>
    </contour>
  </outline>
</glyph>
<glyph name="less_equal.code" format="2">
  <advance width="1200.0"/>
  <outline>
    <contour>
      <point x="239.92452830188677" y="231.88679245283018" type="curve"/>
      <point x="237.2641509433962" y="219.41509433962264"/>
      <point x="235.01886792452828" y="199.9245283018868"/>
      <point x="235.01886792452828" y="185.2830188679245" type="curve" smooth="yes"/>
      <point x="235.01886792452828" y="150.2641509433962"/>
      <point x="245.83018867924528" y="133.96226415094338"/>
      <point x="301.66037735849056" y="110.15094339622641" type="curve" smooth="yes"/>
      <point x="468.11320754716985" y="32.50943396226415"/>
      <point x="688.8301886792453" y="-18.37735849056604"/>
      <point x="912.1132075471698" y="-35.81132075471699" type="curve"/>
      <point x="914.6037735849056" y="-24.92452830188679"/>
      <point x="916.6792452830189" y="-10.547169811320753"/>
      <point x="916.6792452830189" y="8.754716981132075" type="curve" smooth="yes"/>
      <point x="916.6792452830189" y="44.62264150943396"/>
      <point x="902.9433962264151" y="59.86792452830189"/>
      <point x="856.2830188679245" y="64.35849056603774" type="curve" smooth="yes"/>
      <point x="642.5660377358491" y="86.69811320754717"/>
      <point x="445.8490566037736" y="138.1509433962264"/>
    </contour>
    <contour>
      <point x="247.50943396226415" y="494.8490566037736" type="curve"/>
      <point x="242.9433962264151" y="476.20754716981133"/>
      <point x="241.69811320754718" y="457.39622641509436"/>
      <point x="241.69811320754718" y="436.6792452830189" type="curve" smooth="yes"/>
      <point x="241.69811320754718" y="400.8301886792453"/>
      <point x="254.43396226415092" y="380.6981132075472"/>
      <point x="294.52830188679246" y="360.13207547169816" type="curve" smooth="yes"/>
      <point x="406.50943396226415" y="292.8301886792453"/>
      <point x="656.433962264151" y="212.43396226415095"/>
      <point x="896.9245283018868" y="186.50943396226415" type="curve"/>
      <point x="900.1698113207547" y="199.56603773584908"/>
      <point x="902.8301886792452" y="213.86792452830187"/>
      <point x="902.8301886792452" y="231.75471698113208" type="curve" smooth="yes"/>
      <point x="902.8301886792452" y="268.35849056603774"/>
      <point x="891.8490566037736" y="285.0"/>
      <point x="847.8490566037735" y="289.2452830188679" type="curve" smooth="yes"/>
      <point x="645.1886792452831" y="313.52830188679246"/>
      <point x="459.24528301886795" y="363.6792452830189"/>
      <point x="311.1698113207547" y="455.03773584905656" type="curve"/>
      <point x="347.2264150943396" y="407.1132075471698" type="line"/>
      <point x="347.2264150943396" y="476.0943396226415" type="line"/>
      <point x="312.1698113207547" y="425.2641509433962" type="line"/>
      <point x="437.0566037735849" y="513.7735849056603"/>
      <point x="677.4528301886793" y="603.8867924528302"/>
      <point x="898.6792452830189" y="629.0377358490566" type="curve"/>
      <point x="900.3396226415094" y="640.2641509433962"/>
      <point x="902.0" y="655.0566037735849"/>
      <point x="902.0" y="672.9245283018869" type="curve" smooth="yes"/>
      <point x="902.0" y="703.6415094339623"/>
      <point x="886.8490566037735" y="720.4528301886793"/>
      <point x="859.811320754717" y="720.4528301886793" type="curve" smooth="yes"/>
      <point x="833.8490566037736" y="720.4528301886793"/>
      <point x="809.2075471698114" y="715.7924528301887"/>
      <point x="752.9056603773585" y="704.4716981132076" type="curve" smooth="yes"/>
      <point x="595.6981132075472" y="674.377358490566"/>
      <point x="380.07547169811323" y="585.5849056603773"/>
    </contour>
  </outline>
</glyph>
<glyph name="question_question.code" format="2">
  <advance width="1200.0"/>
  <outline>
    <contour>
      <point x="402.8867924528302" y="3.188679245283019" type="curve"/>
      <point x="402.8867924528302" y="88.26415094339622" type="line" smooth="yes"/>
      <point x="402.8867924528302" y="134.30188679245282"/>
      <point x="360.79245283018867" y="150.32075471698113"/>
      <point x="306.2264150943396" y="150.32075471698113" type="curve" smooth="yes"/>
      <point x="283.811320754717" y="150.32075471698113"/>
      <point x="262.0" y="146.56603773584905"/>
      <point x="244.0188679245283" y="139.64150943396226" type="curve"/>
      <point x="244.0188679245283" y="54.56603773584906" type="line" smooth="yes"/>
      <point x="244.0188679245283" y="8.528301886792452"/>
      <point x="286.1132075471698" y="-7.490566037735849"/>
      <point x="340.6792452830189" y="-7.490566037735849" type="curve" smooth="yes"/>
      <point x="363.0943396226415" y="-7.490566037735849"/>
      <point x="384.90566037735846" y="-3.7358490566037736"/>
    </contour>
    <contour>
      <point x="352.5471698113207" y="720.0" type="curve" smooth="yes"/>
      <point x="269.47169811320754" y="720.0"/>
      <point x="205.83018867924528" y="697.0754716981132"/>
      <point x="170.49056603773587" y="662.3207547169811" type="curve" smooth="yes"/>
      <point x="143.0566037735849" y="635.4716981132075"/>
      <point x="129.71698113207546" y="597.7169811320755"/>
      <point x="129.71698113207546" y="563.1509433962265" type="curve" smooth="yes"/>
      <point x="129.71698113207546" y="542.5849056603774"/>
      <point x="135.0566037735849" y="529.8490566037736"/>
      <point x="147.1509433962264" y="516.8679245283018" type="curve"/>
      <point x="153.1509433962264" y="516.8679245283018" type="line"/>
      <point x="192.16981132075472" y="587.6037735849056"/>
      <point x="260.20754716981133" y="630.8301886792452"/>
      <point x="361.5849056603774" y="630.8301886792452" type="curve" smooth="yes"/>
      <point x="406.622641509434" y="630.8301886792452"/>
      <point x="447.7169811320755" y="623.1509433962265"/>
      <point x="475.2452830188679" y="607.622641509434" type="curve"/>
      <point x="487.35849056603774" y="591.0943396226415"/>
      <point x="495.54716981132077" y="572.3962264150944"/>
      <point x="495.54716981132077" y="550.9433962264151" type="curve" smooth="yes"/>
      <point x="495.54716981132077" y="500.8867924528302"/>
      <point x="459.62264150943395" y="460.7924528301887"/>
      <point x="394.6981132075472" y="424.77358490566036" type="curve" smooth="yes"/>
      <point x="365.37735849056605" y="408.7735849056604" type="line" smooth="yes"/>
      <point x="295.60377358490564" y="369.24528301886795"/>
      <point x="273.5283018867924" y="333.8301886792453"/>
      <point x="273.5283018867924" y="296.1320754716981" type="curve" smooth="yes"/>
      <point x="273.5283018867924" y="291.54716981132077" type="line" smooth="yes"/>
      <point x="273.5283018867924" y="270.0"/>
      <point x="293.8301886792453" y="243.22641509433961"/>
      <point x="350.3207547169811" y="243.22641509433961" type="curve" smooth="yes"/>
      <point x="359.64150943396226" y="243.22641509433961" type="line"/>
      <point x="359.64150943396226" y="255.71698113207546" type="line" smooth="yes"/>
      <point x="359.64150943396226" y="298.4150943396226"/>
      <point x="371.3018867924528" y="318.8301886792453"/>
      <point x="434.50943396226415" y="357.1132075471698" type="curve" smooth="yes"/>
      <point x="469.4716981132076" y="377.26415094339626" type="line" smooth="yes"/>
      <point x="549.9433962264151" y="424.6792452830189"/>
      <point x="585.7169811320755" y="467.4339622641509"/>
      <point x="585.7169811320755" y="541.5471698113208" type="curve" smooth="yes"/>
      <point x="585.7169811320755" y="546.8867924528302" type="line" smooth="yes"/>
      <point x="585.7169811320755" y="636.0188679245282"/>
      <point x="511.73584905660374" y="720.0"/>
    </contour>
    <contour>
      <point x="869.4905660377358" y="3.188679245283019" type="curve"/>
      <point x="869.4905660377358" y="88.26415094339622" type="line" smooth="yes"/>
      <point x="869.4905660377358" y="134.30188679245282"/>
      <point x="827.3962264150944" y="150.32075471698113"/>
      <point x="772.8301886792452" y="150.32075471698113" type="curve" smooth="yes"/>
      <point x="750.4150943396227" y="150.32075471698113"/>
      <point x="728.6037735849058" y="146.56603773584905"/>
      <point x="710.622641509434" y="139.64150943396226" type="curve"/>
      <point x="710.622641509434" y="54.56603773584906" type="line" smooth="yes"/>
      <point x="710.622641509434" y="8.528301886792452"/>
      <point x="752.7169811320755" y="-7.490566037735849"/>
      <point x="807.2830188679245" y="-7.490566037735849" type="curve" smooth="yes"/>
      <point x="829.6981132075472" y="-7.490566037735849"/>
      <point x="851.5094339622641" y="-3.7358490566037736"/>
    </contour>
    <contour>
      <point x="785.4150943396227" y="720.0" type="curve" smooth="yes"/>
      <point x="696.0188679245283" y="720.0"/>
      <point x="632.8490566037736" y="699.0754716981132"/>
      <point x="597.0" y="662.8113207547169" type="curve" smooth="yes"/>
      <point x="585.1698113207548" y="650.9811320754717"/>
      <point x="577.7547169811321" y="638.3207547169811"/>
      <point x="574.8301886792453" y="623.6603773584906" type="curve"/>
      <point x="541.1509433962265" y="623.6603773584906" type="line"/>
      <point x="556.5471698113208" y="519.3396226415094" type="line"/>
      <point x="613.0" y="595.6415094339623"/>
      <point x="685.4150943396227" y="630.8301886792452"/>
      <point x="787.9056603773585" y="630.8301886792452" type="curve" smooth="yes"/>
      <point x="854.1886792452831" y="630.8301886792452"/>
      <point x="890.6415094339623" y="621.2264150943397"/>
      <point x="918.1509433962264" y="602.9433962264151" type="curve"/>
      <point x="925.5849056603773" y="588.7547169811321"/>
      <point x="932.6037735849056" y="572.3962264150944"/>
      <point x="932.6037735849056" y="550.9433962264151" type="curve" smooth="yes"/>
      <point x="932.6037735849056" y="501.4716981132076"/>
      <point x="915.7358490566038" y="466.20754716981133"/>
      <point x="853.9811320754717" y="426.0188679245283" type="curve" smooth="yes"/>
      <point x="828.6603773584906" y="410.0188679245283" type="line" smooth="yes"/>
      <point x="771.1698113207547" y="372.92452830188677"/>
      <point x="740.132075471698" y="333.8301886792453"/>
      <point x="740.132075471698" y="296.1320754716981" type="curve" smooth="yes"/>
      <point x="740.132075471698" y="291.54716981132077" type="line" smooth="yes"/>
      <point x="740.132075471698" y="270.0"/>
      <point x="760.4339622641509" y="243.22641509433961"/>
      <point x="816.9245283018868" y="243.22641509433961" type="curve" smooth="yes"/>
      <point x="826.2452830188679" y="243.22641509433961" type="line"/>
      <point x="826.2452830188679" y="254.88679245283018" type="line" smooth="yes"/>
      <point x="826.2452830188679" y="291.49056603773585"/>
      <point x="839.0" y="314.49056603773585"/>
      <point x="892.3962264150942" y="352.13207547169816" type="curve" smooth="yes"/>
      <point x="921.6981132075472" y="370.62264150943395" type="line" smooth="yes"/>
      <point x="997.7547169811321" y="420.7169811320755"/>
      <point x="1026.9245283018868" y="468.0188679245283"/>
      <point x="1026.9245283018868" y="541.5471698113207" type="curve" smooth="yes"/>
      <point x="1026.9245283018868" y="546.8867924528302" type="line" smooth="yes"/>
      <point x="1026.9245283018868" y="639.1886792452831"/>
      <point x="956.4905660377358" y="720.0"/>
    </contour>
  </outline>
</glyph>
<glyph name="v.italic" format="2">
  <advance width="600.0"/>
  <outline>
    <contour>
      <point x="28.339622641509433" y="509.3207547169811" type="curve"/>
      <point x="24.67924528301887" y="495.6037735849057"/>
      <point x="23.264150943396224" y="485.0377358490566"/>
      <point x="23.264150943396224" y="473.0566037735849" type="curve" smooth="yes"/>
      <point x="23.67924528301887" y="431.47169811320754"/>
      <point x="37.24528301886792" y="412.41509433962267"/>
      <point x="55.81132075471698" y="412.41509433962267" type="curve" smooth="yes"/>
      <point x="74.30188679245283" y="412.41509433962267"/>
      <point x="91.64150943396226" y="433.24528301886795"/>
      <point x="132.79245283018867" y="457.64150943396226" type="curve"/>
      <point x="137.0377358490566" y="455.8867924528302" type="line"/>
      <point x="137.0377358490566" y="354.7547169811321"/>
      <point x="137.0377358490566" y="251.11320754716982"/>
      <point x="137.0377358490566" y="149.9811320754717" type="curve" smooth="yes"/>
      <point x="137.0377358490566" y="104.30188679245283"/>
      <point x="153.1132075471698" y="64.71698113207547"/>
      <point x="181.94339622641508" y="35.886792452830186" type="curve" smooth="yes"/>
      <point x="209.3396226415094" y="8.490566037735848"/>
      <point x="245.81132075471697" y="-7.245283018867925"/>
      <point x="294.377358490566" y="-7.245283018867925" type="curve" smooth="yes"/>
      <point x="411.8867924528302" y="-7.245283018867925"/>
      <point x="539.9433962264152" y="137.50943396226415"/>
      <point x="539.9433962264152" y="334.4339622641509" type="curve" smooth="yes"/>
      <point x="539.9433962264152" y="347.4339622641509" type="line" smooth="yes"/>
      <point x="539.9433962264152" y="432.35849056603774"/>
      <point x="525.2830188679245" y="492.0188679245283"/>
      <point x="496.1320754716981" y="521.1698113207548" type="curve" smooth="yes"/>
      <point x="481.566037735849" y="535.7358490566037"/>
      <point x="463.33962264150944" y="543.2264150943397"/>
      <point x="442.0377358490566" y="543.2264150943397" type="curve" smooth="yes"/>
      <point x="423.24528301886795" y="543.2264150943397"/>
      <point x="408.188679245283" y="540.811320754717"/>
      <point x="395.3018867924528" y="536.3207547169811" type="curve"/>
      <point x="395.3018867924528" y="530.3207547169812" type="line"/>
      <point x="433.6981132075472" y="477.1698113207547"/>
      <point x="447.60377358490564" y="429.6792452830189"/>
      <point x="447.60377358490564" y="341.45283018867923" type="curve" smooth="yes"/>
      <point x="447.60377358490564" y="329.2830188679245" type="line" smooth="yes"/>
      <point x="447.60377358490564" y="187.8679245283019"/>
      <point x="368.33986933768114" y="79.67525218259057"/>
      <point x="270.07547169811323" y="58.47169811320755" type="curve" smooth="yes"/>
      <point x="268.0754716981132" y="58.47169811320755"/>
      <point x="266.07547169811323" y="58.47169811320756"/>
      <point x="264.07547169811323" y="58.47169811320756" type="curve"/>
      <point x="234.06658658023207" y="79.61025868490944"/>
      <point x="225.22641509433961" y="103.11320754716981"/>
      <point x="225.22641509433961" y="152.7924528301887" type="curve" smooth="yes"/>
      <point x="225.22641509433961" y="252.79245283018867"/>
      <point x="225.22641509433961" y="351.79245283018867"/>
      <point x="225.22641509433961" y="451.79245283018867" type="curve" smooth="yes"/>
      <point x="225.22641509433961" y="502.86792452830196"/>
      <point x="196.2830188679245" y="542.2264150943397"/>
      <point x="152.1132075471698" y="542.2264150943397" type="curve" smooth="yes"/>
      <point x="115.43396226415095" y="542.2264150943397"/>
      <point x="70.09433962264151" y="530.7358490566038"/>
    </contour>
  </outline>
</glyph>
